<?xml version="1.0" standalone="no"?>
<!DOCTYPE svg PUBLIC "-//W3C//DTD SVG 20010904//EN"
 "http://www.w3.org/TR/2001/REC-SVG-20010904/DTD/svg10.dtd">
<svg version="1.0" xmlns="http://www.w3.org/2000/svg"
 width="738.000000pt" height="738.000000pt" viewBox="0 0 738.000000 738.000000"
 preserveAspectRatio="xMidYMid meet">
<metadata>
Created by potrace 1.11, written by Peter Selinger 2001-2013
</metadata>
<g transform="translate(0.000000,738.000000) scale(0.100000,-0.100000)"
fill="#000000" stroke="none">
<path d="M5472 7358 c-7 -7 -12 -24 -12 -38 0 -14 5 -31 12 -38 7 -7 24 -12
38 -12 14 0 31 5 38 12 7 7 12 24 12 38 0 14 -5 31 -12 38 -7 7 -24 12 -38 12
-14 0 -31 -5 -38 -12z"/>
<path d="M5582 7358 c-7 -7 -12 -24 -12 -38 0 -14 5 -31 12 -38 7 -7 24 -12
38 -12 14 0 31 5 38 12 7 7 12 24 12 38 0 14 -5 31 -12 38 -7 7 -24 12 -38 12
-14 0 -31 -5 -38 -12z"/>
<path d="M5252 7248 c-7 -7 -12 -24 -12 -38 0 -14 5 -31 12 -38 7 -7 24 -12
38 -12 14 0 31 5 38 12 7 7 12 24 12 38 0 14 -5 31 -12 38 -7 7 -24 12 -38 12
-14 0 -31 -5 -38 -12z"/>
<path d="M5472 7248 c-7 -7 -12 -24 -12 -38 0 -14 5 -31 12 -38 7 -7 24 -12
38 -12 14 0 31 5 38 12 7 7 12 24 12 38 0 14 -5 31 -12 38 -7 7 -24 12 -38 12
-14 0 -31 -5 -38 -12z"/>
<path d="M5582 7248 c-7 -7 -12 -24 -12 -38 0 -14 5 -31 12 -38 7 -7 24 -12
38 -12 14 0 31 5 38 12 7 7 12 24 12 38 0 14 -5 31 -12 38 -7 7 -24 12 -38 12
-14 0 -31 -5 -38 -12z"/>
<path d="M5692 7248 c-7 -7 -12 -24 -12 -38 0 -14 5 -31 12 -38 7 -7 24 -12
38 -12 14 0 31 5 38 12 7 7 12 24 12 38 0 14 -5 31 -12 38 -7 7 -24 12 -38 12
-14 0 -31 -5 -38 -12z"/>
<path d="M5472 7138 c-7 -7 -12 -24 -12 -38 0 -14 5 -31 12 -38 7 -7 24 -12
38 -12 14 0 31 5 38 12 7 7 12 24 12 38 0 14 -5 31 -12 38 -7 7 -24 12 -38 12
-14 0 -31 -5 -38 -12z"/>
<path d="M5582 7138 c-7 -7 -12 -24 -12 -38 0 -14 5 -31 12 -38 7 -7 24 -12
38 -12 14 0 31 5 38 12 7 7 12 24 12 38 0 14 -5 31 -12 38 -7 7 -24 12 -38 12
-14 0 -31 -5 -38 -12z"/>
<path d="M5692 7138 c-7 -7 -12 -24 -12 -38 0 -14 5 -31 12 -38 7 -7 24 -12
38 -12 14 0 31 5 38 12 7 7 12 24 12 38 0 14 -5 31 -12 38 -7 7 -24 12 -38 12
-14 0 -31 -5 -38 -12z"/>
<path d="M5472 7028 c-7 -7 -12 -24 -12 -38 0 -14 5 -31 12 -38 7 -7 24 -12
38 -12 14 0 31 5 38 12 7 7 12 24 12 38 0 14 -5 31 -12 38 -7 7 -24 12 -38 12
-14 0 -31 -5 -38 -12z"/>
<path d="M5582 7028 c-7 -7 -12 -24 -12 -38 0 -14 5 -31 12 -38 7 -7 24 -12
38 -12 14 0 31 5 38 12 7 7 12 24 12 38 0 14 -5 31 -12 38 -7 7 -24 12 -38 12
-14 0 -31 -5 -38 -12z"/>
<path d="M5692 7028 c-7 -7 -12 -24 -12 -38 0 -14 5 -31 12 -38 7 -7 24 -12
38 -12 14 0 31 5 38 12 7 7 12 24 12 38 0 14 -5 31 -12 38 -7 7 -24 12 -38 12
-14 0 -31 -5 -38 -12z"/>
<path d="M5802 7028 c-7 -7 -12 -24 -12 -38 0 -14 5 -31 12 -38 7 -7 24 -12
38 -12 14 0 31 5 38 12 7 7 12 24 12 38 0 14 -5 31 -12 38 -7 7 -24 12 -38 12
-14 0 -31 -5 -38 -12z"/>
<path d="M5472 6918 c-7 -7 -12 -24 -12 -38 0 -14 5 -31 12 -38 7 -7 24 -12
38 -12 14 0 31 5 38 12 7 7 12 24 12 38 0 14 -5 31 -12 38 -7 7 -24 12 -38 12
-14 0 -31 -5 -38 -12z"/>
<path d="M5582 6918 c-7 -7 -12 -24 -12 -38 0 -14 5 -31 12 -38 7 -7 24 -12
38 -12 14 0 31 5 38 12 7 7 12 24 12 38 0 14 -5 31 -12 38 -7 7 -24 12 -38 12
-14 0 -31 -5 -38 -12z"/>
<path d="M5692 6918 c-7 -7 -12 -24 -12 -38 0 -14 5 -31 12 -38 7 -7 24 -12
38 -12 14 0 31 5 38 12 7 7 12 24 12 38 0 14 -5 31 -12 38 -7 7 -24 12 -38 12
-14 0 -31 -5 -38 -12z"/>
<path d="M5802 6918 c-7 -7 -12 -24 -12 -38 0 -14 5 -31 12 -38 7 -7 24 -12
38 -12 14 0 31 5 38 12 7 7 12 24 12 38 0 14 -5 31 -12 38 -7 7 -24 12 -38 12
-14 0 -31 -5 -38 -12z"/>
<path d="M5912 6918 c-7 -7 -12 -24 -12 -38 0 -14 5 -31 12 -38 7 -7 24 -12
38 -12 14 0 31 5 38 12 7 7 12 24 12 38 0 14 -5 31 -12 38 -7 7 -24 12 -38 12
-14 0 -31 -5 -38 -12z"/>
<path d="M5472 6808 c-7 -7 -12 -24 -12 -38 0 -14 5 -31 12 -38 7 -7 24 -12
38 -12 14 0 31 5 38 12 7 7 12 24 12 38 0 14 -5 31 -12 38 -7 7 -24 12 -38 12
-14 0 -31 -5 -38 -12z"/>
<path d="M5582 6808 c-7 -7 -12 -24 -12 -38 0 -14 5 -31 12 -38 7 -7 24 -12
38 -12 14 0 31 5 38 12 7 7 12 24 12 38 0 14 -5 31 -12 38 -7 7 -24 12 -38 12
-14 0 -31 -5 -38 -12z"/>
<path d="M5692 6808 c-7 -7 -12 -24 -12 -38 0 -14 5 -31 12 -38 7 -7 24 -12
38 -12 14 0 31 5 38 12 7 7 12 24 12 38 0 14 -5 31 -12 38 -7 7 -24 12 -38 12
-14 0 -31 -5 -38 -12z"/>
<path d="M5802 6808 c-7 -7 -12 -24 -12 -38 0 -14 5 -31 12 -38 7 -7 24 -12
38 -12 14 0 31 5 38 12 7 7 12 24 12 38 0 14 -5 31 -12 38 -7 7 -24 12 -38 12
-14 0 -31 -5 -38 -12z"/>
<path d="M5912 6808 c-7 -7 -12 -24 -12 -38 0 -14 5 -31 12 -38 7 -7 24 -12
38 -12 14 0 31 5 38 12 7 7 12 24 12 38 0 14 -5 31 -12 38 -7 7 -24 12 -38 12
-14 0 -31 -5 -38 -12z"/>
<path d="M6022 6808 c-7 -7 -12 -24 -12 -38 0 -14 5 -31 12 -38 7 -7 24 -12
38 -12 14 0 31 5 38 12 7 7 12 24 12 38 0 14 -5 31 -12 38 -7 7 -24 12 -38 12
-14 0 -31 -5 -38 -12z"/>
<path d="M5472 6698 c-7 -7 -12 -24 -12 -38 0 -14 5 -31 12 -38 7 -7 24 -12
38 -12 14 0 31 5 38 12 7 7 12 24 12 38 0 14 -5 31 -12 38 -7 7 -24 12 -38 12
-14 0 -31 -5 -38 -12z"/>
<path d="M5582 6698 c-7 -7 -12 -24 -12 -38 0 -14 5 -31 12 -38 7 -7 24 -12
38 -12 14 0 31 5 38 12 7 7 12 24 12 38 0 14 -5 31 -12 38 -7 7 -24 12 -38 12
-14 0 -31 -5 -38 -12z"/>
<path d="M5692 6698 c-7 -7 -12 -24 -12 -38 0 -14 5 -31 12 -38 7 -7 24 -12
38 -12 14 0 31 5 38 12 7 7 12 24 12 38 0 14 -5 31 -12 38 -7 7 -24 12 -38 12
-14 0 -31 -5 -38 -12z"/>
<path d="M5802 6698 c-7 -7 -12 -24 -12 -38 0 -14 5 -31 12 -38 7 -7 24 -12
38 -12 14 0 31 5 38 12 7 7 12 24 12 38 0 14 -5 31 -12 38 -7 7 -24 12 -38 12
-14 0 -31 -5 -38 -12z"/>
<path d="M5912 6698 c-7 -7 -12 -24 -12 -38 0 -14 5 -31 12 -38 7 -7 24 -12
38 -12 14 0 31 5 38 12 7 7 12 24 12 38 0 14 -5 31 -12 38 -7 7 -24 12 -38 12
-14 0 -31 -5 -38 -12z"/>
<path d="M6022 6698 c-7 -7 -12 -24 -12 -38 0 -14 5 -31 12 -38 7 -7 24 -12
38 -12 14 0 31 5 38 12 7 7 12 24 12 38 0 14 -5 31 -12 38 -7 7 -24 12 -38 12
-14 0 -31 -5 -38 -12z"/>
<path d="M6132 6698 c-7 -7 -12 -24 -12 -38 0 -14 5 -31 12 -38 7 -7 24 -12
38 -12 14 0 31 5 38 12 7 7 12 24 12 38 0 14 -5 31 -12 38 -7 7 -24 12 -38 12
-14 0 -31 -5 -38 -12z"/>
<path d="M6242 6698 c-7 -7 -12 -24 -12 -38 0 -14 5 -31 12 -38 7 -7 24 -12
38 -12 14 0 31 5 38 12 7 7 12 24 12 38 0 14 -5 31 -12 38 -7 7 -24 12 -38 12
-14 0 -31 -5 -38 -12z"/>
<path d="M6352 6698 c-7 -7 -12 -24 -12 -38 0 -14 5 -31 12 -38 7 -7 24 -12
38 -12 14 0 31 5 38 12 7 7 12 24 12 38 0 14 -5 31 -12 38 -7 7 -24 12 -38 12
-14 0 -31 -5 -38 -12z"/>
<path d="M6792 6698 c-7 -7 -12 -24 -12 -38 0 -14 5 -31 12 -38 7 -7 24 -12
38 -12 14 0 31 5 38 12 7 7 12 24 12 38 0 14 -5 31 -12 38 -7 7 -24 12 -38 12
-14 0 -31 -5 -38 -12z"/>
<path d="M5466 6579 c-24 -35 0 -79 43 -79 34 0 51 17 51 50 0 14 -5 31 -12
38 -19 19 -65 14 -82 -9z"/>
<path d="M5582 6588 c-7 -7 -12 -24 -12 -38 0 -14 5 -31 12 -38 7 -7 24 -12
38 -12 14 0 31 5 38 12 7 7 12 24 12 38 0 14 -5 31 -12 38 -7 7 -24 12 -38 12
-14 0 -31 -5 -38 -12z"/>
<path d="M5692 6588 c-7 -7 -12 -24 -12 -38 0 -14 5 -31 12 -38 7 -7 24 -12
38 -12 14 0 31 5 38 12 7 7 12 24 12 38 0 14 -5 31 -12 38 -7 7 -24 12 -38 12
-14 0 -31 -5 -38 -12z"/>
<path d="M5802 6588 c-7 -7 -12 -24 -12 -38 0 -14 5 -31 12 -38 7 -7 24 -12
38 -12 14 0 31 5 38 12 7 7 12 24 12 38 0 14 -5 31 -12 38 -7 7 -24 12 -38 12
-14 0 -31 -5 -38 -12z"/>
<path d="M5912 6588 c-7 -7 -12 -24 -12 -38 0 -14 5 -31 12 -38 7 -7 24 -12
38 -12 14 0 31 5 38 12 7 7 12 24 12 38 0 14 -5 31 -12 38 -7 7 -24 12 -38 12
-14 0 -31 -5 -38 -12z"/>
<path d="M6022 6588 c-7 -7 -12 -24 -12 -38 0 -14 5 -31 12 -38 7 -7 24 -12
38 -12 14 0 31 5 38 12 7 7 12 24 12 38 0 14 -5 31 -12 38 -7 7 -24 12 -38 12
-14 0 -31 -5 -38 -12z"/>
<path d="M6132 6588 c-7 -7 -12 -24 -12 -38 0 -14 5 -31 12 -38 7 -7 24 -12
38 -12 14 0 31 5 38 12 7 7 12 24 12 38 0 14 -5 31 -12 38 -7 7 -24 12 -38 12
-14 0 -31 -5 -38 -12z"/>
<path d="M6242 6588 c-7 -7 -12 -24 -12 -38 0 -14 5 -31 12 -38 7 -7 24 -12
38 -12 14 0 31 5 38 12 7 7 12 24 12 38 0 14 -5 31 -12 38 -7 7 -24 12 -38 12
-14 0 -31 -5 -38 -12z"/>
<path d="M6352 6588 c-7 -7 -12 -24 -12 -38 0 -14 5 -31 12 -38 7 -7 24 -12
38 -12 14 0 31 5 38 12 7 7 12 24 12 38 0 14 -5 31 -12 38 -7 7 -24 12 -38 12
-14 0 -31 -5 -38 -12z"/>
<path d="M6462 6588 c-7 -7 -12 -24 -12 -38 0 -14 5 -31 12 -38 7 -7 24 -12
38 -12 14 0 31 5 38 12 7 7 12 24 12 38 0 14 -5 31 -12 38 -7 7 -24 12 -38 12
-14 0 -31 -5 -38 -12z"/>
<path d="M6572 6588 c-7 -7 -12 -24 -12 -38 0 -14 5 -31 12 -38 7 -7 24 -12
38 -12 14 0 31 5 38 12 7 7 12 24 12 38 0 14 -5 31 -12 38 -7 7 -24 12 -38 12
-14 0 -31 -5 -38 -12z"/>
<path d="M6682 6588 c-7 -7 -12 -24 -12 -38 0 -14 5 -31 12 -38 7 -7 24 -12
38 -12 14 0 31 5 38 12 7 7 12 24 12 38 0 14 -5 31 -12 38 -7 7 -24 12 -38 12
-14 0 -31 -5 -38 -12z"/>
<path d="M5362 6478 c-7 -7 -12 -24 -12 -38 0 -14 5 -31 12 -38 7 -7 24 -12
38 -12 14 0 31 5 38 12 7 7 12 24 12 38 0 14 -5 31 -12 38 -7 7 -24 12 -38 12
-14 0 -31 -5 -38 -12z"/>
<path d="M5472 6478 c-7 -7 -12 -24 -12 -38 0 -14 5 -31 12 -38 7 -7 24 -12
38 -12 14 0 31 5 38 12 7 7 12 24 12 38 0 14 -5 31 -12 38 -7 7 -24 12 -38 12
-14 0 -31 -5 -38 -12z"/>
<path d="M5582 6478 c-7 -7 -12 -24 -12 -38 0 -14 5 -31 12 -38 7 -7 24 -12
38 -12 14 0 31 5 38 12 7 7 12 24 12 38 0 14 -5 31 -12 38 -7 7 -24 12 -38 12
-14 0 -31 -5 -38 -12z"/>
<path d="M5692 6478 c-7 -7 -12 -24 -12 -38 0 -14 5 -31 12 -38 7 -7 24 -12
38 -12 14 0 31 5 38 12 7 7 12 24 12 38 0 14 -5 31 -12 38 -7 7 -24 12 -38 12
-14 0 -31 -5 -38 -12z"/>
<path d="M5802 6478 c-7 -7 -12 -24 -12 -38 0 -14 5 -31 12 -38 7 -7 24 -12
38 -12 14 0 31 5 38 12 7 7 12 24 12 38 0 14 -5 31 -12 38 -7 7 -24 12 -38 12
-14 0 -31 -5 -38 -12z"/>
<path d="M5912 6478 c-7 -7 -12 -24 -12 -38 0 -14 5 -31 12 -38 7 -7 24 -12
38 -12 14 0 31 5 38 12 7 7 12 24 12 38 0 14 -5 31 -12 38 -7 7 -24 12 -38 12
-14 0 -31 -5 -38 -12z"/>
<path d="M6022 6478 c-7 -7 -12 -24 -12 -38 0 -14 5 -31 12 -38 7 -7 24 -12
38 -12 14 0 31 5 38 12 7 7 12 24 12 38 0 14 -5 31 -12 38 -7 7 -24 12 -38 12
-14 0 -31 -5 -38 -12z"/>
<path d="M6132 6478 c-7 -7 -12 -24 -12 -38 0 -14 5 -31 12 -38 7 -7 24 -12
38 -12 14 0 31 5 38 12 7 7 12 24 12 38 0 14 -5 31 -12 38 -7 7 -24 12 -38 12
-14 0 -31 -5 -38 -12z"/>
<path d="M6242 6478 c-7 -7 -12 -24 -12 -38 0 -14 5 -31 12 -38 7 -7 24 -12
38 -12 14 0 31 5 38 12 7 7 12 24 12 38 0 14 -5 31 -12 38 -7 7 -24 12 -38 12
-14 0 -31 -5 -38 -12z"/>
<path d="M6352 6478 c-7 -7 -12 -24 -12 -38 0 -14 5 -31 12 -38 7 -7 24 -12
38 -12 14 0 31 5 38 12 7 7 12 24 12 38 0 14 -5 31 -12 38 -7 7 -24 12 -38 12
-14 0 -31 -5 -38 -12z"/>
<path d="M6462 6478 c-7 -7 -12 -24 -12 -38 0 -14 5 -31 12 -38 7 -7 24 -12
38 -12 14 0 31 5 38 12 7 7 12 24 12 38 0 14 -5 31 -12 38 -7 7 -24 12 -38 12
-14 0 -31 -5 -38 -12z"/>
<path d="M6572 6478 c-7 -7 -12 -24 -12 -38 0 -14 5 -31 12 -38 7 -7 24 -12
38 -12 14 0 31 5 38 12 7 7 12 24 12 38 0 14 -5 31 -12 38 -7 7 -24 12 -38 12
-14 0 -31 -5 -38 -12z"/>
<path d="M6682 6478 c-7 -7 -12 -24 -12 -38 0 -14 5 -31 12 -38 7 -7 24 -12
38 -12 14 0 31 5 38 12 7 7 12 24 12 38 0 14 -5 31 -12 38 -7 7 -24 12 -38 12
-14 0 -31 -5 -38 -12z"/>
<path d="M5362 6368 c-7 -7 -12 -24 -12 -38 0 -14 5 -31 12 -38 7 -7 24 -12
38 -12 14 0 31 5 38 12 7 7 12 24 12 38 0 14 -5 31 -12 38 -7 7 -24 12 -38 12
-14 0 -31 -5 -38 -12z"/>
<path d="M5472 6368 c-7 -7 -12 -24 -12 -38 0 -14 5 -31 12 -38 7 -7 24 -12
38 -12 14 0 31 5 38 12 7 7 12 24 12 38 0 14 -5 31 -12 38 -7 7 -24 12 -38 12
-14 0 -31 -5 -38 -12z"/>
<path d="M5582 6368 c-7 -7 -12 -24 -12 -38 0 -14 5 -31 12 -38 7 -7 24 -12
38 -12 14 0 31 5 38 12 7 7 12 24 12 38 0 14 -5 31 -12 38 -7 7 -24 12 -38 12
-14 0 -31 -5 -38 -12z"/>
<path d="M5692 6368 c-7 -7 -12 -24 -12 -38 0 -14 5 -31 12 -38 7 -7 24 -12
38 -12 14 0 31 5 38 12 7 7 12 24 12 38 0 14 -5 31 -12 38 -7 7 -24 12 -38 12
-14 0 -31 -5 -38 -12z"/>
<path d="M5802 6368 c-7 -7 -12 -24 -12 -38 0 -14 5 -31 12 -38 7 -7 24 -12
38 -12 14 0 31 5 38 12 7 7 12 24 12 38 0 14 -5 31 -12 38 -7 7 -24 12 -38 12
-14 0 -31 -5 -38 -12z"/>
<path d="M5912 6368 c-7 -7 -12 -24 -12 -38 0 -14 5 -31 12 -38 7 -7 24 -12
38 -12 14 0 31 5 38 12 7 7 12 24 12 38 0 14 -5 31 -12 38 -7 7 -24 12 -38 12
-14 0 -31 -5 -38 -12z"/>
<path d="M6022 6368 c-7 -7 -12 -24 -12 -38 0 -14 5 -31 12 -38 7 -7 24 -12
38 -12 14 0 31 5 38 12 7 7 12 24 12 38 0 14 -5 31 -12 38 -7 7 -24 12 -38 12
-14 0 -31 -5 -38 -12z"/>
<path d="M6132 6368 c-7 -7 -12 -24 -12 -38 0 -14 5 -31 12 -38 7 -7 24 -12
38 -12 14 0 31 5 38 12 7 7 12 24 12 38 0 14 -5 31 -12 38 -7 7 -24 12 -38 12
-14 0 -31 -5 -38 -12z"/>
<path d="M6242 6368 c-7 -7 -12 -24 -12 -38 0 -14 5 -31 12 -38 7 -7 24 -12
38 -12 14 0 31 5 38 12 7 7 12 24 12 38 0 14 -5 31 -12 38 -7 7 -24 12 -38 12
-14 0 -31 -5 -38 -12z"/>
<path d="M6352 6368 c-7 -7 -12 -24 -12 -38 0 -14 5 -31 12 -38 7 -7 24 -12
38 -12 14 0 31 5 38 12 7 7 12 24 12 38 0 14 -5 31 -12 38 -7 7 -24 12 -38 12
-14 0 -31 -5 -38 -12z"/>
<path d="M6462 6368 c-7 -7 -12 -24 -12 -38 0 -14 5 -31 12 -38 7 -7 24 -12
38 -12 14 0 31 5 38 12 7 7 12 24 12 38 0 14 -5 31 -12 38 -7 7 -24 12 -38 12
-14 0 -31 -5 -38 -12z"/>
<path d="M6572 6368 c-7 -7 -12 -24 -12 -38 0 -14 5 -31 12 -38 7 -7 24 -12
38 -12 14 0 31 5 38 12 7 7 12 24 12 38 0 14 -5 31 -12 38 -7 7 -24 12 -38 12
-14 0 -31 -5 -38 -12z"/>
<path d="M6682 6368 c-7 -7 -12 -24 -12 -38 0 -14 5 -31 12 -38 7 -7 24 -12
38 -12 14 0 31 5 38 12 7 7 12 24 12 38 0 14 -5 31 -12 38 -7 7 -24 12 -38 12
-14 0 -31 -5 -38 -12z"/>
<path d="M6792 6368 c-7 -7 -12 -24 -12 -38 0 -14 5 -31 12 -38 7 -7 24 -12
38 -12 14 0 31 5 38 12 7 7 12 24 12 38 0 14 -5 31 -12 38 -7 7 -24 12 -38 12
-14 0 -31 -5 -38 -12z"/>
<path d="M4922 6258 c-7 -7 -12 -24 -12 -38 0 -14 5 -31 12 -38 7 -7 24 -12
38 -12 14 0 31 5 38 12 7 7 12 24 12 38 0 14 -5 31 -12 38 -7 7 -24 12 -38 12
-14 0 -31 -5 -38 -12z"/>
<path d="M5032 6258 c-7 -7 -12 -24 -12 -38 0 -14 5 -31 12 -38 7 -7 24 -12
38 -12 14 0 31 5 38 12 7 7 12 24 12 38 0 14 -5 31 -12 38 -7 7 -24 12 -38 12
-14 0 -31 -5 -38 -12z"/>
<path d="M5362 6258 c-7 -7 -12 -24 -12 -38 0 -14 5 -31 12 -38 7 -7 24 -12
38 -12 14 0 31 5 38 12 7 7 12 24 12 38 0 14 -5 31 -12 38 -7 7 -24 12 -38 12
-14 0 -31 -5 -38 -12z"/>
<path d="M5472 6258 c-7 -7 -12 -24 -12 -38 0 -14 5 -31 12 -38 7 -7 24 -12
38 -12 14 0 31 5 38 12 7 7 12 24 12 38 0 14 -5 31 -12 38 -7 7 -24 12 -38 12
-14 0 -31 -5 -38 -12z"/>
<path d="M5582 6258 c-7 -7 -12 -24 -12 -38 0 -14 5 -31 12 -38 7 -7 24 -12
38 -12 14 0 31 5 38 12 7 7 12 24 12 38 0 14 -5 31 -12 38 -7 7 -24 12 -38 12
-14 0 -31 -5 -38 -12z"/>
<path d="M5692 6258 c-7 -7 -12 -24 -12 -38 0 -14 5 -31 12 -38 7 -7 24 -12
38 -12 14 0 31 5 38 12 7 7 12 24 12 38 0 14 -5 31 -12 38 -7 7 -24 12 -38 12
-14 0 -31 -5 -38 -12z"/>
<path d="M5802 6258 c-7 -7 -12 -24 -12 -38 0 -14 5 -31 12 -38 7 -7 24 -12
38 -12 14 0 31 5 38 12 7 7 12 24 12 38 0 14 -5 31 -12 38 -7 7 -24 12 -38 12
-14 0 -31 -5 -38 -12z"/>
<path d="M5912 6258 c-7 -7 -12 -24 -12 -38 0 -14 5 -31 12 -38 7 -7 24 -12
38 -12 14 0 31 5 38 12 7 7 12 24 12 38 0 14 -5 31 -12 38 -7 7 -24 12 -38 12
-14 0 -31 -5 -38 -12z"/>
<path d="M6022 6258 c-7 -7 -12 -24 -12 -38 0 -14 5 -31 12 -38 7 -7 24 -12
38 -12 14 0 31 5 38 12 7 7 12 24 12 38 0 14 -5 31 -12 38 -7 7 -24 12 -38 12
-14 0 -31 -5 -38 -12z"/>
<path d="M6132 6258 c-7 -7 -12 -24 -12 -38 0 -14 5 -31 12 -38 7 -7 24 -12
38 -12 14 0 31 5 38 12 7 7 12 24 12 38 0 14 -5 31 -12 38 -7 7 -24 12 -38 12
-14 0 -31 -5 -38 -12z"/>
<path d="M6242 6258 c-7 -7 -12 -24 -12 -38 0 -14 5 -31 12 -38 7 -7 24 -12
38 -12 14 0 31 5 38 12 7 7 12 24 12 38 0 14 -5 31 -12 38 -7 7 -24 12 -38 12
-14 0 -31 -5 -38 -12z"/>
<path d="M6352 6258 c-7 -7 -12 -24 -12 -38 0 -14 5 -31 12 -38 7 -7 24 -12
38 -12 14 0 31 5 38 12 7 7 12 24 12 38 0 14 -5 31 -12 38 -7 7 -24 12 -38 12
-14 0 -31 -5 -38 -12z"/>
<path d="M6462 6258 c-7 -7 -12 -24 -12 -38 0 -14 5 -31 12 -38 7 -7 24 -12
38 -12 14 0 31 5 38 12 7 7 12 24 12 38 0 14 -5 31 -12 38 -7 7 -24 12 -38 12
-14 0 -31 -5 -38 -12z"/>
<path d="M6572 6258 c-7 -7 -12 -24 -12 -38 0 -14 5 -31 12 -38 7 -7 24 -12
38 -12 14 0 31 5 38 12 7 7 12 24 12 38 0 14 -5 31 -12 38 -7 7 -24 12 -38 12
-14 0 -31 -5 -38 -12z"/>
<path d="M6682 6258 c-7 -7 -12 -24 -12 -38 0 -14 5 -31 12 -38 7 -7 24 -12
38 -12 14 0 31 5 38 12 7 7 12 24 12 38 0 14 -5 31 -12 38 -7 7 -24 12 -38 12
-14 0 -31 -5 -38 -12z"/>
<path d="M6792 6258 c-7 -7 -12 -24 -12 -38 0 -14 5 -31 12 -38 7 -7 24 -12
38 -12 14 0 31 5 38 12 7 7 12 24 12 38 0 14 -5 31 -12 38 -7 7 -24 12 -38 12
-14 0 -31 -5 -38 -12z"/>
<path d="M6902 6258 c-7 -7 -12 -24 -12 -38 0 -14 5 -31 12 -38 7 -7 24 -12
38 -12 14 0 31 5 38 12 7 7 12 24 12 38 0 14 -5 31 -12 38 -7 7 -24 12 -38 12
-14 0 -31 -5 -38 -12z"/>
<path d="M5032 6148 c-19 -19 -14 -66 7 -80 20 -12 20 -12 0 -26 -21 -15 -26
-61 -7 -80 17 -17 63 -15 77 2 19 22 9 69 -16 81 l-21 11 21 9 c25 11 35 59
16 81 -14 17 -60 19 -77 2z"/>
<path d="M5142 6148 c-7 -7 -12 -24 -12 -38 0 -14 5 -31 12 -38 7 -7 24 -12
38 -12 14 0 31 5 38 12 7 7 12 24 12 38 0 14 -5 31 -12 38 -7 7 -24 12 -38 12
-14 0 -31 -5 -38 -12z"/>
<path d="M5252 6148 c-7 -7 -12 -24 -12 -38 0 -14 5 -31 12 -38 7 -7 24 -12
38 -12 14 0 31 5 38 12 7 7 12 24 12 38 0 14 -5 31 -12 38 -7 7 -24 12 -38 12
-14 0 -31 -5 -38 -12z"/>
<path d="M5362 6148 c-7 -7 -12 -24 -12 -38 0 -14 5 -31 12 -38 7 -7 24 -12
38 -12 14 0 31 5 38 12 7 7 12 24 12 38 0 14 -5 31 -12 38 -7 7 -24 12 -38 12
-14 0 -31 -5 -38 -12z"/>
<path d="M5472 6148 c-7 -7 -12 -24 -12 -38 0 -14 5 -31 12 -38 7 -7 24 -12
38 -12 14 0 31 5 38 12 7 7 12 24 12 38 0 14 -5 31 -12 38 -7 7 -24 12 -38 12
-14 0 -31 -5 -38 -12z"/>
<path d="M5582 6148 c-7 -7 -12 -24 -12 -38 0 -14 5 -31 12 -38 7 -7 24 -12
38 -12 14 0 31 5 38 12 7 7 12 24 12 38 0 14 -5 31 -12 38 -7 7 -24 12 -38 12
-14 0 -31 -5 -38 -12z"/>
<path d="M5692 6148 c-7 -7 -12 -24 -12 -38 0 -14 5 -31 12 -38 7 -7 24 -12
38 -12 14 0 31 5 38 12 7 7 12 24 12 38 0 14 -5 31 -12 38 -7 7 -24 12 -38 12
-14 0 -31 -5 -38 -12z"/>
<path d="M5802 6148 c-7 -7 -12 -24 -12 -38 0 -14 5 -31 12 -38 7 -7 24 -12
38 -12 14 0 31 5 38 12 7 7 12 24 12 38 0 14 -5 31 -12 38 -7 7 -24 12 -38 12
-14 0 -31 -5 -38 -12z"/>
<path d="M5912 6148 c-7 -7 -12 -24 -12 -38 0 -14 5 -31 12 -38 7 -7 24 -12
38 -12 14 0 31 5 38 12 7 7 12 24 12 38 0 14 -5 31 -12 38 -7 7 -24 12 -38 12
-14 0 -31 -5 -38 -12z"/>
<path d="M6022 6148 c-7 -7 -12 -24 -12 -38 0 -14 5 -31 12 -38 7 -7 24 -12
38 -12 14 0 31 5 38 12 7 7 12 24 12 38 0 14 -5 31 -12 38 -7 7 -24 12 -38 12
-14 0 -31 -5 -38 -12z"/>
<path d="M6132 6148 c-7 -7 -12 -24 -12 -38 0 -14 5 -31 12 -38 7 -7 24 -12
38 -12 14 0 31 5 38 12 7 7 12 24 12 38 0 14 -5 31 -12 38 -7 7 -24 12 -38 12
-14 0 -31 -5 -38 -12z"/>
<path d="M6242 6148 c-7 -7 -12 -24 -12 -38 0 -14 5 -31 12 -38 7 -7 24 -12
38 -12 14 0 31 5 38 12 7 7 12 24 12 38 0 14 -5 31 -12 38 -7 7 -24 12 -38 12
-14 0 -31 -5 -38 -12z"/>
<path d="M6352 6148 c-7 -7 -12 -24 -12 -38 0 -14 5 -31 12 -38 7 -7 24 -12
38 -12 14 0 31 5 38 12 7 7 12 24 12 38 0 14 -5 31 -12 38 -7 7 -24 12 -38 12
-14 0 -31 -5 -38 -12z"/>
<path d="M6462 6148 c-7 -7 -12 -24 -12 -38 0 -14 5 -31 12 -38 7 -7 24 -12
38 -12 14 0 31 5 38 12 7 7 12 24 12 38 0 14 -5 31 -12 38 -7 7 -24 12 -38 12
-14 0 -31 -5 -38 -12z"/>
<path d="M6572 6148 c-7 -7 -12 -24 -12 -38 0 -14 5 -31 12 -38 7 -7 24 -12
38 -12 14 0 31 5 38 12 7 7 12 24 12 38 0 14 -5 31 -12 38 -7 7 -24 12 -38 12
-14 0 -31 -5 -38 -12z"/>
<path d="M6682 6148 c-7 -7 -12 -24 -12 -38 0 -14 5 -31 12 -38 7 -7 24 -12
38 -12 14 0 31 5 38 12 7 7 12 24 12 38 0 14 -5 31 -12 38 -7 7 -24 12 -38 12
-14 0 -31 -5 -38 -12z"/>
<path d="M4922 6038 c-7 -7 -12 -24 -12 -38 0 -14 5 -31 12 -38 7 -7 24 -12
38 -12 14 0 31 5 38 12 7 7 12 24 12 38 0 14 -5 31 -12 38 -7 7 -24 12 -38 12
-14 0 -31 -5 -38 -12z"/>
<path d="M5142 6038 c-7 -7 -12 -24 -12 -38 0 -14 5 -31 12 -38 7 -7 24 -12
38 -12 14 0 31 5 38 12 7 7 12 24 12 38 0 14 -5 31 -12 38 -7 7 -24 12 -38 12
-14 0 -31 -5 -38 -12z"/>
<path d="M5252 6038 c-7 -7 -12 -24 -12 -38 0 -14 5 -31 12 -38 7 -7 24 -12
38 -12 14 0 31 5 38 12 7 7 12 24 12 38 0 14 -5 31 -12 38 -7 7 -24 12 -38 12
-14 0 -31 -5 -38 -12z"/>
<path d="M5362 6038 c-7 -7 -12 -24 -12 -38 0 -14 5 -31 12 -38 7 -7 24 -12
38 -12 14 0 31 5 38 12 7 7 12 24 12 38 0 14 -5 31 -12 38 -7 7 -24 12 -38 12
-14 0 -31 -5 -38 -12z"/>
<path d="M5472 6038 c-7 -7 -12 -24 -12 -38 0 -14 5 -31 12 -38 7 -7 24 -12
38 -12 14 0 31 5 38 12 7 7 12 24 12 38 0 14 -5 31 -12 38 -7 7 -24 12 -38 12
-14 0 -31 -5 -38 -12z"/>
<path d="M5582 6038 c-7 -7 -12 -24 -12 -38 0 -14 5 -31 12 -38 7 -7 24 -12
38 -12 14 0 31 5 38 12 7 7 12 24 12 38 0 14 -5 31 -12 38 -7 7 -24 12 -38 12
-14 0 -31 -5 -38 -12z"/>
<path d="M5692 6038 c-7 -7 -12 -24 -12 -38 0 -14 5 -31 12 -38 7 -7 24 -12
38 -12 14 0 31 5 38 12 7 7 12 24 12 38 0 14 -5 31 -12 38 -7 7 -24 12 -38 12
-14 0 -31 -5 -38 -12z"/>
<path d="M5802 6038 c-7 -7 -12 -24 -12 -38 0 -14 5 -31 12 -38 7 -7 24 -12
38 -12 14 0 31 5 38 12 7 7 12 24 12 38 0 14 -5 31 -12 38 -7 7 -24 12 -38 12
-14 0 -31 -5 -38 -12z"/>
<path d="M5912 6038 c-7 -7 -12 -24 -12 -38 0 -14 5 -31 12 -38 7 -7 24 -12
38 -12 14 0 31 5 38 12 7 7 12 24 12 38 0 14 -5 31 -12 38 -7 7 -24 12 -38 12
-14 0 -31 -5 -38 -12z"/>
<path d="M6022 6038 c-7 -7 -12 -24 -12 -38 0 -14 5 -31 12 -38 7 -7 24 -12
38 -12 14 0 31 5 38 12 7 7 12 24 12 38 0 14 -5 31 -12 38 -7 7 -24 12 -38 12
-14 0 -31 -5 -38 -12z"/>
<path d="M6132 6038 c-7 -7 -12 -24 -12 -38 0 -14 5 -31 12 -38 7 -7 24 -12
38 -12 14 0 31 5 38 12 7 7 12 24 12 38 0 14 -5 31 -12 38 -7 7 -24 12 -38 12
-14 0 -31 -5 -38 -12z"/>
<path d="M6242 6038 c-7 -7 -12 -24 -12 -38 0 -14 5 -31 12 -38 7 -7 24 -12
38 -12 14 0 31 5 38 12 7 7 12 24 12 38 0 14 -5 31 -12 38 -7 7 -24 12 -38 12
-14 0 -31 -5 -38 -12z"/>
<path d="M4812 5928 c-7 -7 -12 -24 -12 -38 0 -14 5 -31 12 -38 7 -7 24 -12
38 -12 14 0 31 5 38 12 7 7 12 24 12 38 0 14 -5 31 -12 38 -7 7 -24 12 -38 12
-14 0 -31 -5 -38 -12z"/>
<path d="M4922 5928 c-7 -7 -12 -24 -12 -38 0 -14 5 -31 12 -38 7 -7 24 -12
38 -12 14 0 31 5 38 12 7 7 12 24 12 38 0 14 -5 31 -12 38 -7 7 -24 12 -38 12
-14 0 -31 -5 -38 -12z"/>
<path d="M5032 5928 c-7 -7 -12 -24 -12 -38 0 -14 5 -31 12 -38 7 -7 24 -12
38 -12 14 0 31 5 38 12 7 7 12 24 12 38 0 14 -5 31 -12 38 -7 7 -24 12 -38 12
-14 0 -31 -5 -38 -12z"/>
<path d="M5142 5928 c-7 -7 -12 -24 -12 -38 0 -14 5 -31 12 -38 7 -7 24 -12
38 -12 14 0 31 5 38 12 7 7 12 24 12 38 0 14 -5 31 -12 38 -7 7 -24 12 -38 12
-14 0 -31 -5 -38 -12z"/>
<path d="M5252 5928 c-7 -7 -12 -24 -12 -38 0 -14 5 -31 12 -38 7 -7 24 -12
38 -12 14 0 31 5 38 12 7 7 12 24 12 38 0 14 -5 31 -12 38 -7 7 -24 12 -38 12
-14 0 -31 -5 -38 -12z"/>
<path d="M5362 5928 c-7 -7 -12 -24 -12 -38 0 -14 5 -31 12 -38 7 -7 24 -12
38 -12 14 0 31 5 38 12 7 7 12 24 12 38 0 14 -5 31 -12 38 -7 7 -24 12 -38 12
-14 0 -31 -5 -38 -12z"/>
<path d="M5472 5928 c-7 -7 -12 -24 -12 -38 0 -14 5 -31 12 -38 7 -7 24 -12
38 -12 14 0 31 5 38 12 7 7 12 24 12 38 0 14 -5 31 -12 38 -7 7 -24 12 -38 12
-14 0 -31 -5 -38 -12z"/>
<path d="M5582 5928 c-7 -7 -12 -24 -12 -38 0 -14 5 -31 12 -38 7 -7 24 -12
38 -12 14 0 31 5 38 12 7 7 12 24 12 38 0 14 -5 31 -12 38 -7 7 -24 12 -38 12
-14 0 -31 -5 -38 -12z"/>
<path d="M5692 5928 c-7 -7 -12 -24 -12 -38 0 -14 5 -31 12 -38 7 -7 24 -12
38 -12 14 0 31 5 38 12 7 7 12 24 12 38 0 14 -5 31 -12 38 -7 7 -24 12 -38 12
-14 0 -31 -5 -38 -12z"/>
<path d="M5802 5928 c-7 -7 -12 -24 -12 -38 0 -14 5 -31 12 -38 7 -7 24 -12
38 -12 14 0 31 5 38 12 7 7 12 24 12 38 0 14 -5 31 -12 38 -7 7 -24 12 -38 12
-14 0 -31 -5 -38 -12z"/>
<path d="M5912 5928 c-7 -7 -12 -24 -12 -38 0 -14 5 -31 12 -38 7 -7 24 -12
38 -12 14 0 31 5 38 12 7 7 12 24 12 38 0 14 -5 31 -12 38 -7 7 -24 12 -38 12
-14 0 -31 -5 -38 -12z"/>
<path d="M6022 5928 c-7 -7 -12 -24 -12 -38 0 -14 5 -31 12 -38 7 -7 24 -12
38 -12 14 0 31 5 38 12 7 7 12 24 12 38 0 14 -5 31 -12 38 -7 7 -24 12 -38 12
-14 0 -31 -5 -38 -12z"/>
<path d="M6132 5928 c-7 -7 -12 -24 -12 -38 0 -14 5 -31 12 -38 7 -7 24 -12
38 -12 14 0 31 5 38 12 7 7 12 24 12 38 0 14 -5 31 -12 38 -7 7 -24 12 -38 12
-14 0 -31 -5 -38 -12z"/>
<path d="M4812 5818 c-7 -7 -12 -24 -12 -38 0 -14 5 -31 12 -38 7 -7 24 -12
38 -12 14 0 31 5 38 12 7 7 12 24 12 38 0 14 -5 31 -12 38 -7 7 -24 12 -38 12
-14 0 -31 -5 -38 -12z"/>
<path d="M4922 5818 c-7 -7 -12 -24 -12 -38 0 -14 5 -31 12 -38 7 -7 24 -12
38 -12 14 0 31 5 38 12 7 7 12 24 12 38 0 14 -5 31 -12 38 -7 7 -24 12 -38 12
-14 0 -31 -5 -38 -12z"/>
<path d="M5142 5818 c-7 -7 -12 -24 -12 -38 0 -14 5 -31 12 -38 7 -7 24 -12
38 -12 14 0 31 5 38 12 7 7 12 24 12 38 0 14 -5 31 -12 38 -7 7 -24 12 -38 12
-14 0 -31 -5 -38 -12z"/>
<path d="M5692 5818 c-7 -7 -12 -24 -12 -38 0 -14 5 -31 12 -38 7 -7 24 -12
38 -12 14 0 31 5 38 12 7 7 12 24 12 38 0 14 -5 31 -12 38 -7 7 -24 12 -38 12
-14 0 -31 -5 -38 -12z"/>
<path d="M5802 5818 c-7 -7 -12 -24 -12 -38 0 -14 5 -31 12 -38 7 -7 24 -12
38 -12 14 0 31 5 38 12 7 7 12 24 12 38 0 14 -5 31 -12 38 -7 7 -24 12 -38 12
-14 0 -31 -5 -38 -12z"/>
<path d="M5912 5818 c-7 -7 -12 -24 -12 -38 0 -14 5 -31 12 -38 7 -7 24 -12
38 -12 14 0 31 5 38 12 7 7 12 24 12 38 0 14 -5 31 -12 38 -7 7 -24 12 -38 12
-14 0 -31 -5 -38 -12z"/>
<path d="M6022 5818 c-7 -7 -12 -24 -12 -38 0 -14 5 -31 12 -38 7 -7 24 -12
38 -12 14 0 31 5 38 12 7 7 12 24 12 38 0 14 -5 31 -12 38 -7 7 -24 12 -38 12
-14 0 -31 -5 -38 -12z"/>
<path d="M4592 5708 c-7 -7 -12 -24 -12 -38 0 -14 5 -31 12 -38 7 -7 24 -12
38 -12 14 0 31 5 38 12 7 7 12 24 12 38 0 14 -5 31 -12 38 -7 7 -24 12 -38 12
-14 0 -31 -5 -38 -12z"/>
<path d="M4812 5708 c-7 -7 -12 -24 -12 -38 0 -14 5 -31 12 -38 7 -7 24 -12
38 -12 14 0 31 5 38 12 7 7 12 24 12 38 0 14 -5 31 -12 38 -7 7 -24 12 -38 12
-14 0 -31 -5 -38 -12z"/>
<path d="M4922 5708 c-7 -7 -12 -24 -12 -38 0 -14 5 -31 12 -38 7 -7 24 -12
38 -12 14 0 31 5 38 12 7 7 12 24 12 38 0 14 -5 31 -12 38 -7 7 -24 12 -38 12
-14 0 -31 -5 -38 -12z"/>
<path d="M5802 5708 c-7 -7 -12 -24 -12 -38 0 -14 5 -31 12 -38 7 -7 24 -12
38 -12 14 0 31 5 38 12 7 7 12 24 12 38 0 14 -5 31 -12 38 -7 7 -24 12 -38 12
-14 0 -31 -5 -38 -12z"/>
<path d="M5912 5708 c-7 -7 -12 -24 -12 -38 0 -14 5 -31 12 -38 7 -7 24 -12
38 -12 14 0 31 5 38 12 7 7 12 24 12 38 0 14 -5 31 -12 38 -7 7 -24 12 -38 12
-14 0 -31 -5 -38 -12z"/>
<path d="M6022 5708 c-7 -7 -12 -24 -12 -38 0 -14 5 -31 12 -38 7 -7 24 -12
38 -12 14 0 31 5 38 12 7 7 12 24 12 38 0 14 -5 31 -12 38 -7 7 -24 12 -38 12
-14 0 -31 -5 -38 -12z"/>
<path d="M4922 5598 c-7 -7 -12 -24 -12 -38 0 -14 5 -31 12 -38 7 -7 24 -12
38 -12 14 0 31 5 38 12 7 7 12 24 12 38 0 14 -5 31 -12 38 -7 7 -24 12 -38 12
-14 0 -31 -5 -38 -12z"/>
<path d="M5032 5598 c-7 -7 -12 -24 -12 -38 0 -14 5 -31 12 -38 7 -7 24 -12
38 -12 14 0 31 5 38 12 7 7 12 24 12 38 0 14 -5 31 -12 38 -7 7 -24 12 -38 12
-14 0 -31 -5 -38 -12z"/>
<path d="M6022 5598 c-7 -7 -12 -24 -12 -38 0 -14 5 -31 12 -38 7 -7 24 -12
38 -12 14 0 31 5 38 12 7 7 12 24 12 38 0 14 -5 31 -12 38 -7 7 -24 12 -38 12
-14 0 -31 -5 -38 -12z"/>
<path d="M4812 5488 c-7 -7 -12 -24 -12 -38 0 -14 5 -31 12 -38 7 -7 24 -12
38 -12 14 0 31 5 38 12 7 7 12 24 12 38 0 14 -5 31 -12 38 -7 7 -24 12 -38 12
-14 0 -31 -5 -38 -12z"/>
<path d="M4922 5488 c-7 -7 -12 -24 -12 -38 0 -14 5 -31 12 -38 7 -7 24 -12
38 -12 14 0 31 5 38 12 7 7 12 24 12 38 0 14 -5 31 -12 38 -7 7 -24 12 -38 12
-14 0 -31 -5 -38 -12z"/>
<path d="M5032 5488 c-7 -7 -12 -24 -12 -38 0 -14 5 -31 12 -38 7 -7 24 -12
38 -12 14 0 31 5 38 12 7 7 12 24 12 38 0 14 -5 31 -12 38 -7 7 -24 12 -38 12
-14 0 -31 -5 -38 -12z"/>
<path d="M5142 5488 c-7 -7 -12 -24 -12 -38 0 -14 5 -31 12 -38 7 -7 24 -12
38 -12 14 0 31 5 38 12 7 7 12 24 12 38 0 14 -5 31 -12 38 -7 7 -24 12 -38 12
-14 0 -31 -5 -38 -12z"/>
<path d="M5252 5488 c-7 -7 -12 -24 -12 -38 0 -14 5 -31 12 -38 7 -7 24 -12
38 -12 14 0 31 5 38 12 7 7 12 24 12 38 0 14 -5 31 -12 38 -7 7 -24 12 -38 12
-14 0 -31 -5 -38 -12z"/>
<path d="M4812 5378 c-7 -7 -12 -24 -12 -38 0 -14 5 -31 12 -38 7 -7 24 -12
38 -12 14 0 31 5 38 12 7 7 12 24 12 38 0 14 -5 31 -12 38 -7 7 -24 12 -38 12
-14 0 -31 -5 -38 -12z"/>
<path d="M4922 5378 c-7 -7 -12 -24 -12 -38 0 -14 5 -31 12 -38 7 -7 24 -12
38 -12 14 0 31 5 38 12 7 7 12 24 12 38 0 14 -5 31 -12 38 -7 7 -24 12 -38 12
-14 0 -31 -5 -38 -12z"/>
<path d="M5142 5268 c-7 -7 -12 -24 -12 -38 0 -14 5 -31 12 -38 7 -7 24 -12
38 -12 14 0 31 5 38 12 7 7 12 24 12 38 0 14 -5 31 -12 38 -7 7 -24 12 -38 12
-14 0 -31 -5 -38 -12z"/>
<path d="M5252 5268 c-7 -7 -12 -24 -12 -38 0 -14 5 -31 12 -38 7 -7 24 -12
38 -12 14 0 31 5 38 12 7 7 12 24 12 38 0 14 -5 31 -12 38 -7 7 -24 12 -38 12
-14 0 -31 -5 -38 -12z"/>
<path d="M5041 5164 c-23 -17 -28 -63 -9 -82 7 -7 24 -12 38 -12 33 0 50 17
50 51 0 43 -44 67 -79 43z"/>
<path d="M4922 5158 c-7 -7 -12 -24 -12 -38 0 -14 5 -31 12 -38 7 -7 24 -12
38 -12 14 0 31 5 38 12 7 7 12 24 12 38 0 14 -5 31 -12 38 -7 7 -24 12 -38 12
-14 0 -31 -5 -38 -12z"/>
<path d="M5261 5054 c-23 -17 -28 -63 -9 -82 7 -7 24 -12 38 -12 33 0 50 17
50 51 0 43 -44 67 -79 43z"/>
<path d="M4922 5048 c-7 -7 -12 -24 -12 -38 0 -14 5 -31 12 -38 7 -7 24 -12
38 -12 14 0 31 5 38 12 7 7 12 24 12 38 0 14 -5 31 -12 38 -7 7 -24 12 -38 12
-14 0 -31 -5 -38 -12z"/>
<path d="M5032 5048 c-7 -7 -12 -24 -12 -38 0 -14 5 -31 12 -38 7 -7 24 -12
38 -12 14 0 31 5 38 12 7 7 12 24 12 38 0 14 -5 31 -12 38 -7 7 -24 12 -38 12
-14 0 -31 -5 -38 -12z"/>
<path d="M5142 5048 c-7 -7 -12 -24 -12 -38 0 -14 5 -31 12 -38 7 -7 24 -12
38 -12 14 0 31 5 38 12 7 7 12 24 12 38 0 14 -5 31 -12 38 -7 7 -24 12 -38 12
-14 0 -31 -5 -38 -12z"/>
<path d="M4812 4938 c-7 -7 -12 -24 -12 -38 0 -14 5 -31 12 -38 7 -7 24 -12
38 -12 14 0 31 5 38 12 7 7 12 24 12 38 0 14 -5 31 -12 38 -7 7 -24 12 -38 12
-14 0 -31 -5 -38 -12z"/>
<path d="M4922 4938 c-7 -7 -12 -24 -12 -38 0 -14 5 -31 12 -38 7 -7 24 -12
38 -12 14 0 31 5 38 12 7 7 12 24 12 38 0 14 -5 31 -12 38 -7 7 -24 12 -38 12
-14 0 -31 -5 -38 -12z"/>
<path d="M5032 4938 c-7 -7 -12 -24 -12 -38 0 -14 5 -31 12 -38 7 -7 24 -12
38 -12 14 0 31 5 38 12 7 7 12 24 12 38 0 14 -5 31 -12 38 -7 7 -24 12 -38 12
-14 0 -31 -5 -38 -12z"/>
<path d="M5142 4938 c-7 -7 -12 -24 -12 -38 0 -14 5 -31 12 -38 7 -7 24 -12
38 -12 14 0 31 5 38 12 7 7 12 24 12 38 0 14 -5 31 -12 38 -7 7 -24 12 -38 12
-14 0 -31 -5 -38 -12z"/>
<path d="M5252 4938 c-7 -7 -12 -24 -12 -38 0 -14 5 -31 12 -38 7 -7 24 -12
38 -12 14 0 31 5 38 12 7 7 12 24 12 38 0 14 -5 31 -12 38 -7 7 -24 12 -38 12
-14 0 -31 -5 -38 -12z"/>
<path d="M4812 4828 c-7 -7 -12 -24 -12 -38 0 -14 5 -31 12 -38 7 -7 24 -12
38 -12 14 0 31 5 38 12 7 7 12 24 12 38 0 14 -5 31 -12 38 -7 7 -24 12 -38 12
-14 0 -31 -5 -38 -12z"/>
<path d="M4922 4828 c-7 -7 -12 -24 -12 -38 0 -14 5 -31 12 -38 7 -7 24 -12
38 -12 14 0 31 5 38 12 7 7 12 24 12 38 0 14 -5 31 -12 38 -7 7 -24 12 -38 12
-14 0 -31 -5 -38 -12z"/>
<path d="M5032 4828 c-7 -7 -12 -24 -12 -38 0 -14 5 -31 12 -38 7 -7 24 -12
38 -12 14 0 31 5 38 12 7 7 12 24 12 38 0 14 -5 31 -12 38 -7 7 -24 12 -38 12
-14 0 -31 -5 -38 -12z"/>
<path d="M5142 4828 c-7 -7 -12 -24 -12 -38 0 -14 5 -31 12 -38 7 -7 24 -12
38 -12 14 0 31 5 38 12 7 7 12 24 12 38 0 14 -5 31 -12 38 -7 7 -24 12 -38 12
-14 0 -31 -5 -38 -12z"/>
<path d="M5252 4828 c-7 -7 -12 -24 -12 -38 0 -14 5 -31 12 -38 7 -7 24 -12
38 -12 14 0 31 5 38 12 7 7 12 24 12 38 0 14 -5 31 -12 38 -7 7 -24 12 -38 12
-14 0 -31 -5 -38 -12z"/>
<path d="M5362 4828 c-7 -7 -12 -24 -12 -38 0 -14 5 -31 12 -38 7 -7 24 -12
38 -12 14 0 31 5 38 12 7 7 12 24 12 38 0 14 -5 31 -12 38 -7 7 -24 12 -38 12
-14 0 -31 -5 -38 -12z"/>
<path d="M4806 4709 c-24 -35 0 -79 43 -79 34 0 51 17 51 50 0 14 -5 31 -12
38 -19 19 -65 14 -82 -9z"/>
<path d="M4922 4718 c-7 -7 -12 -24 -12 -38 0 -14 5 -31 12 -38 7 -7 24 -12
38 -12 14 0 31 5 38 12 7 7 12 24 12 38 0 14 -5 31 -12 38 -7 7 -24 12 -38 12
-14 0 -31 -5 -38 -12z"/>
<path d="M5032 4718 c-7 -7 -12 -24 -12 -38 0 -14 5 -31 12 -38 7 -7 24 -12
38 -12 14 0 31 5 38 12 7 7 12 24 12 38 0 14 -5 31 -12 38 -7 7 -24 12 -38 12
-14 0 -31 -5 -38 -12z"/>
<path d="M5142 4718 c-7 -7 -12 -24 -12 -38 0 -14 5 -31 12 -38 7 -7 24 -12
38 -12 14 0 31 5 38 12 7 7 12 24 12 38 0 14 -5 31 -12 38 -7 7 -24 12 -38 12
-14 0 -31 -5 -38 -12z"/>
<path d="M5252 4718 c-7 -7 -12 -24 -12 -38 0 -14 5 -31 12 -38 7 -7 24 -12
38 -12 14 0 31 5 38 12 7 7 12 24 12 38 0 14 -5 31 -12 38 -7 7 -24 12 -38 12
-14 0 -31 -5 -38 -12z"/>
<path d="M5362 4718 c-7 -7 -12 -24 -12 -38 0 -14 5 -31 12 -38 7 -7 24 -12
38 -12 14 0 31 5 38 12 7 7 12 24 12 38 0 14 -5 31 -12 38 -7 7 -24 12 -38 12
-14 0 -31 -5 -38 -12z"/>
<path d="M5472 4718 c-7 -7 -12 -24 -12 -38 0 -14 5 -31 12 -38 7 -7 24 -12
38 -12 14 0 31 5 38 12 7 7 12 24 12 38 0 14 -5 31 -12 38 -7 7 -24 12 -38 12
-14 0 -31 -5 -38 -12z"/>
<path d="M4812 4608 c-7 -7 -12 -24 -12 -38 0 -14 5 -31 12 -38 7 -7 24 -12
38 -12 14 0 31 5 38 12 7 7 12 24 12 38 0 14 -5 31 -12 38 -7 7 -24 12 -38 12
-14 0 -31 -5 -38 -12z"/>
<path d="M4922 4608 c-7 -7 -12 -24 -12 -38 0 -14 5 -31 12 -38 7 -7 24 -12
38 -12 14 0 31 5 38 12 7 7 12 24 12 38 0 14 -5 31 -12 38 -7 7 -24 12 -38 12
-14 0 -31 -5 -38 -12z"/>
<path d="M5032 4608 c-7 -7 -12 -24 -12 -38 0 -14 5 -31 12 -38 7 -7 24 -12
38 -12 14 0 31 5 38 12 7 7 12 24 12 38 0 14 -5 31 -12 38 -7 7 -24 12 -38 12
-14 0 -31 -5 -38 -12z"/>
<path d="M5142 4608 c-7 -7 -12 -24 -12 -38 0 -14 5 -31 12 -38 7 -7 24 -12
38 -12 14 0 31 5 38 12 7 7 12 24 12 38 0 14 -5 31 -12 38 -7 7 -24 12 -38 12
-14 0 -31 -5 -38 -12z"/>
<path d="M5252 4608 c-7 -7 -12 -24 -12 -38 0 -14 5 -31 12 -38 7 -7 24 -12
38 -12 14 0 31 5 38 12 7 7 12 24 12 38 0 14 -5 31 -12 38 -7 7 -24 12 -38 12
-14 0 -31 -5 -38 -12z"/>
<path d="M5362 4608 c-7 -7 -12 -24 -12 -38 0 -14 5 -31 12 -38 7 -7 24 -12
38 -12 14 0 31 5 38 12 7 7 12 24 12 38 0 14 -5 31 -12 38 -7 7 -24 12 -38 12
-14 0 -31 -5 -38 -12z"/>
<path d="M5472 4608 c-7 -7 -12 -24 -12 -38 0 -14 5 -31 12 -38 7 -7 24 -12
38 -12 14 0 31 5 38 12 7 7 12 24 12 38 0 14 -5 31 -12 38 -7 7 -24 12 -38 12
-14 0 -31 -5 -38 -12z"/>
<path d="M4702 4498 c-7 -7 -12 -24 -12 -38 0 -14 5 -31 12 -38 7 -7 24 -12
38 -12 14 0 31 5 38 12 7 7 12 24 12 38 0 14 -5 31 -12 38 -7 7 -24 12 -38 12
-14 0 -31 -5 -38 -12z"/>
<path d="M4812 4498 c-7 -7 -12 -24 -12 -38 0 -14 5 -31 12 -38 7 -7 24 -12
38 -12 14 0 31 5 38 12 7 7 12 24 12 38 0 14 -5 31 -12 38 -7 7 -24 12 -38 12
-14 0 -31 -5 -38 -12z"/>
<path d="M4922 4498 c-7 -7 -12 -24 -12 -38 0 -14 5 -31 12 -38 7 -7 24 -12
38 -12 14 0 31 5 38 12 7 7 12 24 12 38 0 14 -5 31 -12 38 -7 7 -24 12 -38 12
-14 0 -31 -5 -38 -12z"/>
<path d="M5032 4498 c-7 -7 -12 -24 -12 -38 0 -14 5 -31 12 -38 7 -7 24 -12
38 -12 14 0 31 5 38 12 7 7 12 24 12 38 0 14 -5 31 -12 38 -7 7 -24 12 -38 12
-14 0 -31 -5 -38 -12z"/>
<path d="M5142 4498 c-7 -7 -12 -24 -12 -38 0 -14 5 -31 12 -38 7 -7 24 -12
38 -12 14 0 31 5 38 12 7 7 12 24 12 38 0 14 -5 31 -12 38 -7 7 -24 12 -38 12
-14 0 -31 -5 -38 -12z"/>
<path d="M5252 4498 c-7 -7 -12 -24 -12 -38 0 -14 5 -31 12 -38 7 -7 24 -12
38 -12 14 0 31 5 38 12 7 7 12 24 12 38 0 14 -5 31 -12 38 -7 7 -24 12 -38 12
-14 0 -31 -5 -38 -12z"/>
<path d="M5362 4498 c-7 -7 -12 -24 -12 -38 0 -14 5 -31 12 -38 7 -7 24 -12
38 -12 14 0 31 5 38 12 7 7 12 24 12 38 0 14 -5 31 -12 38 -7 7 -24 12 -38 12
-14 0 -31 -5 -38 -12z"/>
<path d="M5472 4498 c-19 -19 -14 -66 7 -80 20 -12 20 -12 0 -26 -21 -15 -26
-61 -7 -80 17 -17 63 -15 77 2 19 22 9 69 -16 81 l-21 11 21 9 c25 11 35 59
16 81 -14 17 -60 19 -77 2z"/>
<path d="M4812 4388 c-7 -7 -12 -24 -12 -38 0 -14 5 -31 12 -38 7 -7 24 -12
38 -12 14 0 31 5 38 12 7 7 12 24 12 38 0 14 -5 31 -12 38 -7 7 -24 12 -38 12
-14 0 -31 -5 -38 -12z"/>
<path d="M4922 4388 c-7 -7 -12 -24 -12 -38 0 -14 5 -31 12 -38 7 -7 24 -12
38 -12 14 0 31 5 38 12 7 7 12 24 12 38 0 14 -5 31 -12 38 -7 7 -24 12 -38 12
-14 0 -31 -5 -38 -12z"/>
<path d="M5032 4388 c-19 -19 -14 -66 7 -80 20 -12 20 -12 0 -26 -21 -15 -26
-61 -7 -80 17 -17 63 -15 77 2 19 22 9 69 -16 81 l-21 11 21 9 c25 11 35 59
16 81 -14 17 -60 19 -77 2z"/>
<path d="M5142 4388 c-7 -7 -12 -24 -12 -38 0 -14 5 -31 12 -38 7 -7 24 -12
38 -12 14 0 31 5 38 12 7 7 12 24 12 38 0 14 -5 31 -12 38 -7 7 -24 12 -38 12
-14 0 -31 -5 -38 -12z"/>
<path d="M5252 4388 c-7 -7 -12 -24 -12 -38 0 -14 5 -31 12 -38 7 -7 24 -12
38 -12 14 0 31 5 38 12 7 7 12 24 12 38 0 14 -5 31 -12 38 -7 7 -24 12 -38 12
-14 0 -31 -5 -38 -12z"/>
<path d="M5362 4388 c-7 -7 -12 -24 -12 -38 0 -14 5 -31 12 -38 7 -7 24 -12
38 -12 14 0 31 5 38 12 7 7 12 24 12 38 0 14 -5 31 -12 38 -7 7 -24 12 -38 12
-14 0 -31 -5 -38 -12z"/>
<path d="M4812 4278 c-7 -7 -12 -24 -12 -38 0 -14 5 -31 12 -38 7 -7 24 -12
38 -12 14 0 31 5 38 12 7 7 12 24 12 38 0 14 -5 31 -12 38 -7 7 -24 12 -38 12
-14 0 -31 -5 -38 -12z"/>
<path d="M4922 4278 c-7 -7 -12 -24 -12 -38 0 -14 5 -31 12 -38 7 -7 24 -12
38 -12 14 0 31 5 38 12 7 7 12 24 12 38 0 14 -5 31 -12 38 -7 7 -24 12 -38 12
-14 0 -31 -5 -38 -12z"/>
<path d="M5142 4278 c-7 -7 -12 -24 -12 -38 0 -14 5 -31 12 -38 7 -7 24 -12
38 -12 14 0 31 5 38 12 7 7 12 24 12 38 0 14 -5 31 -12 38 -7 7 -24 12 -38 12
-14 0 -31 -5 -38 -12z"/>
<path d="M5252 4278 c-7 -7 -12 -24 -12 -38 0 -14 5 -31 12 -38 7 -7 24 -12
38 -12 14 0 31 5 38 12 7 7 12 24 12 38 0 14 -5 31 -12 38 -7 7 -24 12 -38 12
-14 0 -31 -5 -38 -12z"/>
<path d="M5362 4278 c-7 -7 -12 -24 -12 -38 0 -14 5 -31 12 -38 7 -7 24 -12
38 -12 14 0 31 5 38 12 7 7 12 24 12 38 0 14 -5 31 -12 38 -7 7 -24 12 -38 12
-14 0 -31 -5 -38 -12z"/>
<path d="M5472 4278 c-7 -7 -12 -24 -12 -38 0 -14 5 -31 12 -38 7 -7 24 -12
38 -12 14 0 31 5 38 12 7 7 12 24 12 38 0 14 -5 31 -12 38 -7 7 -24 12 -38 12
-14 0 -31 -5 -38 -12z"/>
<path d="M4812 4168 c-7 -7 -12 -24 -12 -38 0 -14 5 -31 12 -38 7 -7 24 -12
38 -12 14 0 31 5 38 12 7 7 12 24 12 38 0 14 -5 31 -12 38 -7 7 -24 12 -38 12
-14 0 -31 -5 -38 -12z"/>
<path d="M4922 4168 c-7 -7 -12 -24 -12 -38 0 -14 5 -31 12 -38 7 -7 24 -12
38 -12 14 0 31 5 38 12 7 7 12 24 12 38 0 14 -5 31 -12 38 -7 7 -24 12 -38 12
-14 0 -31 -5 -38 -12z"/>
<path d="M5032 4168 c-7 -7 -12 -24 -12 -38 0 -14 5 -31 12 -38 7 -7 24 -12
38 -12 14 0 31 5 38 12 7 7 12 24 12 38 0 14 -5 31 -12 38 -7 7 -24 12 -38 12
-14 0 -31 -5 -38 -12z"/>
<path d="M5142 4168 c-7 -7 -12 -24 -12 -38 0 -14 5 -31 12 -38 7 -7 24 -12
38 -12 14 0 31 5 38 12 7 7 12 24 12 38 0 14 -5 31 -12 38 -7 7 -24 12 -38 12
-14 0 -31 -5 -38 -12z"/>
<path d="M5252 4168 c-7 -7 -12 -24 -12 -38 0 -14 5 -31 12 -38 7 -7 24 -12
38 -12 14 0 31 5 38 12 7 7 12 24 12 38 0 14 -5 31 -12 38 -7 7 -24 12 -38 12
-14 0 -31 -5 -38 -12z"/>
<path d="M5362 4168 c-7 -7 -12 -24 -12 -38 0 -14 5 -31 12 -38 7 -7 24 -12
38 -12 14 0 31 5 38 12 7 7 12 24 12 38 0 14 -5 31 -12 38 -7 7 -24 12 -38 12
-14 0 -31 -5 -38 -12z"/>
<path d="M5472 4168 c-7 -7 -12 -24 -12 -38 0 -14 5 -31 12 -38 7 -7 24 -12
38 -12 14 0 31 5 38 12 7 7 12 24 12 38 0 14 -5 31 -12 38 -7 7 -24 12 -38 12
-14 0 -31 -5 -38 -12z"/>
<path d="M4806 4049 c-24 -35 0 -79 43 -79 34 0 51 17 51 50 0 14 -5 31 -12
38 -19 19 -65 14 -82 -9z"/>
<path d="M4922 4058 c-7 -7 -12 -24 -12 -38 0 -14 5 -31 12 -38 7 -7 24 -12
38 -12 14 0 31 5 38 12 7 7 12 24 12 38 0 14 -5 31 -12 38 -7 7 -24 12 -38 12
-14 0 -31 -5 -38 -12z"/>
<path d="M5032 4058 c-7 -7 -12 -24 -12 -38 0 -14 5 -31 12 -38 7 -7 24 -12
38 -12 14 0 31 5 38 12 7 7 12 24 12 38 0 14 -5 31 -12 38 -7 7 -24 12 -38 12
-14 0 -31 -5 -38 -12z"/>
<path d="M5142 4058 c-7 -7 -12 -24 -12 -38 0 -14 5 -31 12 -38 7 -7 24 -12
38 -12 14 0 31 5 38 12 7 7 12 24 12 38 0 14 -5 31 -12 38 -7 7 -24 12 -38 12
-14 0 -31 -5 -38 -12z"/>
<path d="M5252 4058 c-7 -7 -12 -24 -12 -38 0 -14 5 -31 12 -38 7 -7 24 -12
38 -12 14 0 31 5 38 12 7 7 12 24 12 38 0 14 -5 31 -12 38 -7 7 -24 12 -38 12
-14 0 -31 -5 -38 -12z"/>
<path d="M5362 4058 c-7 -7 -12 -24 -12 -38 0 -14 5 -31 12 -38 7 -7 24 -12
38 -12 14 0 31 5 38 12 7 7 12 24 12 38 0 14 -5 31 -12 38 -7 7 -24 12 -38 12
-14 0 -31 -5 -38 -12z"/>
<path d="M4702 3948 c-7 -7 -12 -24 -12 -38 0 -14 5 -31 12 -38 7 -7 24 -12
38 -12 14 0 31 5 38 12 7 7 12 24 12 38 0 14 -5 31 -12 38 -7 7 -24 12 -38 12
-14 0 -31 -5 -38 -12z"/>
<path d="M4812 3948 c-7 -7 -12 -24 -12 -38 0 -14 5 -31 12 -38 7 -7 24 -12
38 -12 14 0 31 5 38 12 7 7 12 24 12 38 0 14 -5 31 -12 38 -7 7 -24 12 -38 12
-14 0 -31 -5 -38 -12z"/>
<path d="M4922 3948 c-7 -7 -12 -24 -12 -38 0 -14 5 -31 12 -38 7 -7 24 -12
38 -12 14 0 31 5 38 12 7 7 12 24 12 38 0 14 -5 31 -12 38 -7 7 -24 12 -38 12
-14 0 -31 -5 -38 -12z"/>
<path d="M5032 3948 c-7 -7 -12 -24 -12 -38 0 -14 5 -31 12 -38 7 -7 24 -12
38 -12 14 0 31 5 38 12 7 7 12 24 12 38 0 14 -5 31 -12 38 -7 7 -24 12 -38 12
-14 0 -31 -5 -38 -12z"/>
<path d="M5142 3948 c-7 -7 -12 -24 -12 -38 0 -14 5 -31 12 -38 7 -7 24 -12
38 -12 14 0 31 5 38 12 7 7 12 24 12 38 0 14 -5 31 -12 38 -7 7 -24 12 -38 12
-14 0 -31 -5 -38 -12z"/>
<path d="M5252 3948 c-7 -7 -12 -24 -12 -38 0 -14 5 -31 12 -38 7 -7 24 -12
38 -12 14 0 31 5 38 12 7 7 12 24 12 38 0 14 -5 31 -12 38 -7 7 -24 12 -38 12
-14 0 -31 -5 -38 -12z"/>
<path d="M5362 3948 c-7 -7 -12 -24 -12 -38 0 -14 5 -31 12 -38 7 -7 24 -12
38 -12 14 0 31 5 38 12 7 7 12 24 12 38 0 14 -5 31 -12 38 -7 7 -24 12 -38 12
-14 0 -31 -5 -38 -12z"/>
<path d="M4702 3838 c-7 -7 -12 -24 -12 -38 0 -14 5 -31 12 -38 7 -7 24 -12
38 -12 14 0 31 5 38 12 7 7 12 24 12 38 0 14 -5 31 -12 38 -7 7 -24 12 -38 12
-14 0 -31 -5 -38 -12z"/>
<path d="M4812 3838 c-7 -7 -12 -24 -12 -38 0 -14 5 -31 12 -38 7 -7 24 -12
38 -12 14 0 31 5 38 12 7 7 12 24 12 38 0 14 -5 31 -12 38 -7 7 -24 12 -38 12
-14 0 -31 -5 -38 -12z"/>
<path d="M4922 3838 c-7 -7 -12 -24 -12 -38 0 -14 5 -31 12 -38 7 -7 24 -12
38 -12 14 0 31 5 38 12 7 7 12 24 12 38 0 14 -5 31 -12 38 -7 7 -24 12 -38 12
-14 0 -31 -5 -38 -12z"/>
<path d="M5032 3838 c-7 -7 -12 -24 -12 -38 0 -14 5 -31 12 -38 7 -7 24 -12
38 -12 14 0 31 5 38 12 7 7 12 24 12 38 0 14 -5 31 -12 38 -7 7 -24 12 -38 12
-14 0 -31 -5 -38 -12z"/>
<path d="M5142 3838 c-7 -7 -12 -24 -12 -38 0 -14 5 -31 12 -38 7 -7 24 -12
38 -12 14 0 31 5 38 12 7 7 12 24 12 38 0 14 -5 31 -12 38 -7 7 -24 12 -38 12
-14 0 -31 -5 -38 -12z"/>
<path d="M5252 3838 c-7 -7 -12 -24 -12 -38 0 -14 5 -31 12 -38 7 -7 24 -12
38 -12 14 0 31 5 38 12 7 7 12 24 12 38 0 14 -5 31 -12 38 -7 7 -24 12 -38 12
-14 0 -31 -5 -38 -12z"/>
<path d="M5362 3838 c-7 -7 -12 -24 -12 -38 0 -14 5 -31 12 -38 7 -7 24 -12
38 -12 14 0 31 5 38 12 7 7 12 24 12 38 0 14 -5 31 -12 38 -7 7 -24 12 -38 12
-14 0 -31 -5 -38 -12z"/>
<path d="M4592 3728 c-7 -7 -12 -24 -12 -38 0 -14 5 -31 12 -38 7 -7 24 -12
38 -12 14 0 31 5 38 12 7 7 12 24 12 38 0 14 -5 31 -12 38 -7 7 -24 12 -38 12
-14 0 -31 -5 -38 -12z"/>
<path d="M4702 3728 c-7 -7 -12 -24 -12 -38 0 -14 5 -31 12 -38 7 -7 24 -12
38 -12 14 0 31 5 38 12 7 7 12 24 12 38 0 14 -5 31 -12 38 -7 7 -24 12 -38 12
-14 0 -31 -5 -38 -12z"/>
<path d="M4812 3728 c-7 -7 -12 -24 -12 -38 0 -14 5 -31 12 -38 7 -7 24 -12
38 -12 14 0 31 5 38 12 7 7 12 24 12 38 0 14 -5 31 -12 38 -7 7 -24 12 -38 12
-14 0 -31 -5 -38 -12z"/>
<path d="M4922 3728 c-7 -7 -12 -24 -12 -38 0 -14 5 -31 12 -38 7 -7 24 -12
38 -12 14 0 31 5 38 12 7 7 12 24 12 38 0 14 -5 31 -12 38 -7 7 -24 12 -38 12
-14 0 -31 -5 -38 -12z"/>
<path d="M5032 3728 c-7 -7 -12 -24 -12 -38 0 -14 5 -31 12 -38 7 -7 24 -12
38 -12 14 0 31 5 38 12 7 7 12 24 12 38 0 14 -5 31 -12 38 -7 7 -24 12 -38 12
-14 0 -31 -5 -38 -12z"/>
<path d="M5142 3728 c-7 -7 -12 -24 -12 -38 0 -14 5 -31 12 -38 7 -7 24 -12
38 -12 14 0 31 5 38 12 7 7 12 24 12 38 0 14 -5 31 -12 38 -7 7 -24 12 -38 12
-14 0 -31 -5 -38 -12z"/>
<path d="M5362 3728 c-7 -7 -12 -24 -12 -38 0 -14 5 -31 12 -38 7 -7 24 -12
38 -12 14 0 31 5 38 12 7 7 12 24 12 38 0 14 -5 31 -12 38 -7 7 -24 12 -38 12
-14 0 -31 -5 -38 -12z"/>
<path d="M4152 3618 c-7 -7 -12 -24 -12 -38 0 -14 5 -31 12 -38 7 -7 24 -12
38 -12 14 0 31 5 38 12 7 7 12 24 12 38 0 14 -5 31 -12 38 -7 7 -24 12 -38 12
-14 0 -31 -5 -38 -12z"/>
<path d="M4592 3618 c-7 -7 -12 -24 -12 -38 0 -14 5 -31 12 -38 7 -7 24 -12
38 -12 14 0 31 5 38 12 7 7 12 24 12 38 0 14 -5 31 -12 38 -7 7 -24 12 -38 12
-14 0 -31 -5 -38 -12z"/>
<path d="M4702 3618 c-7 -7 -12 -24 -12 -38 0 -14 5 -31 12 -38 7 -7 24 -12
38 -12 14 0 31 5 38 12 7 7 12 24 12 38 0 14 -5 31 -12 38 -7 7 -24 12 -38 12
-14 0 -31 -5 -38 -12z"/>
<path d="M4812 3618 c-7 -7 -12 -24 -12 -38 0 -14 5 -31 12 -38 7 -7 24 -12
38 -12 14 0 31 5 38 12 7 7 12 24 12 38 0 14 -5 31 -12 38 -7 7 -24 12 -38 12
-14 0 -31 -5 -38 -12z"/>
<path d="M4922 3618 c-7 -7 -12 -24 -12 -38 0 -14 5 -31 12 -38 7 -7 24 -12
38 -12 14 0 31 5 38 12 7 7 12 24 12 38 0 14 -5 31 -12 38 -7 7 -24 12 -38 12
-14 0 -31 -5 -38 -12z"/>
<path d="M5032 3618 c-7 -7 -12 -24 -12 -38 0 -14 5 -31 12 -38 7 -7 24 -12
38 -12 14 0 31 5 38 12 7 7 12 24 12 38 0 14 -5 31 -12 38 -7 7 -24 12 -38 12
-14 0 -31 -5 -38 -12z"/>
<path d="M5142 3618 c-7 -7 -12 -24 -12 -38 0 -14 5 -31 12 -38 7 -7 24 -12
38 -12 14 0 31 5 38 12 7 7 12 24 12 38 0 14 -5 31 -12 38 -7 7 -24 12 -38 12
-14 0 -31 -5 -38 -12z"/>
<path d="M4152 3508 c-7 -7 -12 -24 -12 -38 0 -14 5 -31 12 -38 7 -7 24 -12
38 -12 14 0 31 5 38 12 7 7 12 24 12 38 0 14 -5 31 -12 38 -7 7 -24 12 -38 12
-14 0 -31 -5 -38 -12z"/>
<path d="M4372 3508 c-7 -7 -12 -24 -12 -38 0 -14 5 -31 12 -38 7 -7 24 -12
38 -12 14 0 31 5 38 12 7 7 12 24 12 38 0 14 -5 31 -12 38 -7 7 -24 12 -38 12
-14 0 -31 -5 -38 -12z"/>
<path d="M4482 3508 c-7 -7 -12 -24 -12 -38 0 -14 5 -31 12 -38 7 -7 24 -12
38 -12 14 0 31 5 38 12 7 7 12 24 12 38 0 14 -5 31 -12 38 -7 7 -24 12 -38 12
-14 0 -31 -5 -38 -12z"/>
<path d="M4592 3508 c-7 -7 -12 -24 -12 -38 0 -14 5 -31 12 -38 7 -7 24 -12
38 -12 14 0 31 5 38 12 7 7 12 24 12 38 0 14 -5 31 -12 38 -7 7 -24 12 -38 12
-14 0 -31 -5 -38 -12z"/>
<path d="M4702 3508 c-7 -7 -12 -24 -12 -38 0 -14 5 -31 12 -38 7 -7 24 -12
38 -12 14 0 31 5 38 12 7 7 12 24 12 38 0 14 -5 31 -12 38 -7 7 -24 12 -38 12
-14 0 -31 -5 -38 -12z"/>
<path d="M4812 3508 c-7 -7 -12 -24 -12 -38 0 -14 5 -31 12 -38 7 -7 24 -12
38 -12 14 0 31 5 38 12 7 7 12 24 12 38 0 14 -5 31 -12 38 -7 7 -24 12 -38 12
-14 0 -31 -5 -38 -12z"/>
<path d="M4922 3508 c-7 -7 -12 -24 -12 -38 0 -14 5 -31 12 -38 7 -7 24 -12
38 -12 14 0 31 5 38 12 7 7 12 24 12 38 0 14 -5 31 -12 38 -7 7 -24 12 -38 12
-14 0 -31 -5 -38 -12z"/>
<path d="M5032 3508 c-7 -7 -12 -24 -12 -38 0 -14 5 -31 12 -38 7 -7 24 -12
38 -12 14 0 31 5 38 12 7 7 12 24 12 38 0 14 -5 31 -12 38 -7 7 -24 12 -38 12
-14 0 -31 -5 -38 -12z"/>
<path d="M5142 3508 c-7 -7 -12 -24 -12 -38 0 -14 5 -31 12 -38 7 -7 24 -12
38 -12 14 0 31 5 38 12 7 7 12 24 12 38 0 14 -5 31 -12 38 -7 7 -24 12 -38 12
-14 0 -31 -5 -38 -12z"/>
<path d="M4372 3398 c-7 -7 -12 -24 -12 -38 0 -14 5 -31 12 -38 7 -7 24 -12
38 -12 14 0 31 5 38 12 7 7 12 24 12 38 0 14 -5 31 -12 38 -7 7 -24 12 -38 12
-14 0 -31 -5 -38 -12z"/>
<path d="M4482 3398 c-7 -7 -12 -24 -12 -38 0 -14 5 -31 12 -38 7 -7 24 -12
38 -12 14 0 31 5 38 12 7 7 12 24 12 38 0 14 -5 31 -12 38 -7 7 -24 12 -38 12
-14 0 -31 -5 -38 -12z"/>
<path d="M4592 3398 c-7 -7 -12 -24 -12 -38 0 -14 5 -31 12 -38 7 -7 24 -12
38 -12 14 0 31 5 38 12 7 7 12 24 12 38 0 14 -5 31 -12 38 -7 7 -24 12 -38 12
-14 0 -31 -5 -38 -12z"/>
<path d="M4702 3398 c-7 -7 -12 -24 -12 -38 0 -14 5 -31 12 -38 7 -7 24 -12
38 -12 14 0 31 5 38 12 7 7 12 24 12 38 0 14 -5 31 -12 38 -7 7 -24 12 -38 12
-14 0 -31 -5 -38 -12z"/>
<path d="M4812 3398 c-7 -7 -12 -24 -12 -38 0 -14 5 -31 12 -38 7 -7 24 -12
38 -12 14 0 31 5 38 12 7 7 12 24 12 38 0 14 -5 31 -12 38 -7 7 -24 12 -38 12
-14 0 -31 -5 -38 -12z"/>
<path d="M4922 3398 c-7 -7 -12 -24 -12 -38 0 -14 5 -31 12 -38 7 -7 24 -12
38 -12 14 0 31 5 38 12 7 7 12 24 12 38 0 14 -5 31 -12 38 -7 7 -24 12 -38 12
-14 0 -31 -5 -38 -12z"/>
<path d="M5032 3398 c-7 -7 -12 -24 -12 -38 0 -14 5 -31 12 -38 7 -7 24 -12
38 -12 14 0 31 5 38 12 7 7 12 24 12 38 0 14 -5 31 -12 38 -7 7 -24 12 -38 12
-14 0 -31 -5 -38 -12z"/>
<path d="M5142 3398 c-7 -7 -12 -24 -12 -38 0 -14 5 -31 12 -38 7 -7 24 -12
38 -12 14 0 31 5 38 12 7 7 12 24 12 38 0 14 -5 31 -12 38 -7 7 -24 12 -38 12
-14 0 -31 -5 -38 -12z"/>
<path d="M3602 3288 c-7 -7 -12 -24 -12 -38 0 -14 5 -31 12 -38 7 -7 24 -12
38 -12 14 0 31 5 38 12 7 7 12 24 12 38 0 14 -5 31 -12 38 -7 7 -24 12 -38 12
-14 0 -31 -5 -38 -12z"/>
<path d="M3712 3288 c-7 -7 -12 -24 -12 -38 0 -14 5 -31 12 -38 7 -7 24 -12
38 -12 14 0 31 5 38 12 7 7 12 24 12 38 0 14 -5 31 -12 38 -7 7 -24 12 -38 12
-14 0 -31 -5 -38 -12z"/>
<path d="M4262 3288 c-7 -7 -12 -24 -12 -38 0 -14 5 -31 12 -38 7 -7 24 -12
38 -12 14 0 31 5 38 12 7 7 12 24 12 38 0 14 -5 31 -12 38 -7 7 -24 12 -38 12
-14 0 -31 -5 -38 -12z"/>
<path d="M4372 3288 c-7 -7 -12 -24 -12 -38 0 -14 5 -31 12 -38 7 -7 24 -12
38 -12 14 0 31 5 38 12 7 7 12 24 12 38 0 14 -5 31 -12 38 -7 7 -24 12 -38 12
-14 0 -31 -5 -38 -12z"/>
<path d="M4482 3288 c-7 -7 -12 -24 -12 -38 0 -14 5 -31 12 -38 7 -7 24 -12
38 -12 14 0 31 5 38 12 7 7 12 24 12 38 0 14 -5 31 -12 38 -7 7 -24 12 -38 12
-14 0 -31 -5 -38 -12z"/>
<path d="M4592 3288 c-7 -7 -12 -24 -12 -38 0 -14 5 -31 12 -38 7 -7 24 -12
38 -12 14 0 31 5 38 12 7 7 12 24 12 38 0 14 -5 31 -12 38 -7 7 -24 12 -38 12
-14 0 -31 -5 -38 -12z"/>
<path d="M4702 3288 c-7 -7 -12 -24 -12 -38 0 -14 5 -31 12 -38 7 -7 24 -12
38 -12 14 0 31 5 38 12 7 7 12 24 12 38 0 14 -5 31 -12 38 -7 7 -24 12 -38 12
-14 0 -31 -5 -38 -12z"/>
<path d="M4812 3288 c-7 -7 -12 -24 -12 -38 0 -14 5 -31 12 -38 7 -7 24 -12
38 -12 14 0 31 5 38 12 7 7 12 24 12 38 0 14 -5 31 -12 38 -7 7 -24 12 -38 12
-14 0 -31 -5 -38 -12z"/>
<path d="M4922 3288 c-7 -7 -12 -24 -12 -38 0 -14 5 -31 12 -38 7 -7 24 -12
38 -12 14 0 31 5 38 12 7 7 12 24 12 38 0 14 -5 31 -12 38 -7 7 -24 12 -38 12
-14 0 -31 -5 -38 -12z"/>
<path d="M5032 3288 c-7 -7 -12 -24 -12 -38 0 -14 5 -31 12 -38 7 -7 24 -12
38 -12 14 0 31 5 38 12 7 7 12 24 12 38 0 14 -5 31 -12 38 -7 7 -24 12 -38 12
-14 0 -31 -5 -38 -12z"/>
<path d="M5142 3288 c-7 -7 -12 -24 -12 -38 0 -14 5 -31 12 -38 7 -7 24 -12
38 -12 14 0 31 5 38 12 7 7 12 24 12 38 0 14 -5 31 -12 38 -7 7 -24 12 -38 12
-14 0 -31 -5 -38 -12z"/>
<path d="M4042 3178 c-7 -7 -12 -24 -12 -38 0 -14 5 -31 12 -38 7 -7 24 -12
38 -12 14 0 31 5 38 12 7 7 12 24 12 38 0 14 -5 31 -12 38 -7 7 -24 12 -38 12
-14 0 -31 -5 -38 -12z"/>
<path d="M4152 3178 c-7 -7 -12 -24 -12 -38 0 -14 5 -31 12 -38 7 -7 24 -12
38 -12 14 0 31 5 38 12 7 7 12 24 12 38 0 14 -5 31 -12 38 -7 7 -24 12 -38 12
-14 0 -31 -5 -38 -12z"/>
<path d="M4262 3178 c-7 -7 -12 -24 -12 -38 0 -14 5 -31 12 -38 7 -7 24 -12
38 -12 14 0 31 5 38 12 7 7 12 24 12 38 0 14 -5 31 -12 38 -7 7 -24 12 -38 12
-14 0 -31 -5 -38 -12z"/>
<path d="M4372 3178 c-7 -7 -12 -24 -12 -38 0 -14 5 -31 12 -38 7 -7 24 -12
38 -12 14 0 31 5 38 12 7 7 12 24 12 38 0 14 -5 31 -12 38 -7 7 -24 12 -38 12
-14 0 -31 -5 -38 -12z"/>
<path d="M4482 3178 c-7 -7 -12 -24 -12 -38 0 -14 5 -31 12 -38 7 -7 24 -12
38 -12 14 0 31 5 38 12 7 7 12 24 12 38 0 14 -5 31 -12 38 -7 7 -24 12 -38 12
-14 0 -31 -5 -38 -12z"/>
<path d="M4592 3178 c-7 -7 -12 -24 -12 -38 0 -14 5 -31 12 -38 7 -7 24 -12
38 -12 14 0 31 5 38 12 7 7 12 24 12 38 0 14 -5 31 -12 38 -7 7 -24 12 -38 12
-14 0 -31 -5 -38 -12z"/>
<path d="M4702 3178 c-7 -7 -12 -24 -12 -38 0 -14 5 -31 12 -38 7 -7 24 -12
38 -12 14 0 31 5 38 12 7 7 12 24 12 38 0 14 -5 31 -12 38 -7 7 -24 12 -38 12
-14 0 -31 -5 -38 -12z"/>
<path d="M4812 3178 c-7 -7 -12 -24 -12 -38 0 -14 5 -31 12 -38 7 -7 24 -12
38 -12 14 0 31 5 38 12 7 7 12 24 12 38 0 14 -5 31 -12 38 -7 7 -24 12 -38 12
-14 0 -31 -5 -38 -12z"/>
<path d="M4922 3178 c-7 -7 -12 -24 -12 -38 0 -14 5 -31 12 -38 7 -7 24 -12
38 -12 14 0 31 5 38 12 7 7 12 24 12 38 0 14 -5 31 -12 38 -7 7 -24 12 -38 12
-14 0 -31 -5 -38 -12z"/>
<path d="M5032 3178 c-7 -7 -12 -24 -12 -38 0 -14 5 -31 12 -38 7 -7 24 -12
38 -12 14 0 31 5 38 12 7 7 12 24 12 38 0 14 -5 31 -12 38 -7 7 -24 12 -38 12
-14 0 -31 -5 -38 -12z"/>
<path d="M5142 3178 c-7 -7 -12 -24 -12 -38 0 -14 5 -31 12 -38 7 -7 24 -12
38 -12 14 0 31 5 38 12 7 7 12 24 12 38 0 14 -5 31 -12 38 -7 7 -24 12 -38 12
-14 0 -31 -5 -38 -12z"/>
<path d="M3602 3068 c-7 -7 -12 -24 -12 -38 0 -14 5 -31 12 -38 7 -7 24 -12
38 -12 14 0 31 5 38 12 7 7 12 24 12 38 0 14 -5 31 -12 38 -7 7 -24 12 -38 12
-14 0 -31 -5 -38 -12z"/>
<path d="M3822 3068 c-7 -7 -12 -24 -12 -38 0 -14 5 -31 12 -38 7 -7 24 -12
38 -12 14 0 31 5 38 12 7 7 12 24 12 38 0 14 -5 31 -12 38 -7 7 -24 12 -38 12
-14 0 -31 -5 -38 -12z"/>
<path d="M3932 3068 c-7 -7 -12 -24 -12 -38 0 -14 5 -31 12 -38 7 -7 24 -12
38 -12 14 0 31 5 38 12 7 7 12 24 12 38 0 14 -5 31 -12 38 -7 7 -24 12 -38 12
-14 0 -31 -5 -38 -12z"/>
<path d="M4042 3068 c-7 -7 -12 -24 -12 -38 0 -14 5 -31 12 -38 7 -7 24 -12
38 -12 14 0 31 5 38 12 7 7 12 24 12 38 0 14 -5 31 -12 38 -7 7 -24 12 -38 12
-14 0 -31 -5 -38 -12z"/>
<path d="M4152 3068 c-7 -7 -12 -24 -12 -38 0 -14 5 -31 12 -38 7 -7 24 -12
38 -12 14 0 31 5 38 12 7 7 12 24 12 38 0 14 -5 31 -12 38 -7 7 -24 12 -38 12
-14 0 -31 -5 -38 -12z"/>
<path d="M4262 3068 c-7 -7 -12 -24 -12 -38 0 -14 5 -31 12 -38 7 -7 24 -12
38 -12 14 0 31 5 38 12 7 7 12 24 12 38 0 14 -5 31 -12 38 -7 7 -24 12 -38 12
-14 0 -31 -5 -38 -12z"/>
<path d="M4372 3068 c-7 -7 -12 -24 -12 -38 0 -14 5 -31 12 -38 7 -7 24 -12
38 -12 14 0 31 5 38 12 7 7 12 24 12 38 0 14 -5 31 -12 38 -7 7 -24 12 -38 12
-14 0 -31 -5 -38 -12z"/>
<path d="M4482 3068 c-7 -7 -12 -24 -12 -38 0 -14 5 -31 12 -38 7 -7 24 -12
38 -12 14 0 31 5 38 12 7 7 12 24 12 38 0 14 -5 31 -12 38 -7 7 -24 12 -38 12
-14 0 -31 -5 -38 -12z"/>
<path d="M4592 3068 c-7 -7 -12 -24 -12 -38 0 -14 5 -31 12 -38 7 -7 24 -12
38 -12 14 0 31 5 38 12 7 7 12 24 12 38 0 14 -5 31 -12 38 -7 7 -24 12 -38 12
-14 0 -31 -5 -38 -12z"/>
<path d="M4702 3068 c-7 -7 -12 -24 -12 -38 0 -14 5 -31 12 -38 7 -7 24 -12
38 -12 14 0 31 5 38 12 7 7 12 24 12 38 0 14 -5 31 -12 38 -7 7 -24 12 -38 12
-14 0 -31 -5 -38 -12z"/>
<path d="M4812 3068 c-7 -7 -12 -24 -12 -38 0 -14 5 -31 12 -38 7 -7 24 -12
38 -12 14 0 31 5 38 12 7 7 12 24 12 38 0 14 -5 31 -12 38 -7 7 -24 12 -38 12
-14 0 -31 -5 -38 -12z"/>
<path d="M4922 3068 c-7 -7 -12 -24 -12 -38 0 -14 5 -31 12 -38 7 -7 24 -12
38 -12 14 0 31 5 38 12 7 7 12 24 12 38 0 14 -5 31 -12 38 -7 7 -24 12 -38 12
-14 0 -31 -5 -38 -12z"/>
<path d="M5032 3068 c-7 -7 -12 -24 -12 -38 0 -14 5 -31 12 -38 7 -7 24 -12
38 -12 14 0 31 5 38 12 7 7 12 24 12 38 0 14 -5 31 -12 38 -7 7 -24 12 -38 12
-14 0 -31 -5 -38 -12z"/>
<path d="M3602 2958 c-7 -7 -12 -24 -12 -38 0 -14 5 -31 12 -38 7 -7 24 -12
38 -12 14 0 31 5 38 12 7 7 12 24 12 38 0 14 -5 31 -12 38 -7 7 -24 12 -38 12
-14 0 -31 -5 -38 -12z"/>
<path d="M3712 2958 c-7 -7 -12 -24 -12 -38 0 -14 5 -31 12 -38 7 -7 24 -12
38 -12 14 0 31 5 38 12 7 7 12 24 12 38 0 14 -5 31 -12 38 -7 7 -24 12 -38 12
-14 0 -31 -5 -38 -12z"/>
<path d="M3822 2958 c-7 -7 -12 -24 -12 -38 0 -14 5 -31 12 -38 7 -7 24 -12
38 -12 14 0 31 5 38 12 7 7 12 24 12 38 0 14 -5 31 -12 38 -7 7 -24 12 -38 12
-14 0 -31 -5 -38 -12z"/>
<path d="M3932 2958 c-18 -18 -15 -55 7 -77 18 -18 18 -18 0 -30 -22 -13 -25
-61 -7 -79 17 -17 63 -15 77 2 19 22 9 69 -16 81 l-21 11 21 9 c25 11 35 59
16 81 -14 17 -60 19 -77 2z"/>
<path d="M4042 2958 c-7 -7 -12 -24 -12 -38 0 -14 5 -31 12 -38 7 -7 24 -12
38 -12 14 0 31 5 38 12 7 7 12 24 12 38 0 14 -5 31 -12 38 -7 7 -24 12 -38 12
-14 0 -31 -5 -38 -12z"/>
<path d="M4152 2958 c-7 -7 -12 -24 -12 -38 0 -14 5 -31 12 -38 7 -7 24 -12
38 -12 14 0 31 5 38 12 7 7 12 24 12 38 0 14 -5 31 -12 38 -7 7 -24 12 -38 12
-14 0 -31 -5 -38 -12z"/>
<path d="M4262 2958 c-7 -7 -12 -24 -12 -38 0 -14 5 -31 12 -38 7 -7 24 -12
38 -12 14 0 31 5 38 12 7 7 12 24 12 38 0 14 -5 31 -12 38 -7 7 -24 12 -38 12
-14 0 -31 -5 -38 -12z"/>
<path d="M4372 2958 c-7 -7 -12 -24 -12 -38 0 -14 5 -31 12 -38 7 -7 24 -12
38 -12 14 0 31 5 38 12 7 7 12 24 12 38 0 14 -5 31 -12 38 -7 7 -24 12 -38 12
-14 0 -31 -5 -38 -12z"/>
<path d="M4482 2958 c-7 -7 -12 -24 -12 -38 0 -14 5 -31 12 -38 7 -7 24 -12
38 -12 14 0 31 5 38 12 7 7 12 24 12 38 0 14 -5 31 -12 38 -7 7 -24 12 -38 12
-14 0 -31 -5 -38 -12z"/>
<path d="M4592 2958 c-7 -7 -12 -24 -12 -38 0 -14 5 -31 12 -38 7 -7 24 -12
38 -12 14 0 31 5 38 12 7 7 12 24 12 38 0 14 -5 31 -12 38 -7 7 -24 12 -38 12
-14 0 -31 -5 -38 -12z"/>
<path d="M4702 2958 c-19 -19 -14 -66 7 -80 20 -12 20 -12 0 -26 -21 -15 -26
-61 -7 -80 17 -17 63 -15 77 2 19 22 9 69 -16 81 l-21 11 21 9 c25 11 35 59
16 81 -14 17 -60 19 -77 2z"/>
<path d="M4812 2958 c-7 -7 -12 -24 -12 -38 0 -14 5 -31 12 -38 7 -7 24 -12
38 -12 14 0 31 5 38 12 7 7 12 24 12 38 0 14 -5 31 -12 38 -7 7 -24 12 -38 12
-14 0 -31 -5 -38 -12z"/>
<path d="M4922 2958 c-7 -7 -12 -24 -12 -38 0 -14 5 -31 12 -38 7 -7 24 -12
38 -12 14 0 31 5 38 12 7 7 12 24 12 38 0 14 -5 31 -12 38 -7 7 -24 12 -38 12
-14 0 -31 -5 -38 -12z"/>
<path d="M5032 2958 c-7 -7 -12 -24 -12 -38 0 -14 5 -31 12 -38 7 -7 24 -12
38 -12 14 0 31 5 38 12 7 7 12 24 12 38 0 14 -5 31 -12 38 -7 7 -24 12 -38 12
-14 0 -31 -5 -38 -12z"/>
<path d="M3492 2848 c-7 -7 -12 -24 -12 -38 0 -14 5 -31 12 -38 7 -7 24 -12
38 -12 14 0 31 5 38 12 7 7 12 24 12 38 0 14 -5 31 -12 38 -7 7 -24 12 -38 12
-14 0 -31 -5 -38 -12z"/>
<path d="M3602 2848 c-7 -7 -12 -24 -12 -38 0 -14 5 -31 12 -38 7 -7 24 -12
38 -12 14 0 31 5 38 12 7 7 12 24 12 38 0 14 -5 31 -12 38 -7 7 -24 12 -38 12
-14 0 -31 -5 -38 -12z"/>
<path d="M3712 2848 c-7 -7 -12 -24 -12 -38 0 -14 5 -31 12 -38 7 -7 24 -12
38 -12 14 0 31 5 38 12 7 7 12 24 12 38 0 14 -5 31 -12 38 -7 7 -24 12 -38 12
-14 0 -31 -5 -38 -12z"/>
<path d="M3822 2848 c-7 -7 -12 -24 -12 -38 0 -14 5 -31 12 -38 7 -7 24 -12
38 -12 14 0 31 5 38 12 7 7 12 24 12 38 0 14 -5 31 -12 38 -7 7 -24 12 -38 12
-14 0 -31 -5 -38 -12z"/>
<path d="M4042 2848 c-7 -7 -12 -24 -12 -38 0 -14 5 -31 12 -38 7 -7 24 -12
38 -12 14 0 31 5 38 12 7 7 12 24 12 38 0 14 -5 31 -12 38 -7 7 -24 12 -38 12
-14 0 -31 -5 -38 -12z"/>
<path d="M4152 2848 c-7 -7 -12 -24 -12 -38 0 -14 5 -31 12 -38 7 -7 24 -12
38 -12 14 0 31 5 38 12 7 7 12 24 12 38 0 14 -5 31 -12 38 -7 7 -24 12 -38 12
-14 0 -31 -5 -38 -12z"/>
<path d="M4262 2848 c-7 -7 -12 -24 -12 -38 0 -14 5 -31 12 -38 7 -7 24 -12
38 -12 14 0 31 5 38 12 7 7 12 24 12 38 0 14 -5 31 -12 38 -7 7 -24 12 -38 12
-14 0 -31 -5 -38 -12z"/>
<path d="M4372 2848 c-7 -7 -12 -24 -12 -38 0 -14 5 -31 12 -38 7 -7 24 -12
38 -12 14 0 31 5 38 12 7 7 12 24 12 38 0 14 -5 31 -12 38 -7 7 -24 12 -38 12
-14 0 -31 -5 -38 -12z"/>
<path d="M4482 2848 c-7 -7 -12 -24 -12 -38 0 -14 5 -31 12 -38 7 -7 24 -12
38 -12 14 0 31 5 38 12 7 7 12 24 12 38 0 14 -5 31 -12 38 -7 7 -24 12 -38 12
-14 0 -31 -5 -38 -12z"/>
<path d="M4592 2848 c-7 -7 -12 -24 -12 -38 0 -14 5 -31 12 -38 7 -7 24 -12
38 -12 14 0 31 5 38 12 7 7 12 24 12 38 0 14 -5 31 -12 38 -7 7 -24 12 -38 12
-14 0 -31 -5 -38 -12z"/>
<path d="M4812 2848 c-7 -7 -12 -24 -12 -38 0 -14 5 -31 12 -38 7 -7 24 -12
38 -12 14 0 31 5 38 12 7 7 12 24 12 38 0 14 -5 31 -12 38 -7 7 -24 12 -38 12
-14 0 -31 -5 -38 -12z"/>
<path d="M4922 2848 c-7 -7 -12 -24 -12 -38 0 -14 5 -31 12 -38 7 -7 24 -12
38 -12 14 0 31 5 38 12 7 7 12 24 12 38 0 14 -5 31 -12 38 -7 7 -24 12 -38 12
-14 0 -31 -5 -38 -12z"/>
<path d="M2172 2738 c-7 -7 -12 -24 -12 -38 0 -33 17 -50 50 -50 33 0 50 17
50 50 0 33 -17 50 -50 50 -14 0 -31 -5 -38 -12z"/>
<path d="M3382 2738 c-7 -7 -12 -24 -12 -38 0 -14 5 -31 12 -38 7 -7 24 -12
38 -12 14 0 31 5 38 12 7 7 12 24 12 38 0 14 -5 31 -12 38 -7 7 -24 12 -38 12
-14 0 -31 -5 -38 -12z"/>
<path d="M3492 2738 c-7 -7 -12 -24 -12 -38 0 -14 5 -31 12 -38 7 -7 24 -12
38 -12 14 0 31 5 38 12 7 7 12 24 12 38 0 14 -5 31 -12 38 -7 7 -24 12 -38 12
-14 0 -31 -5 -38 -12z"/>
<path d="M3602 2738 c-7 -7 -12 -24 -12 -38 0 -14 5 -31 12 -38 7 -7 24 -12
38 -12 14 0 31 5 38 12 7 7 12 24 12 38 0 14 -5 31 -12 38 -7 7 -24 12 -38 12
-14 0 -31 -5 -38 -12z"/>
<path d="M3712 2738 c-7 -7 -12 -24 -12 -38 0 -14 5 -31 12 -38 7 -7 24 -12
38 -12 14 0 31 5 38 12 7 7 12 24 12 38 0 14 -5 31 -12 38 -7 7 -24 12 -38 12
-14 0 -31 -5 -38 -12z"/>
<path d="M3822 2738 c-7 -7 -12 -24 -12 -38 0 -14 5 -31 12 -38 7 -7 24 -12
38 -12 14 0 31 5 38 12 7 7 12 24 12 38 0 14 -5 31 -12 38 -7 7 -24 12 -38 12
-14 0 -31 -5 -38 -12z"/>
<path d="M3932 2738 c-7 -7 -12 -24 -12 -38 0 -14 5 -31 12 -38 7 -7 24 -12
38 -12 14 0 31 5 38 12 7 7 12 24 12 38 0 14 -5 31 -12 38 -7 7 -24 12 -38 12
-14 0 -31 -5 -38 -12z"/>
<path d="M4042 2738 c-7 -7 -12 -24 -12 -38 0 -14 5 -31 12 -38 7 -7 24 -12
38 -12 14 0 31 5 38 12 7 7 12 24 12 38 0 14 -5 31 -12 38 -7 7 -24 12 -38 12
-14 0 -31 -5 -38 -12z"/>
<path d="M4152 2738 c-7 -7 -12 -24 -12 -38 0 -14 5 -31 12 -38 7 -7 24 -12
38 -12 14 0 31 5 38 12 7 7 12 24 12 38 0 14 -5 31 -12 38 -7 7 -24 12 -38 12
-14 0 -31 -5 -38 -12z"/>
<path d="M4262 2738 c-7 -7 -12 -24 -12 -38 0 -14 5 -31 12 -38 7 -7 24 -12
38 -12 14 0 31 5 38 12 7 7 12 24 12 38 0 14 -5 31 -12 38 -7 7 -24 12 -38 12
-14 0 -31 -5 -38 -12z"/>
<path d="M4372 2738 c-7 -7 -12 -24 -12 -38 0 -14 5 -31 12 -38 7 -7 24 -12
38 -12 14 0 31 5 38 12 7 7 12 24 12 38 0 14 -5 31 -12 38 -7 7 -24 12 -38 12
-14 0 -31 -5 -38 -12z"/>
<path d="M4482 2738 c-7 -7 -12 -24 -12 -38 0 -14 5 -31 12 -38 7 -7 24 -12
38 -12 14 0 31 5 38 12 7 7 12 24 12 38 0 14 -5 31 -12 38 -7 7 -24 12 -38 12
-14 0 -31 -5 -38 -12z"/>
<path d="M4592 2738 c-7 -7 -12 -24 -12 -38 0 -14 5 -31 12 -38 7 -7 24 -12
38 -12 14 0 31 5 38 12 7 7 12 24 12 38 0 14 -5 31 -12 38 -7 7 -24 12 -38 12
-14 0 -31 -5 -38 -12z"/>
<path d="M4702 2738 c-7 -7 -12 -24 -12 -38 0 -14 5 -31 12 -38 7 -7 24 -12
38 -12 14 0 31 5 38 12 7 7 12 24 12 38 0 14 -5 31 -12 38 -7 7 -24 12 -38 12
-14 0 -31 -5 -38 -12z"/>
<path d="M4812 2738 c-7 -7 -12 -24 -12 -38 0 -14 5 -31 12 -38 7 -7 24 -12
38 -12 14 0 31 5 38 12 7 7 12 24 12 38 0 14 -5 31 -12 38 -7 7 -24 12 -38 12
-14 0 -31 -5 -38 -12z"/>
<path d="M4922 2738 c-7 -7 -12 -24 -12 -38 0 -14 5 -31 12 -38 7 -7 24 -12
38 -12 14 0 31 5 38 12 7 7 12 24 12 38 0 14 -5 31 -12 38 -7 7 -24 12 -38 12
-14 0 -31 -5 -38 -12z"/>
<path d="M3272 2628 c-7 -7 -12 -24 -12 -38 0 -33 17 -50 50 -50 33 0 50 17
50 50 0 14 -5 31 -12 38 -7 7 -24 12 -38 12 -14 0 -31 -5 -38 -12z"/>
<path d="M3382 2628 c-7 -7 -12 -24 -12 -38 0 -33 17 -50 50 -50 33 0 50 17
50 50 0 14 -5 31 -12 38 -7 7 -24 12 -38 12 -14 0 -31 -5 -38 -12z"/>
<path d="M3492 2628 c-7 -7 -12 -24 -12 -38 0 -33 17 -50 50 -50 33 0 50 17
50 50 0 14 -5 31 -12 38 -7 7 -24 12 -38 12 -14 0 -31 -5 -38 -12z"/>
<path d="M3602 2628 c-7 -7 -12 -24 -12 -38 0 -33 17 -50 50 -50 33 0 50 17
50 50 0 14 -5 31 -12 38 -7 7 -24 12 -38 12 -14 0 -31 -5 -38 -12z"/>
<path d="M3712 2628 c-7 -7 -12 -24 -12 -38 0 -33 17 -50 50 -50 33 0 50 17
50 50 0 14 -5 31 -12 38 -7 7 -24 12 -38 12 -14 0 -31 -5 -38 -12z"/>
<path d="M3822 2628 c-7 -7 -12 -24 -12 -38 0 -33 17 -50 50 -50 33 0 50 17
50 50 0 14 -5 31 -12 38 -7 7 -24 12 -38 12 -14 0 -31 -5 -38 -12z"/>
<path d="M3932 2628 c-7 -7 -12 -24 -12 -38 0 -33 17 -50 50 -50 33 0 50 17
50 50 0 14 -5 31 -12 38 -7 7 -24 12 -38 12 -14 0 -31 -5 -38 -12z"/>
<path d="M4042 2628 c-7 -7 -12 -24 -12 -38 0 -33 17 -50 50 -50 33 0 50 17
50 50 0 14 -5 31 -12 38 -7 7 -24 12 -38 12 -14 0 -31 -5 -38 -12z"/>
<path d="M4152 2628 c-7 -7 -12 -24 -12 -38 0 -33 17 -50 50 -50 33 0 50 17
50 50 0 14 -5 31 -12 38 -7 7 -24 12 -38 12 -14 0 -31 -5 -38 -12z"/>
<path d="M4262 2628 c-7 -7 -12 -24 -12 -38 0 -33 17 -50 50 -50 33 0 50 17
50 50 0 14 -5 31 -12 38 -7 7 -24 12 -38 12 -14 0 -31 -5 -38 -12z"/>
<path d="M4372 2628 c-7 -7 -12 -24 -12 -38 0 -33 17 -50 50 -50 33 0 50 17
50 50 0 14 -5 31 -12 38 -7 7 -24 12 -38 12 -14 0 -31 -5 -38 -12z"/>
<path d="M4482 2628 c-7 -7 -12 -24 -12 -38 0 -33 17 -50 50 -50 33 0 50 17
50 50 0 14 -5 31 -12 38 -7 7 -24 12 -38 12 -14 0 -31 -5 -38 -12z"/>
<path d="M4592 2628 c-7 -7 -12 -24 -12 -38 0 -33 17 -50 50 -50 33 0 50 17
50 50 0 14 -5 31 -12 38 -7 7 -24 12 -38 12 -14 0 -31 -5 -38 -12z"/>
<path d="M4702 2628 c-7 -7 -12 -24 -12 -38 0 -33 17 -50 50 -50 33 0 50 17
50 50 0 14 -5 31 -12 38 -7 7 -24 12 -38 12 -14 0 -31 -5 -38 -12z"/>
<path d="M4812 2628 c-7 -7 -12 -24 -12 -38 0 -33 17 -50 50 -50 33 0 50 17
50 50 0 14 -5 31 -12 38 -7 7 -24 12 -38 12 -14 0 -31 -5 -38 -12z"/>
<path d="M4922 2628 c-7 -7 -12 -24 -12 -38 0 -33 17 -50 50 -50 33 0 50 17
50 50 0 14 -5 31 -12 38 -7 7 -24 12 -38 12 -14 0 -31 -5 -38 -12z"/>
<path d="M5032 2628 c-7 -7 -12 -24 -12 -38 0 -33 17 -50 50 -50 33 0 50 17
50 50 0 14 -5 31 -12 38 -7 7 -24 12 -38 12 -14 0 -31 -5 -38 -12z"/>
<path d="M3382 2518 c-7 -7 -12 -24 -12 -38 0 -33 17 -50 50 -50 33 0 50 17
50 50 0 33 -17 50 -50 50 -14 0 -31 -5 -38 -12z"/>
<path d="M3492 2518 c-7 -7 -12 -24 -12 -38 0 -33 17 -50 50 -50 33 0 50 17
50 50 0 33 -17 50 -50 50 -14 0 -31 -5 -38 -12z"/>
<path d="M3602 2518 c-7 -7 -12 -24 -12 -38 0 -33 17 -50 50 -50 33 0 50 17
50 50 0 33 -17 50 -50 50 -14 0 -31 -5 -38 -12z"/>
<path d="M3712 2518 c-7 -7 -12 -24 -12 -38 0 -33 17 -50 50 -50 33 0 50 17
50 50 0 33 -17 50 -50 50 -14 0 -31 -5 -38 -12z"/>
<path d="M3822 2518 c-7 -7 -12 -24 -12 -38 0 -33 17 -50 50 -50 33 0 50 17
50 50 0 33 -17 50 -50 50 -14 0 -31 -5 -38 -12z"/>
<path d="M3932 2518 c-7 -7 -12 -24 -12 -38 0 -33 17 -50 50 -50 33 0 50 17
50 50 0 33 -17 50 -50 50 -14 0 -31 -5 -38 -12z"/>
<path d="M4042 2518 c-7 -7 -12 -24 -12 -38 0 -33 17 -50 50 -50 33 0 50 17
50 50 0 33 -17 50 -50 50 -14 0 -31 -5 -38 -12z"/>
<path d="M4152 2518 c-7 -7 -12 -24 -12 -38 0 -33 17 -50 50 -50 33 0 50 17
50 50 0 33 -17 50 -50 50 -14 0 -31 -5 -38 -12z"/>
<path d="M4262 2518 c-7 -7 -12 -24 -12 -38 0 -33 17 -50 50 -50 33 0 50 17
50 50 0 33 -17 50 -50 50 -14 0 -31 -5 -38 -12z"/>
<path d="M4372 2518 c-7 -7 -12 -24 -12 -38 0 -33 17 -50 50 -50 33 0 50 17
50 50 0 33 -17 50 -50 50 -14 0 -31 -5 -38 -12z"/>
<path d="M4482 2518 c-7 -7 -12 -24 -12 -38 0 -33 17 -50 50 -50 33 0 50 17
50 50 0 33 -17 50 -50 50 -14 0 -31 -5 -38 -12z"/>
<path d="M4592 2518 c-7 -7 -12 -24 -12 -38 0 -33 17 -50 50 -50 33 0 50 17
50 50 0 33 -17 50 -50 50 -14 0 -31 -5 -38 -12z"/>
<path d="M4702 2518 c-7 -7 -12 -24 -12 -38 0 -33 17 -50 50 -50 33 0 50 17
50 50 0 33 -17 50 -50 50 -14 0 -31 -5 -38 -12z"/>
<path d="M4812 2518 c-7 -7 -12 -24 -12 -38 0 -33 17 -50 50 -50 33 0 50 17
50 50 0 33 -17 50 -50 50 -14 0 -31 -5 -38 -12z"/>
<path d="M4922 2518 c-7 -7 -12 -24 -12 -38 0 -33 17 -50 50 -50 33 0 50 17
50 50 0 33 -17 50 -50 50 -14 0 -31 -5 -38 -12z"/>
<path d="M5032 2518 c-7 -7 -12 -24 -12 -38 0 -33 17 -50 50 -50 33 0 50 17
50 50 0 33 -17 50 -50 50 -14 0 -31 -5 -38 -12z"/>
<path d="M2621 2414 c-23 -17 -28 -63 -9 -82 7 -7 24 -12 38 -12 33 0 50 17
50 51 0 43 -44 67 -79 43z"/>
<path d="M2172 2408 c-7 -7 -12 -24 -12 -38 0 -14 5 -31 12 -38 7 -7 24 -12
38 -12 14 0 31 5 38 12 7 7 12 24 12 38 0 14 -5 31 -12 38 -7 7 -24 12 -38 12
-14 0 -31 -5 -38 -12z"/>
<path d="M2722 2408 c-7 -7 -12 -24 -12 -38 0 -33 17 -50 50 -50 33 0 50 17
50 50 0 33 -17 50 -50 50 -14 0 -31 -5 -38 -12z"/>
<path d="M2832 2408 c-7 -7 -12 -24 -12 -38 0 -33 17 -50 50 -50 33 0 50 17
50 50 0 33 -17 50 -50 50 -14 0 -31 -5 -38 -12z"/>
<path d="M2942 2408 c-7 -7 -12 -24 -12 -38 0 -33 17 -50 50 -50 33 0 50 17
50 50 0 33 -17 50 -50 50 -14 0 -31 -5 -38 -12z"/>
<path d="M3052 2408 c-7 -7 -12 -24 -12 -38 0 -33 17 -50 50 -50 33 0 50 17
50 50 0 33 -17 50 -50 50 -14 0 -31 -5 -38 -12z"/>
<path d="M3162 2408 c-7 -7 -12 -24 -12 -38 0 -33 17 -50 50 -50 33 0 50 17
50 50 0 33 -17 50 -50 50 -14 0 -31 -5 -38 -12z"/>
<path d="M3272 2408 c-7 -7 -12 -24 -12 -38 0 -33 17 -50 50 -50 33 0 50 17
50 50 0 33 -17 50 -50 50 -14 0 -31 -5 -38 -12z"/>
<path d="M3382 2408 c-15 -15 -16 -60 0 -76 19 -19 65 -14 80 7 14 20 14 20
26 0 14 -21 61 -26 80 -7 17 17 15 63 -2 77 -22 19 -70 9 -81 -16 l-9 -21 -11
21 c-12 25 -63 35 -83 15z"/>
<path d="M3602 2408 c-7 -7 -12 -24 -12 -38 0 -33 17 -50 50 -50 33 0 50 17
50 50 0 33 -17 50 -50 50 -14 0 -31 -5 -38 -12z"/>
<path d="M3712 2408 c-7 -7 -12 -24 -12 -38 0 -33 17 -50 50 -50 33 0 50 17
50 50 0 33 -17 50 -50 50 -14 0 -31 -5 -38 -12z"/>
<path d="M3822 2408 c-7 -7 -12 -24 -12 -38 0 -33 17 -50 50 -50 33 0 50 17
50 50 0 33 -17 50 -50 50 -14 0 -31 -5 -38 -12z"/>
<path d="M3932 2408 c-7 -7 -12 -24 -12 -38 0 -33 17 -50 50 -50 33 0 50 17
50 50 0 33 -17 50 -50 50 -14 0 -31 -5 -38 -12z"/>
<path d="M4042 2408 c-7 -7 -12 -24 -12 -38 0 -33 17 -50 50 -50 33 0 50 17
50 50 0 33 -17 50 -50 50 -14 0 -31 -5 -38 -12z"/>
<path d="M4152 2408 c-7 -7 -12 -24 -12 -38 0 -33 17 -50 50 -50 33 0 50 17
50 50 0 33 -17 50 -50 50 -14 0 -31 -5 -38 -12z"/>
<path d="M4262 2408 c-7 -7 -12 -24 -12 -38 0 -33 17 -50 50 -50 33 0 50 17
50 50 0 33 -17 50 -50 50 -14 0 -31 -5 -38 -12z"/>
<path d="M4372 2408 c-7 -7 -12 -24 -12 -38 0 -33 17 -50 50 -50 33 0 50 17
50 50 0 33 -17 50 -50 50 -14 0 -31 -5 -38 -12z"/>
<path d="M4482 2408 c-7 -7 -12 -24 -12 -38 0 -33 17 -50 50 -50 33 0 50 17
50 50 0 33 -17 50 -50 50 -14 0 -31 -5 -38 -12z"/>
<path d="M4592 2408 c-7 -7 -12 -24 -12 -38 0 -33 17 -50 50 -50 33 0 50 17
50 50 0 33 -17 50 -50 50 -14 0 -31 -5 -38 -12z"/>
<path d="M4702 2408 c-7 -7 -12 -24 -12 -38 0 -33 17 -50 50 -50 33 0 50 17
50 50 0 33 -17 50 -50 50 -14 0 -31 -5 -38 -12z"/>
<path d="M4812 2408 c-7 -7 -12 -24 -12 -38 0 -33 17 -50 50 -50 33 0 50 17
50 50 0 33 -17 50 -50 50 -14 0 -31 -5 -38 -12z"/>
<path d="M4922 2408 c-7 -7 -12 -24 -12 -38 0 -33 17 -50 50 -50 33 0 50 17
50 50 0 33 -17 50 -50 50 -14 0 -31 -5 -38 -12z"/>
<path d="M1952 2298 c-7 -7 -12 -24 -12 -38 0 -14 5 -31 12 -38 7 -7 24 -12
38 -12 14 0 31 5 38 12 7 7 12 24 12 38 0 14 -5 31 -12 38 -7 7 -24 12 -38 12
-14 0 -31 -5 -38 -12z"/>
<path d="M2062 2298 c-7 -7 -12 -24 -12 -38 0 -14 5 -31 12 -38 7 -7 24 -12
38 -12 14 0 31 5 38 12 7 7 12 24 12 38 0 14 -5 31 -12 38 -7 7 -24 12 -38 12
-14 0 -31 -5 -38 -12z"/>
<path d="M2172 2298 c-7 -7 -12 -24 -12 -38 0 -14 5 -31 12 -38 7 -7 24 -12
38 -12 14 0 31 5 38 12 7 7 12 24 12 38 0 14 -5 31 -12 38 -7 7 -24 12 -38 12
-14 0 -31 -5 -38 -12z"/>
<path d="M2282 2298 c-7 -7 -12 -24 -12 -38 0 -14 5 -31 12 -38 7 -7 24 -12
38 -12 14 0 31 5 38 12 7 7 12 24 12 38 0 14 -5 31 -12 38 -7 7 -24 12 -38 12
-14 0 -31 -5 -38 -12z"/>
<path d="M2392 2298 c-7 -7 -12 -24 -12 -38 0 -14 5 -31 12 -38 7 -7 24 -12
38 -12 14 0 31 5 38 12 7 7 12 24 12 38 0 14 -5 31 -12 38 -7 7 -24 12 -38 12
-14 0 -31 -5 -38 -12z"/>
<path d="M2502 2298 c-7 -7 -12 -24 -12 -38 0 -14 5 -31 12 -38 7 -7 24 -12
38 -12 33 0 50 17 50 50 0 33 -17 50 -50 50 -14 0 -31 -5 -38 -12z"/>
<path d="M2612 2298 c-7 -7 -12 -24 -12 -38 0 -33 17 -50 50 -50 33 0 50 17
50 50 0 33 -17 50 -50 50 -14 0 -31 -5 -38 -12z"/>
<path d="M2722 2298 c-7 -7 -12 -24 -12 -38 0 -33 17 -50 50 -50 33 0 50 17
50 50 0 33 -17 50 -50 50 -14 0 -31 -5 -38 -12z"/>
<path d="M2832 2298 c-7 -7 -12 -24 -12 -38 0 -33 17 -50 50 -50 33 0 50 17
50 50 0 33 -17 50 -50 50 -14 0 -31 -5 -38 -12z"/>
<path d="M2942 2298 c-7 -7 -12 -24 -12 -38 0 -33 17 -50 50 -50 33 0 50 17
50 50 0 33 -17 50 -50 50 -14 0 -31 -5 -38 -12z"/>
<path d="M3052 2298 c-7 -7 -12 -24 -12 -38 0 -33 17 -50 50 -50 33 0 50 17
50 50 0 33 -17 50 -50 50 -14 0 -31 -5 -38 -12z"/>
<path d="M3162 2298 c-7 -7 -12 -24 -12 -38 0 -33 17 -50 50 -50 33 0 50 17
50 50 0 33 -17 50 -50 50 -14 0 -31 -5 -38 -12z"/>
<path d="M3272 2298 c-7 -7 -12 -24 -12 -38 0 -33 17 -50 50 -50 33 0 50 17
50 50 0 33 -17 50 -50 50 -14 0 -31 -5 -38 -12z"/>
<path d="M3382 2298 c-7 -7 -12 -24 -12 -38 0 -33 17 -50 50 -50 33 0 50 17
50 50 0 33 -17 50 -50 50 -14 0 -31 -5 -38 -12z"/>
<path d="M3492 2298 c-7 -7 -12 -24 -12 -38 0 -33 17 -50 50 -50 33 0 50 17
50 50 0 33 -17 50 -50 50 -14 0 -31 -5 -38 -12z"/>
<path d="M3602 2298 c-7 -7 -12 -24 -12 -38 0 -33 17 -50 50 -50 33 0 50 17
50 50 0 33 -17 50 -50 50 -14 0 -31 -5 -38 -12z"/>
<path d="M3712 2298 c-7 -7 -12 -24 -12 -38 0 -33 17 -50 50 -50 33 0 50 17
50 50 0 33 -17 50 -50 50 -14 0 -31 -5 -38 -12z"/>
<path d="M3822 2298 c-7 -7 -12 -24 -12 -38 0 -33 17 -50 50 -50 33 0 50 17
50 50 0 33 -17 50 -50 50 -14 0 -31 -5 -38 -12z"/>
<path d="M3932 2298 c-7 -7 -12 -24 -12 -38 0 -33 17 -50 50 -50 33 0 50 17
50 50 0 33 -17 50 -50 50 -14 0 -31 -5 -38 -12z"/>
<path d="M4042 2298 c-7 -7 -12 -24 -12 -38 0 -33 17 -50 50 -50 33 0 50 17
50 50 0 33 -17 50 -50 50 -14 0 -31 -5 -38 -12z"/>
<path d="M4152 2298 c-7 -7 -12 -24 -12 -38 0 -33 17 -50 50 -50 33 0 50 17
50 50 0 33 -17 50 -50 50 -14 0 -31 -5 -38 -12z"/>
<path d="M4262 2298 c-7 -7 -12 -24 -12 -38 0 -33 17 -50 50 -50 33 0 50 17
50 50 0 33 -17 50 -50 50 -14 0 -31 -5 -38 -12z"/>
<path d="M4372 2298 c-7 -7 -12 -24 -12 -38 0 -33 17 -50 50 -50 33 0 50 17
50 50 0 33 -17 50 -50 50 -14 0 -31 -5 -38 -12z"/>
<path d="M4482 2298 c-7 -7 -12 -24 -12 -38 0 -33 17 -50 50 -50 33 0 50 17
50 50 0 33 -17 50 -50 50 -14 0 -31 -5 -38 -12z"/>
<path d="M4592 2298 c-7 -7 -12 -24 -12 -38 0 -33 17 -50 50 -50 33 0 50 17
50 50 0 33 -17 50 -50 50 -14 0 -31 -5 -38 -12z"/>
<path d="M4812 2298 c-7 -7 -12 -24 -12 -38 0 -33 17 -50 50 -50 33 0 50 17
50 50 0 33 -17 50 -50 50 -14 0 -31 -5 -38 -12z"/>
<path d="M4922 2298 c-7 -7 -12 -24 -12 -38 0 -33 17 -50 50 -50 33 0 50 17
50 50 0 33 -17 50 -50 50 -14 0 -31 -5 -38 -12z"/>
<path d="M1842 2188 c-7 -7 -12 -24 -12 -38 0 -14 5 -31 12 -38 7 -7 24 -12
38 -12 14 0 31 5 38 12 7 7 12 24 12 38 0 14 -5 31 -12 38 -7 7 -24 12 -38 12
-14 0 -31 -5 -38 -12z"/>
<path d="M1952 2188 c-7 -7 -12 -24 -12 -38 0 -14 5 -31 12 -38 7 -7 24 -12
38 -12 14 0 31 5 38 12 7 7 12 24 12 38 0 14 -5 31 -12 38 -7 7 -24 12 -38 12
-14 0 -31 -5 -38 -12z"/>
<path d="M2062 2188 c-7 -7 -12 -24 -12 -38 0 -14 5 -31 12 -38 7 -7 24 -12
38 -12 14 0 31 5 38 12 7 7 12 24 12 38 0 14 -5 31 -12 38 -7 7 -24 12 -38 12
-14 0 -31 -5 -38 -12z"/>
<path d="M2172 2188 c-7 -7 -12 -24 -12 -38 0 -14 5 -31 12 -38 7 -7 24 -12
38 -12 14 0 31 5 38 12 7 7 12 24 12 38 0 14 -5 31 -12 38 -7 7 -24 12 -38 12
-14 0 -31 -5 -38 -12z"/>
<path d="M2282 2188 c-7 -7 -12 -24 -12 -38 0 -14 5 -31 12 -38 7 -7 24 -12
38 -12 14 0 31 5 38 12 7 7 12 24 12 38 0 14 -5 31 -12 38 -7 7 -24 12 -38 12
-14 0 -31 -5 -38 -12z"/>
<path d="M2392 2188 c-7 -7 -12 -24 -12 -38 0 -14 5 -31 12 -38 7 -7 24 -12
38 -12 14 0 31 5 38 12 7 7 12 24 12 38 0 14 -5 31 -12 38 -7 7 -24 12 -38 12
-14 0 -31 -5 -38 -12z"/>
<path d="M2502 2188 c-7 -7 -12 -24 -12 -38 0 -14 5 -31 12 -38 7 -7 24 -12
38 -12 33 0 50 17 50 50 0 33 -17 50 -50 50 -14 0 -31 -5 -38 -12z"/>
<path d="M2612 2188 c-7 -7 -12 -24 -12 -38 0 -33 17 -50 50 -50 33 0 50 17
50 50 0 33 -17 50 -50 50 -14 0 -31 -5 -38 -12z"/>
<path d="M2722 2188 c-7 -7 -12 -24 -12 -38 0 -33 17 -50 50 -50 33 0 50 17
50 50 0 33 -17 50 -50 50 -14 0 -31 -5 -38 -12z"/>
<path d="M2832 2188 c-7 -7 -12 -24 -12 -38 0 -33 17 -50 50 -50 33 0 50 17
50 50 0 33 -17 50 -50 50 -14 0 -31 -5 -38 -12z"/>
<path d="M2942 2188 c-7 -7 -12 -24 -12 -38 0 -33 17 -50 50 -50 33 0 50 17
50 50 0 33 -17 50 -50 50 -14 0 -31 -5 -38 -12z"/>
<path d="M3052 2188 c-7 -7 -12 -24 -12 -38 0 -33 17 -50 50 -50 33 0 50 17
50 50 0 33 -17 50 -50 50 -14 0 -31 -5 -38 -12z"/>
<path d="M3162 2188 c-7 -7 -12 -24 -12 -38 0 -33 17 -50 50 -50 33 0 50 17
50 50 0 33 -17 50 -50 50 -14 0 -31 -5 -38 -12z"/>
<path d="M3272 2188 c-19 -19 -14 -66 7 -80 20 -12 20 -12 0 -26 -21 -15 -26
-61 -7 -80 17 -17 63 -15 77 2 19 22 9 69 -16 81 l-21 11 21 9 c25 11 35 59
16 81 -14 17 -60 19 -77 2z"/>
<path d="M3382 2188 c-17 -17 -15 -63 2 -77 22 -19 69 -9 81 16 l11 21 9 -21
c11 -25 59 -35 81 -16 17 14 19 60 2 77 -19 19 -66 14 -80 -7 -12 -20 -12 -20
-26 0 -15 21 -61 26 -80 7z"/>
<path d="M3602 2188 c-7 -7 -12 -24 -12 -38 0 -33 17 -50 50 -50 33 0 50 17
50 50 0 33 -17 50 -50 50 -14 0 -31 -5 -38 -12z"/>
<path d="M3712 2188 c-7 -7 -12 -24 -12 -38 0 -33 17 -50 50 -50 33 0 50 17
50 50 0 33 -17 50 -50 50 -14 0 -31 -5 -38 -12z"/>
<path d="M3822 2188 c-7 -7 -12 -24 -12 -38 0 -33 17 -50 50 -50 33 0 50 17
50 50 0 33 -17 50 -50 50 -14 0 -31 -5 -38 -12z"/>
<path d="M3932 2188 c-7 -7 -12 -24 -12 -38 0 -33 17 -50 50 -50 33 0 50 17
50 50 0 33 -17 50 -50 50 -14 0 -31 -5 -38 -12z"/>
<path d="M4042 2188 c-7 -7 -12 -24 -12 -38 0 -33 17 -50 50 -50 33 0 50 17
50 50 0 33 -17 50 -50 50 -14 0 -31 -5 -38 -12z"/>
<path d="M4152 2188 c-19 -19 -14 -66 7 -80 20 -12 20 -12 0 -26 -21 -15 -26
-61 -7 -80 17 -17 63 -15 77 2 19 22 9 69 -16 81 l-21 11 21 9 c25 11 35 59
16 81 -14 17 -60 19 -77 2z"/>
<path d="M4372 2188 c-7 -7 -12 -24 -12 -38 0 -33 17 -50 50 -50 33 0 50 17
50 50 0 33 -17 50 -50 50 -14 0 -31 -5 -38 -12z"/>
<path d="M4812 2188 c-7 -7 -12 -24 -12 -38 0 -33 17 -50 50 -50 33 0 50 17
50 50 0 33 -17 50 -50 50 -14 0 -31 -5 -38 -12z"/>
<path d="M1726 2069 c-24 -35 0 -79 43 -79 34 0 51 17 51 50 0 14 -5 31 -12
38 -19 19 -65 14 -82 -9z"/>
<path d="M1842 2078 c-7 -7 -12 -24 -12 -38 0 -14 5 -31 12 -38 7 -7 24 -12
38 -12 14 0 31 5 38 12 7 7 12 24 12 38 0 14 -5 31 -12 38 -7 7 -24 12 -38 12
-14 0 -31 -5 -38 -12z"/>
<path d="M1952 2078 c-7 -7 -12 -24 -12 -38 0 -14 5 -31 12 -38 7 -7 24 -12
38 -12 14 0 31 5 38 12 7 7 12 24 12 38 0 14 -5 31 -12 38 -7 7 -24 12 -38 12
-14 0 -31 -5 -38 -12z"/>
<path d="M2062 2078 c-7 -7 -12 -24 -12 -38 0 -14 5 -31 12 -38 7 -7 24 -12
38 -12 14 0 31 5 38 12 7 7 12 24 12 38 0 14 -5 31 -12 38 -7 7 -24 12 -38 12
-14 0 -31 -5 -38 -12z"/>
<path d="M2172 2078 c-7 -7 -12 -24 -12 -38 0 -14 5 -31 12 -38 7 -7 24 -12
38 -12 14 0 31 5 38 12 7 7 12 24 12 38 0 14 -5 31 -12 38 -7 7 -24 12 -38 12
-14 0 -31 -5 -38 -12z"/>
<path d="M2282 2078 c-7 -7 -12 -24 -12 -38 0 -14 5 -31 12 -38 7 -7 24 -12
38 -12 14 0 31 5 38 12 7 7 12 24 12 38 0 14 -5 31 -12 38 -7 7 -24 12 -38 12
-14 0 -31 -5 -38 -12z"/>
<path d="M2392 2078 c-7 -7 -12 -24 -12 -38 0 -14 5 -31 12 -38 7 -7 24 -12
38 -12 14 0 31 5 38 12 7 7 12 24 12 38 0 14 -5 31 -12 38 -7 7 -24 12 -38 12
-14 0 -31 -5 -38 -12z"/>
<path d="M2502 2078 c-7 -7 -12 -24 -12 -38 0 -14 5 -31 12 -38 7 -7 24 -12
38 -12 33 0 50 17 50 50 0 33 -17 50 -50 50 -14 0 -31 -5 -38 -12z"/>
<path d="M2612 2078 c-7 -7 -12 -24 -12 -38 0 -33 17 -50 50 -50 33 0 50 17
50 50 0 33 -17 50 -50 50 -14 0 -31 -5 -38 -12z"/>
<path d="M2722 2078 c-7 -7 -12 -24 -12 -38 0 -33 17 -50 50 -50 33 0 50 17
50 50 0 33 -17 50 -50 50 -14 0 -31 -5 -38 -12z"/>
<path d="M2832 2078 c-16 -16 -15 -63 2 -77 20 -17 67 -10 80 11 18 29 -4 72
-39 76 -17 2 -36 -3 -43 -10z"/>
<path d="M2942 2078 c-7 -7 -12 -24 -12 -38 0 -33 17 -50 50 -50 33 0 50 17
50 50 0 33 -17 50 -50 50 -14 0 -31 -5 -38 -12z"/>
<path d="M3052 2078 c-7 -7 -12 -24 -12 -38 0 -33 17 -50 50 -50 33 0 50 17
50 50 0 33 -17 50 -50 50 -14 0 -31 -5 -38 -12z"/>
<path d="M3162 2078 c-7 -7 -12 -24 -12 -38 0 -33 17 -50 50 -50 33 0 50 17
50 50 0 33 -17 50 -50 50 -14 0 -31 -5 -38 -12z"/>
<path d="M3382 2078 c-7 -7 -12 -24 -12 -38 0 -33 17 -50 50 -50 33 0 50 17
50 50 0 33 -17 50 -50 50 -14 0 -31 -5 -38 -12z"/>
<path d="M3602 2078 c-7 -7 -12 -24 -12 -38 0 -33 17 -50 50 -50 33 0 50 17
50 50 0 33 -17 50 -50 50 -14 0 -31 -5 -38 -12z"/>
<path d="M3712 2078 c-7 -7 -12 -24 -12 -38 0 -33 17 -50 50 -50 33 0 50 17
50 50 0 33 -17 50 -50 50 -14 0 -31 -5 -38 -12z"/>
<path d="M3822 2078 c-7 -7 -12 -24 -12 -38 0 -33 17 -50 50 -50 33 0 50 17
50 50 0 33 -17 50 -50 50 -14 0 -31 -5 -38 -12z"/>
<path d="M3932 2078 c-7 -7 -12 -24 -12 -38 0 -33 17 -50 50 -50 33 0 50 17
50 50 0 33 -17 50 -50 50 -14 0 -31 -5 -38 -12z"/>
<path d="M4042 2078 c-7 -7 -12 -24 -12 -38 0 -33 17 -50 50 -50 33 0 50 17
50 50 0 33 -17 50 -50 50 -14 0 -31 -5 -38 -12z"/>
<path d="M4372 2078 c-7 -7 -12 -24 -12 -38 0 -33 17 -50 50 -50 33 0 50 17
50 50 0 33 -17 50 -50 50 -14 0 -31 -5 -38 -12z"/>
<path d="M1622 1968 c-7 -7 -12 -24 -12 -38 0 -14 5 -31 12 -38 7 -7 24 -12
38 -12 14 0 31 5 38 12 7 7 12 24 12 38 0 14 -5 31 -12 38 -7 7 -24 12 -38 12
-14 0 -31 -5 -38 -12z"/>
<path d="M1732 1968 c-7 -7 -12 -24 -12 -38 0 -14 5 -31 12 -38 7 -7 24 -12
38 -12 14 0 31 5 38 12 7 7 12 24 12 38 0 14 -5 31 -12 38 -7 7 -24 12 -38 12
-14 0 -31 -5 -38 -12z"/>
<path d="M1842 1968 c-7 -7 -12 -24 -12 -38 0 -14 5 -31 12 -38 7 -7 24 -12
38 -12 14 0 31 5 38 12 7 7 12 24 12 38 0 14 -5 31 -12 38 -7 7 -24 12 -38 12
-14 0 -31 -5 -38 -12z"/>
<path d="M1952 1968 c-7 -7 -12 -24 -12 -38 0 -14 5 -31 12 -38 7 -7 24 -12
38 -12 14 0 31 5 38 12 7 7 12 24 12 38 0 14 -5 31 -12 38 -7 7 -24 12 -38 12
-14 0 -31 -5 -38 -12z"/>
<path d="M2062 1968 c-7 -7 -12 -24 -12 -38 0 -14 5 -31 12 -38 7 -7 24 -12
38 -12 14 0 31 5 38 12 7 7 12 24 12 38 0 14 -5 31 -12 38 -7 7 -24 12 -38 12
-14 0 -31 -5 -38 -12z"/>
<path d="M2172 1968 c-7 -7 -12 -24 -12 -38 0 -14 5 -31 12 -38 7 -7 24 -12
38 -12 14 0 31 5 38 12 7 7 12 24 12 38 0 14 -5 31 -12 38 -7 7 -24 12 -38 12
-14 0 -31 -5 -38 -12z"/>
<path d="M2282 1968 c-7 -7 -12 -24 -12 -38 0 -14 5 -31 12 -38 7 -7 24 -12
38 -12 14 0 31 5 38 12 7 7 12 24 12 38 0 14 -5 31 -12 38 -7 7 -24 12 -38 12
-14 0 -31 -5 -38 -12z"/>
<path d="M2392 1968 c-7 -7 -12 -24 -12 -38 0 -14 5 -31 12 -38 7 -7 24 -12
38 -12 14 0 31 5 38 12 7 7 12 24 12 38 0 14 -5 31 -12 38 -7 7 -24 12 -38 12
-14 0 -31 -5 -38 -12z"/>
<path d="M2502 1968 c-7 -7 -12 -24 -12 -38 0 -14 5 -31 12 -38 7 -7 24 -12
38 -12 33 0 50 17 50 50 0 33 -17 50 -50 50 -14 0 -31 -5 -38 -12z"/>
<path d="M3046 1959 c-24 -35 0 -79 43 -79 34 0 51 17 51 50 0 14 -5 31 -12
38 -19 19 -65 14 -82 -9z"/>
<path d="M3162 1968 c-7 -7 -12 -24 -12 -38 0 -33 17 -50 50 -50 33 0 50 17
50 50 0 33 -17 50 -50 50 -14 0 -31 -5 -38 -12z"/>
<path d="M3272 1968 c-7 -7 -12 -24 -12 -38 0 -33 17 -50 50 -50 33 0 50 17
50 50 0 33 -17 50 -50 50 -14 0 -31 -5 -38 -12z"/>
<path d="M3382 1968 c-7 -7 -12 -24 -12 -38 0 -33 17 -50 50 -50 33 0 50 17
50 50 0 33 -17 50 -50 50 -14 0 -31 -5 -38 -12z"/>
<path d="M3712 1968 c-7 -7 -12 -24 -12 -38 0 -33 17 -50 50 -50 33 0 50 17
50 50 0 33 -17 50 -50 50 -14 0 -31 -5 -38 -12z"/>
<path d="M632 1858 c-15 -15 -15 -61 0 -76 7 -7 24 -12 38 -12 33 0 50 17 50
50 0 33 -17 50 -50 50 -14 0 -31 -5 -38 -12z"/>
<path d="M1402 1858 c-7 -7 -12 -24 -12 -38 0 -14 5 -31 12 -38 7 -7 24 -12
38 -12 14 0 31 5 38 12 7 7 12 24 12 38 0 14 -5 31 -12 38 -7 7 -24 12 -38 12
-14 0 -31 -5 -38 -12z"/>
<path d="M1512 1858 c-7 -7 -12 -24 -12 -38 0 -14 5 -31 12 -38 7 -7 24 -12
38 -12 14 0 31 5 38 12 7 7 12 24 12 38 0 14 -5 31 -12 38 -7 7 -24 12 -38 12
-14 0 -31 -5 -38 -12z"/>
<path d="M1622 1858 c-7 -7 -12 -24 -12 -38 0 -14 5 -31 12 -38 7 -7 24 -12
38 -12 14 0 31 5 38 12 7 7 12 24 12 38 0 14 -5 31 -12 38 -7 7 -24 12 -38 12
-14 0 -31 -5 -38 -12z"/>
<path d="M1732 1858 c-7 -7 -12 -24 -12 -38 0 -14 5 -31 12 -38 7 -7 24 -12
38 -12 14 0 31 5 38 12 7 7 12 24 12 38 0 14 -5 31 -12 38 -7 7 -24 12 -38 12
-14 0 -31 -5 -38 -12z"/>
<path d="M1842 1858 c-7 -7 -12 -24 -12 -38 0 -14 5 -31 12 -38 7 -7 24 -12
38 -12 14 0 31 5 38 12 7 7 12 24 12 38 0 14 -5 31 -12 38 -7 7 -24 12 -38 12
-14 0 -31 -5 -38 -12z"/>
<path d="M1952 1858 c-7 -7 -12 -24 -12 -38 0 -14 5 -31 12 -38 7 -7 24 -12
38 -12 14 0 31 5 38 12 7 7 12 24 12 38 0 14 -5 31 -12 38 -7 7 -24 12 -38 12
-14 0 -31 -5 -38 -12z"/>
<path d="M2062 1858 c-7 -7 -12 -24 -12 -38 0 -14 5 -31 12 -38 7 -7 24 -12
38 -12 14 0 31 5 38 12 7 7 12 24 12 38 0 14 -5 31 -12 38 -7 7 -24 12 -38 12
-14 0 -31 -5 -38 -12z"/>
<path d="M3052 1858 c-7 -7 -12 -24 -12 -38 0 -33 17 -50 50 -50 33 0 50 17
50 50 0 33 -17 50 -50 50 -14 0 -31 -5 -38 -12z"/>
<path d="M3162 1858 c-7 -7 -12 -24 -12 -38 0 -33 17 -50 50 -50 33 0 50 17
50 50 0 33 -17 50 -50 50 -14 0 -31 -5 -38 -12z"/>
<path d="M3272 1858 c-7 -7 -12 -24 -12 -38 0 -33 17 -50 50 -50 33 0 50 17
50 50 0 33 -17 50 -50 50 -14 0 -31 -5 -38 -12z"/>
<path d="M3382 1858 c-7 -7 -12 -24 -12 -38 0 -33 17 -50 50 -50 33 0 50 17
50 50 0 33 -17 50 -50 50 -14 0 -31 -5 -38 -12z"/>
<path d="M3492 1858 c-7 -7 -12 -24 -12 -38 0 -33 17 -50 50 -50 33 0 50 17
50 50 0 33 -17 50 -50 50 -14 0 -31 -5 -38 -12z"/>
<path d="M632 1748 c-15 -15 -15 -61 0 -76 7 -7 24 -12 38 -12 33 0 50 17 50
50 0 33 -17 50 -50 50 -14 0 -31 -5 -38 -12z"/>
<path d="M1292 1748 c-7 -7 -12 -24 -12 -38 0 -14 5 -31 12 -38 7 -7 24 -12
38 -12 14 0 31 5 38 12 7 7 12 24 12 38 0 14 -5 31 -12 38 -7 7 -24 12 -38 12
-14 0 -31 -5 -38 -12z"/>
<path d="M1402 1748 c-7 -7 -12 -24 -12 -38 0 -14 5 -31 12 -38 7 -7 24 -12
38 -12 14 0 31 5 38 12 7 7 12 24 12 38 0 14 -5 31 -12 38 -7 7 -24 12 -38 12
-14 0 -31 -5 -38 -12z"/>
<path d="M1512 1748 c-7 -7 -12 -24 -12 -38 0 -14 5 -31 12 -38 7 -7 24 -12
38 -12 14 0 31 5 38 12 7 7 12 24 12 38 0 14 -5 31 -12 38 -7 7 -24 12 -38 12
-14 0 -31 -5 -38 -12z"/>
<path d="M1622 1748 c-7 -7 -12 -24 -12 -38 0 -14 5 -31 12 -38 7 -7 24 -12
38 -12 14 0 31 5 38 12 7 7 12 24 12 38 0 14 -5 31 -12 38 -7 7 -24 12 -38 12
-14 0 -31 -5 -38 -12z"/>
<path d="M1732 1748 c-7 -7 -12 -24 -12 -38 0 -14 5 -31 12 -38 7 -7 24 -12
38 -12 14 0 31 5 38 12 7 7 12 24 12 38 0 14 -5 31 -12 38 -7 7 -24 12 -38 12
-14 0 -31 -5 -38 -12z"/>
<path d="M2062 1748 c-7 -7 -12 -24 -12 -38 0 -14 5 -31 12 -38 7 -7 24 -12
38 -12 14 0 31 5 38 12 7 7 12 24 12 38 0 14 -5 31 -12 38 -7 7 -24 12 -38 12
-14 0 -31 -5 -38 -12z"/>
<path d="M2392 1748 c-7 -7 -12 -24 -12 -38 0 -14 5 -31 12 -38 7 -7 24 -12
38 -12 14 0 31 5 38 12 7 7 12 24 12 38 0 14 -5 31 -12 38 -7 7 -24 12 -38 12
-14 0 -31 -5 -38 -12z"/>
<path d="M2502 1748 c-7 -7 -12 -24 -12 -38 0 -14 5 -31 12 -38 7 -7 24 -12
38 -12 33 0 50 17 50 50 0 33 -17 50 -50 50 -14 0 -31 -5 -38 -12z"/>
<path d="M2612 1748 c-7 -7 -12 -24 -12 -38 0 -33 17 -50 50 -50 33 0 50 17
50 50 0 33 -17 50 -50 50 -14 0 -31 -5 -38 -12z"/>
<path d="M2942 1748 c-7 -7 -12 -24 -12 -38 0 -33 17 -50 50 -50 33 0 50 17
50 50 0 33 -17 50 -50 50 -14 0 -31 -5 -38 -12z"/>
<path d="M3052 1748 c-7 -7 -12 -24 -12 -38 0 -33 17 -50 50 -50 33 0 50 17
50 50 0 33 -17 50 -50 50 -14 0 -31 -5 -38 -12z"/>
<path d="M3162 1748 c-7 -7 -12 -24 -12 -38 0 -33 17 -50 50 -50 33 0 50 17
50 50 0 33 -17 50 -50 50 -14 0 -31 -5 -38 -12z"/>
<path d="M3272 1748 c-7 -7 -12 -24 -12 -38 0 -33 17 -50 50 -50 33 0 50 17
50 50 0 33 -17 50 -50 50 -14 0 -31 -5 -38 -12z"/>
<path d="M1182 1638 c-15 -15 -15 -61 0 -76 7 -7 24 -12 38 -12 33 0 50 17 50
50 0 33 -17 50 -50 50 -14 0 -31 -5 -38 -12z"/>
<path d="M1292 1638 c-7 -7 -12 -24 -12 -38 0 -14 5 -31 12 -38 7 -7 24 -12
38 -12 14 0 31 5 38 12 7 7 12 24 12 38 0 14 -5 31 -12 38 -7 7 -24 12 -38 12
-14 0 -31 -5 -38 -12z"/>
<path d="M1732 1638 c-7 -7 -12 -24 -12 -38 0 -14 5 -31 12 -38 7 -7 24 -12
38 -12 14 0 31 5 38 12 7 7 12 24 12 38 0 14 -5 31 -12 38 -7 7 -24 12 -38 12
-14 0 -31 -5 -38 -12z"/>
<path d="M1842 1638 c-7 -7 -12 -24 -12 -38 0 -14 5 -31 12 -38 7 -7 24 -12
38 -12 14 0 31 5 38 12 7 7 12 24 12 38 0 14 -5 31 -12 38 -7 7 -24 12 -38 12
-14 0 -31 -5 -38 -12z"/>
<path d="M2062 1638 c-7 -7 -12 -24 -12 -38 0 -14 5 -31 12 -38 7 -7 24 -12
38 -12 14 0 31 5 38 12 7 7 12 24 12 38 0 14 -5 31 -12 38 -7 7 -24 12 -38 12
-14 0 -31 -5 -38 -12z"/>
<path d="M2172 1638 c-7 -7 -12 -24 -12 -38 0 -14 5 -31 12 -38 7 -7 24 -12
38 -12 14 0 31 5 38 12 7 7 12 24 12 38 0 14 -5 31 -12 38 -7 7 -24 12 -38 12
-14 0 -31 -5 -38 -12z"/>
<path d="M2282 1638 c-7 -7 -12 -24 -12 -38 0 -14 5 -31 12 -38 7 -7 24 -12
38 -12 14 0 31 5 38 12 7 7 12 24 12 38 0 14 -5 31 -12 38 -7 7 -24 12 -38 12
-14 0 -31 -5 -38 -12z"/>
<path d="M2392 1638 c-7 -7 -12 -24 -12 -38 0 -14 5 -31 12 -38 7 -7 24 -12
38 -12 14 0 31 5 38 12 7 7 12 24 12 38 0 14 -5 31 -12 38 -7 7 -24 12 -38 12
-14 0 -31 -5 -38 -12z"/>
<path d="M2502 1638 c-7 -7 -12 -24 -12 -38 0 -14 5 -31 12 -38 7 -7 24 -12
38 -12 33 0 50 17 50 50 0 33 -17 50 -50 50 -14 0 -31 -5 -38 -12z"/>
<path d="M2612 1638 c-7 -7 -12 -24 -12 -38 0 -33 17 -50 50 -50 33 0 50 17
50 50 0 33 -17 50 -50 50 -14 0 -31 -5 -38 -12z"/>
<path d="M2722 1638 c-7 -7 -12 -24 -12 -38 0 -33 17 -50 50 -50 33 0 50 17
50 50 0 33 -17 50 -50 50 -14 0 -31 -5 -38 -12z"/>
<path d="M2942 1638 c-7 -7 -12 -24 -12 -38 0 -33 17 -50 50 -50 33 0 50 17
50 50 0 33 -17 50 -50 50 -14 0 -31 -5 -38 -12z"/>
<path d="M3052 1638 c-7 -7 -12 -24 -12 -38 0 -33 17 -50 50 -50 33 0 50 17
50 50 0 33 -17 50 -50 50 -14 0 -31 -5 -38 -12z"/>
<path d="M3162 1638 c-7 -7 -12 -24 -12 -38 0 -33 17 -50 50 -50 33 0 50 17
50 50 0 33 -17 50 -50 50 -14 0 -31 -5 -38 -12z"/>
<path d="M3272 1638 c-7 -7 -12 -24 -12 -38 0 -33 17 -50 50 -50 33 0 50 17
50 50 0 33 -17 50 -50 50 -14 0 -31 -5 -38 -12z"/>
<path d="M1182 1528 c-15 -15 -15 -61 0 -76 7 -7 24 -12 38 -12 33 0 50 17 50
50 0 33 -17 50 -50 50 -14 0 -31 -5 -38 -12z"/>
<path d="M1292 1528 c-7 -7 -12 -24 -12 -38 0 -14 5 -31 12 -38 7 -7 24 -12
38 -12 14 0 31 5 38 12 7 7 12 24 12 38 0 14 -5 31 -12 38 -7 7 -24 12 -38 12
-14 0 -31 -5 -38 -12z"/>
<path d="M1512 1528 c-7 -7 -12 -24 -12 -38 0 -14 5 -31 12 -38 7 -7 24 -12
38 -12 14 0 31 5 38 12 7 7 12 24 12 38 0 14 -5 31 -12 38 -7 7 -24 12 -38 12
-14 0 -31 -5 -38 -12z"/>
<path d="M1952 1528 c-7 -7 -12 -24 -12 -38 0 -14 5 -31 12 -38 7 -7 24 -12
38 -12 14 0 31 5 38 12 7 7 12 24 12 38 0 14 -5 31 -12 38 -7 7 -24 12 -38 12
-14 0 -31 -5 -38 -12z"/>
<path d="M2062 1528 c-7 -7 -12 -24 -12 -38 0 -14 5 -31 12 -38 7 -7 24 -12
38 -12 14 0 31 5 38 12 7 7 12 24 12 38 0 14 -5 31 -12 38 -7 7 -24 12 -38 12
-14 0 -31 -5 -38 -12z"/>
<path d="M2172 1528 c-7 -7 -12 -24 -12 -38 0 -14 5 -31 12 -38 7 -7 24 -12
38 -12 14 0 31 5 38 12 7 7 12 24 12 38 0 14 -5 31 -12 38 -7 7 -24 12 -38 12
-14 0 -31 -5 -38 -12z"/>
<path d="M2282 1528 c-7 -7 -12 -24 -12 -38 0 -14 5 -31 12 -38 7 -7 24 -12
38 -12 14 0 31 5 38 12 7 7 12 24 12 38 0 14 -5 31 -12 38 -7 7 -24 12 -38 12
-14 0 -31 -5 -38 -12z"/>
<path d="M2392 1528 c-7 -7 -12 -24 -12 -38 0 -14 5 -31 12 -38 7 -7 24 -12
38 -12 14 0 31 5 38 12 7 7 12 24 12 38 0 14 -5 31 -12 38 -7 7 -24 12 -38 12
-14 0 -31 -5 -38 -12z"/>
<path d="M2502 1528 c-7 -7 -12 -24 -12 -38 0 -14 5 -31 12 -38 7 -7 24 -12
38 -12 33 0 50 17 50 50 0 33 -17 50 -50 50 -14 0 -31 -5 -38 -12z"/>
<path d="M2612 1528 c-7 -7 -12 -24 -12 -38 0 -33 17 -50 50 -50 33 0 50 17
50 50 0 33 -17 50 -50 50 -14 0 -31 -5 -38 -12z"/>
<path d="M3052 1528 c-7 -7 -12 -24 -12 -38 0 -33 17 -50 50 -50 33 0 50 17
50 50 0 33 -17 50 -50 50 -14 0 -31 -5 -38 -12z"/>
<path d="M3162 1528 c-7 -7 -12 -24 -12 -38 0 -33 17 -50 50 -50 33 0 50 17
50 50 0 33 -17 50 -50 50 -14 0 -31 -5 -38 -12z"/>
<path d="M852 1418 c-15 -15 -15 -61 0 -76 7 -7 24 -12 38 -12 33 0 50 17 50
50 0 33 -17 50 -50 50 -14 0 -31 -5 -38 -12z"/>
<path d="M962 1418 c-15 -15 -15 -61 0 -76 7 -7 24 -12 38 -12 33 0 50 17 50
50 0 33 -17 50 -50 50 -14 0 -31 -5 -38 -12z"/>
<path d="M1072 1418 c-15 -15 -15 -61 0 -76 7 -7 24 -12 38 -12 33 0 50 17 50
50 0 33 -17 50 -50 50 -14 0 -31 -5 -38 -12z"/>
<path d="M1182 1418 c-15 -15 -15 -61 0 -76 7 -7 24 -12 38 -12 33 0 50 17 50
50 0 33 -17 50 -50 50 -14 0 -31 -5 -38 -12z"/>
<path d="M1292 1418 c-7 -7 -12 -24 -12 -38 0 -14 5 -31 12 -38 7 -7 24 -12
38 -12 14 0 31 5 38 12 7 7 12 24 12 38 0 14 -5 31 -12 38 -7 7 -24 12 -38 12
-14 0 -31 -5 -38 -12z"/>
<path d="M1402 1418 c-7 -7 -12 -24 -12 -38 0 -14 5 -31 12 -38 7 -7 24 -12
38 -12 14 0 31 5 38 12 7 7 12 24 12 38 0 14 -5 31 -12 38 -7 7 -24 12 -38 12
-14 0 -31 -5 -38 -12z"/>
<path d="M1512 1418 c-7 -7 -12 -24 -12 -38 0 -14 5 -31 12 -38 7 -7 24 -12
38 -12 14 0 31 5 38 12 7 7 12 24 12 38 0 14 -5 31 -12 38 -7 7 -24 12 -38 12
-14 0 -31 -5 -38 -12z"/>
<path d="M1952 1418 c-7 -7 -12 -24 -12 -38 0 -14 5 -31 12 -38 7 -7 24 -12
38 -12 14 0 31 5 38 12 7 7 12 24 12 38 0 14 -5 31 -12 38 -7 7 -24 12 -38 12
-14 0 -31 -5 -38 -12z"/>
<path d="M2062 1418 c-7 -7 -12 -24 -12 -38 0 -14 5 -31 12 -38 7 -7 24 -12
38 -12 14 0 31 5 38 12 7 7 12 24 12 38 0 14 -5 31 -12 38 -7 7 -24 12 -38 12
-14 0 -31 -5 -38 -12z"/>
<path d="M2172 1418 c-7 -7 -12 -24 -12 -38 0 -14 5 -31 12 -38 7 -7 24 -12
38 -12 14 0 31 5 38 12 7 7 12 24 12 38 0 14 -5 31 -12 38 -7 7 -24 12 -38 12
-14 0 -31 -5 -38 -12z"/>
<path d="M2502 1418 c-7 -7 -12 -24 -12 -38 0 -14 5 -31 12 -38 7 -7 24 -12
38 -12 33 0 50 17 50 50 0 33 -17 50 -50 50 -14 0 -31 -5 -38 -12z"/>
<path d="M852 1308 c-15 -15 -15 -61 0 -76 7 -7 24 -12 38 -12 14 0 31 5 38
12 7 7 12 24 12 38 0 33 -17 50 -50 50 -14 0 -31 -5 -38 -12z"/>
<path d="M962 1308 c-15 -15 -15 -61 0 -76 7 -7 24 -12 38 -12 14 0 31 5 38
12 7 7 12 24 12 38 0 33 -17 50 -50 50 -14 0 -31 -5 -38 -12z"/>
<path d="M1072 1308 c-15 -15 -15 -61 0 -76 7 -7 24 -12 38 -12 14 0 31 5 38
12 7 7 12 24 12 38 0 33 -17 50 -50 50 -14 0 -31 -5 -38 -12z"/>
<path d="M1182 1308 c-15 -15 -15 -61 0 -76 7 -7 24 -12 38 -12 14 0 31 5 38
12 7 7 12 24 12 38 0 33 -17 50 -50 50 -14 0 -31 -5 -38 -12z"/>
<path d="M1292 1308 c-7 -7 -12 -24 -12 -38 0 -33 17 -50 50 -50 33 0 50 17
50 50 0 14 -5 31 -12 38 -7 7 -24 12 -38 12 -14 0 -31 -5 -38 -12z"/>
<path d="M1402 1308 c-7 -7 -12 -24 -12 -38 0 -33 17 -50 50 -50 33 0 50 17
50 50 0 14 -5 31 -12 38 -7 7 -24 12 -38 12 -14 0 -31 -5 -38 -12z"/>
<path d="M1512 1308 c-7 -7 -12 -24 -12 -38 0 -33 17 -50 50 -50 33 0 50 17
50 50 0 14 -5 31 -12 38 -7 7 -24 12 -38 12 -14 0 -31 -5 -38 -12z"/>
<path d="M1622 1308 c-7 -7 -12 -24 -12 -38 0 -33 17 -50 50 -50 33 0 50 17
50 50 0 14 -5 31 -12 38 -7 7 -24 12 -38 12 -14 0 -31 -5 -38 -12z"/>
<path d="M1952 1308 c-7 -7 -12 -24 -12 -38 0 -33 17 -50 50 -50 33 0 50 17
50 50 0 14 -5 31 -12 38 -7 7 -24 12 -38 12 -14 0 -31 -5 -38 -12z"/>
<path d="M2062 1308 c-7 -7 -12 -24 -12 -38 0 -33 17 -50 50 -50 33 0 50 17
50 50 0 14 -5 31 -12 38 -7 7 -24 12 -38 12 -14 0 -31 -5 -38 -12z"/>
<path d="M2172 1308 c-7 -7 -12 -24 -12 -38 0 -33 17 -50 50 -50 33 0 50 17
50 50 0 14 -5 31 -12 38 -7 7 -24 12 -38 12 -14 0 -31 -5 -38 -12z"/>
<path d="M852 1198 c-15 -15 -15 -61 0 -76 7 -7 24 -12 38 -12 14 0 31 5 38
12 7 7 12 24 12 38 0 14 -5 31 -12 38 -15 15 -61 15 -76 0z"/>
<path d="M962 1198 c-15 -15 -15 -61 0 -76 7 -7 24 -12 38 -12 14 0 31 5 38
12 7 7 12 24 12 38 0 14 -5 31 -12 38 -15 15 -61 15 -76 0z"/>
<path d="M1182 1198 c-15 -15 -15 -61 0 -76 7 -7 24 -12 38 -12 14 0 31 5 38
12 7 7 12 24 12 38 0 14 -5 31 -12 38 -15 15 -61 15 -76 0z"/>
<path d="M1292 1198 c-7 -7 -12 -24 -12 -38 0 -33 17 -50 50 -50 33 0 50 17
50 50 0 14 -5 31 -12 38 -15 15 -61 15 -76 0z"/>
<path d="M1402 1198 c-7 -7 -12 -24 -12 -38 0 -33 17 -50 50 -50 33 0 50 17
50 50 0 14 -5 31 -12 38 -15 15 -61 15 -76 0z"/>
<path d="M1512 1198 c-7 -7 -12 -24 -12 -38 0 -33 17 -50 50 -50 33 0 50 17
50 50 0 14 -5 31 -12 38 -15 15 -61 15 -76 0z"/>
<path d="M1622 1198 c-7 -7 -12 -24 -12 -38 0 -33 17 -50 50 -50 33 0 50 17
50 50 0 14 -5 31 -12 38 -15 15 -61 15 -76 0z"/>
<path d="M1732 1198 c-7 -7 -12 -24 -12 -38 0 -33 17 -50 50 -50 33 0 50 17
50 50 0 14 -5 31 -12 38 -15 15 -61 15 -76 0z"/>
<path d="M1952 1198 c-7 -7 -12 -24 -12 -38 0 -33 17 -50 50 -50 33 0 50 17
50 50 0 14 -5 31 -12 38 -15 15 -61 15 -76 0z"/>
<path d="M2062 1198 c-7 -7 -12 -24 -12 -38 0 -33 17 -50 50 -50 33 0 50 17
50 50 0 14 -5 31 -12 38 -15 15 -61 15 -76 0z"/>
<path d="M412 1088 c-7 -7 -12 -24 -12 -38 0 -33 17 -50 50 -50 33 0 50 17 50
50 0 14 -5 31 -12 38 -15 15 -61 15 -76 0z"/>
<path d="M1072 1088 c-15 -15 -15 -61 0 -76 7 -7 24 -12 38 -12 14 0 31 5 38
12 7 7 12 24 12 38 0 14 -5 31 -12 38 -15 15 -61 15 -76 0z"/>
<path d="M1182 1088 c-15 -15 -15 -61 0 -76 7 -7 24 -12 38 -12 14 0 31 5 38
12 7 7 12 24 12 38 0 14 -5 31 -12 38 -15 15 -61 15 -76 0z"/>
<path d="M1292 1088 c-7 -7 -12 -24 -12 -38 0 -33 17 -50 50 -50 33 0 50 17
50 50 0 14 -5 31 -12 38 -15 15 -61 15 -76 0z"/>
<path d="M1402 1088 c-7 -7 -12 -24 -12 -38 0 -33 17 -50 50 -50 33 0 50 17
50 50 0 14 -5 31 -12 38 -15 15 -61 15 -76 0z"/>
<path d="M1512 1088 c-7 -7 -12 -24 -12 -38 0 -33 17 -50 50 -50 33 0 50 17
50 50 0 14 -5 31 -12 38 -15 15 -61 15 -76 0z"/>
<path d="M1622 1088 c-7 -7 -12 -24 -12 -38 0 -33 17 -50 50 -50 33 0 50 17
50 50 0 14 -5 31 -12 38 -15 15 -61 15 -76 0z"/>
<path d="M962 978 c-15 -15 -15 -61 0 -76 7 -7 24 -12 38 -12 14 0 31 5 38 12
7 7 12 24 12 38 0 14 -5 31 -12 38 -15 15 -61 15 -76 0z"/>
<path d="M1072 978 c-15 -15 -15 -61 0 -76 7 -7 24 -12 38 -12 14 0 31 5 38
12 7 7 12 24 12 38 0 14 -5 31 -12 38 -15 15 -61 15 -76 0z"/>
<path d="M1182 978 c-15 -15 -15 -61 0 -76 7 -7 24 -12 38 -12 14 0 31 5 38
12 7 7 12 24 12 38 0 14 -5 31 -12 38 -15 15 -61 15 -76 0z"/>
<path d="M1292 978 c-7 -7 -12 -24 -12 -38 0 -33 17 -50 50 -50 33 0 50 17 50
50 0 14 -5 31 -12 38 -15 15 -61 15 -76 0z"/>
<path d="M1402 978 c-7 -7 -12 -24 -12 -38 0 -33 17 -50 50 -50 33 0 50 17 50
50 0 14 -5 31 -12 38 -15 15 -61 15 -76 0z"/>
<path d="M1512 978 c-7 -7 -12 -24 -12 -38 0 -33 17 -50 50 -50 33 0 50 17 50
50 0 14 -5 31 -12 38 -15 15 -61 15 -76 0z"/>
<path d="M962 868 c-15 -15 -15 -61 0 -76 7 -7 24 -12 38 -12 14 0 31 5 38 12
7 7 12 24 12 38 0 14 -5 31 -12 38 -15 15 -61 15 -76 0z"/>
<path d="M1182 868 c-15 -15 -15 -61 0 -76 7 -7 24 -12 38 -12 14 0 31 5 38
12 7 7 12 24 12 38 0 14 -5 31 -12 38 -15 15 -61 15 -76 0z"/>
<path d="M1292 868 c-7 -7 -12 -24 -12 -38 0 -33 17 -50 50 -50 33 0 50 17 50
50 0 14 -5 31 -12 38 -15 15 -61 15 -76 0z"/>
<path d="M1402 868 c-7 -7 -12 -24 -12 -38 0 -33 17 -50 50 -50 33 0 50 17 50
50 0 14 -5 31 -12 38 -15 15 -61 15 -76 0z"/>
<path d="M1512 868 c-7 -7 -12 -24 -12 -38 0 -33 17 -50 50 -50 33 0 50 17 50
50 0 14 -5 31 -12 38 -15 15 -61 15 -76 0z"/>
<path d="M1072 758 c-15 -15 -15 -61 0 -76 7 -7 24 -12 38 -12 14 0 31 5 38
12 7 7 12 24 12 38 0 14 -5 31 -12 38 -15 15 -61 15 -76 0z"/>
<path d="M1182 758 c-15 -15 -15 -61 0 -76 7 -7 24 -12 38 -12 14 0 31 5 38
12 7 7 12 24 12 38 0 14 -5 31 -12 38 -15 15 -61 15 -76 0z"/>
<path d="M1292 758 c-7 -7 -12 -24 -12 -38 0 -33 17 -50 50 -50 33 0 50 17 50
50 0 14 -5 31 -12 38 -15 15 -61 15 -76 0z"/>
<path d="M1402 758 c-7 -7 -12 -24 -12 -38 0 -33 17 -50 50 -50 33 0 50 17 50
50 0 14 -5 31 -12 38 -15 15 -61 15 -76 0z"/>
<path d="M1072 648 c-15 -15 -15 -61 0 -76 7 -7 24 -12 38 -12 33 0 50 17 50
50 0 33 -17 50 -50 50 -14 0 -31 -5 -38 -12z"/>
<path d="M1182 648 c-15 -15 -15 -61 0 -76 7 -7 24 -12 38 -12 33 0 50 17 50
50 0 33 -17 50 -50 50 -14 0 -31 -5 -38 -12z"/>
<path d="M1292 648 c-7 -7 -12 -24 -12 -38 0 -33 17 -50 50 -50 33 0 50 17 50
50 0 33 -17 50 -50 50 -14 0 -31 -5 -38 -12z"/>
<path d="M1402 648 c-7 -7 -12 -24 -12 -38 0 -33 17 -50 50 -50 33 0 50 17 50
50 0 33 -17 50 -50 50 -14 0 -31 -5 -38 -12z"/>
<path d="M1072 538 c-15 -15 -15 -61 0 -76 7 -7 24 -12 38 -12 33 0 50 17 50
50 0 33 -17 50 -50 50 -14 0 -31 -5 -38 -12z"/>
<path d="M1292 538 c-7 -7 -12 -24 -12 -38 0 -33 17 -50 50 -50 33 0 50 17 50
50 0 33 -17 50 -50 50 -14 0 -31 -5 -38 -12z"/>
<path d="M1402 538 c-7 -7 -12 -24 -12 -38 0 -33 17 -50 50 -50 33 0 50 17 50
50 0 33 -17 50 -50 50 -14 0 -31 -5 -38 -12z"/>
<path d="M1072 428 c-15 -15 -15 -61 0 -76 7 -7 24 -12 38 -12 33 0 50 17 50
50 0 33 -17 50 -50 50 -14 0 -31 -5 -38 -12z"/>
<path d="M1182 428 c-15 -15 -15 -61 0 -76 7 -7 24 -12 38 -12 33 0 50 17 50
50 0 33 -17 50 -50 50 -14 0 -31 -5 -38 -12z"/>
<path d="M1292 428 c-7 -7 -12 -24 -12 -38 0 -33 17 -50 50 -50 33 0 50 17 50
50 0 33 -17 50 -50 50 -14 0 -31 -5 -38 -12z"/>
<path d="M1182 318 c-15 -15 -15 -61 0 -76 15 -15 61 -15 76 0 7 7 12 24 12
38 0 33 -17 50 -50 50 -14 0 -31 -5 -38 -12z"/>
<path d="M1292 98 c-7 -7 -12 -24 -12 -38 0 -33 17 -50 50 -50 33 0 50 17 50
50 0 33 -17 50 -50 50 -14 0 -31 -5 -38 -12z"/>
</g>
</svg>
