<svg id="Calque_1" data-name="Calque 1" xmlns="http://www.w3.org/2000/svg" viewBox="0 0 659 736.01">
  <defs>
    <style>
      .cls-1 {
        fill: #fff;
        stroke: #000;
        stroke-width: 0.01px;
      }
    </style>
  </defs>
  <title>japanMap</title>
  <g>
    <circle class="cls-1" cx="510.99" cy="5" r="5"/>
    <circle class="cls-1" cx="521.99" cy="5" r="5"/>
    <circle class="cls-1" cx="489" cy="16" r="5"/>
    <circle class="cls-1" cx="510.99" cy="16" r="5"/>
    <circle class="cls-1" cx="521.99" cy="16" r="5"/>
    <circle class="cls-1" cx="532.99" cy="16" r="5"/>
    <circle class="cls-1" cx="510.99" cy="27" r="5"/>
    <circle class="cls-1" cx="521.99" cy="27" r="5"/>
    <circle class="cls-1" cx="532.99" cy="27" r="5"/>
    <circle class="cls-1" cx="510.99" cy="38" r="5"/>
    <circle class="cls-1" cx="521.99" cy="38" r="5"/>
    <circle class="cls-1" cx="532.99" cy="38" r="5"/>
    <circle class="cls-1" cx="543.99" cy="38" r="5"/>
    <circle class="cls-1" cx="510.99" cy="48.99" r="5"/>
    <circle class="cls-1" cx="521.99" cy="48.99" r="5"/>
    <circle class="cls-1" cx="532.99" cy="48.99" r="5"/>
    <circle class="cls-1" cx="543.99" cy="48.99" r="5"/>
    <circle class="cls-1" cx="555" cy="48.99" r="5"/>
    <circle class="cls-1" cx="510.99" cy="59.99" r="5"/>
    <circle class="cls-1" cx="521.99" cy="59.99" r="5"/>
    <circle class="cls-1" cx="532.99" cy="59.99" r="5"/>
    <circle class="cls-1" cx="543.99" cy="59.99" r="5"/>
    <circle class="cls-1" cx="555" cy="59.99" r="5"/>
    <circle class="cls-1" cx="566" cy="59.99" r="5"/>
    <circle class="cls-1" cx="510.99" cy="71.01" r="5"/>
    <circle class="cls-1" cx="521.99" cy="71.01" r="5"/>
    <circle class="cls-1" cx="532.99" cy="71.01" r="5"/>
    <circle class="cls-1" cx="543.99" cy="71.01" r="5"/>
    <circle class="cls-1" cx="555" cy="71.01" r="5"/>
    <circle class="cls-1" cx="566" cy="71.01" r="5"/>
    <circle class="cls-1" cx="577" cy="71.01" r="5"/>
    <circle class="cls-1" cx="588" cy="71.01" r="5"/>
    <circle class="cls-1" cx="598.99" cy="71.01" r="5"/>
    <circle class="cls-1" cx="643" cy="71.01" r="5"/>
    <circle class="cls-1" cx="510.99" cy="82.01" r="5"/>
    <circle class="cls-1" cx="521.99" cy="82.01" r="5"/>
    <circle class="cls-1" cx="532.99" cy="82.01" r="5"/>
    <circle class="cls-1" cx="543.99" cy="82.01" r="5"/>
    <circle class="cls-1" cx="555" cy="82.01" r="5"/>
    <circle class="cls-1" cx="566" cy="82.01" r="5"/>
    <circle class="cls-1" cx="577" cy="82.01" r="5"/>
    <circle class="cls-1" cx="588" cy="82.01" r="5"/>
    <circle class="cls-1" cx="598.99" cy="82.01" r="5"/>
    <circle class="cls-1" cx="609.99" cy="82.01" r="5"/>
    <circle class="cls-1" cx="620.99" cy="82.01" r="5"/>
    <circle class="cls-1" cx="632" cy="82.01" r="5"/>
    <circle class="cls-1" cx="500" cy="93" r="5"/>
    <circle class="cls-1" cx="510.99" cy="93" r="5"/>
    <circle class="cls-1" cx="521.99" cy="93" r="5"/>
    <circle class="cls-1" cx="532.99" cy="93" r="5"/>
    <circle class="cls-1" cx="543.99" cy="93" r="5"/>
    <circle class="cls-1" cx="555" cy="93" r="5"/>
    <circle class="cls-1" cx="566" cy="93" r="5"/>
    <circle class="cls-1" cx="577" cy="93" r="5"/>
    <circle class="cls-1" cx="588" cy="93" r="5"/>
    <circle class="cls-1" cx="598.99" cy="93" r="5"/>
    <circle class="cls-1" cx="609.99" cy="93" r="5"/>
    <circle class="cls-1" cx="620.99" cy="93" r="5"/>
    <circle class="cls-1" cx="632" cy="93" r="5"/>
    <circle class="cls-1" cx="500" cy="104" r="5"/>
    <circle class="cls-1" cx="510.99" cy="104" r="5"/>
    <circle class="cls-1" cx="521.99" cy="104" r="5"/>
    <circle class="cls-1" cx="532.99" cy="104" r="5"/>
    <circle class="cls-1" cx="543.99" cy="104" r="5"/>
    <circle class="cls-1" cx="555" cy="104" r="5"/>
    <circle class="cls-1" cx="566" cy="104" r="5"/>
    <circle class="cls-1" cx="577" cy="104" r="5"/>
    <circle class="cls-1" cx="588" cy="104" r="5"/>
    <circle class="cls-1" cx="598.99" cy="104" r="5"/>
    <circle class="cls-1" cx="609.99" cy="104" r="5"/>
    <circle class="cls-1" cx="620.99" cy="104" r="5"/>
    <circle class="cls-1" cx="632" cy="104" r="5"/>
    <circle class="cls-1" cx="643" cy="104" r="5"/>
    <circle class="cls-1" cx="455.99" cy="115" r="5"/>
    <circle class="cls-1" cx="466.99" cy="115" r="5"/>
    <circle class="cls-1" cx="500" cy="115" r="5"/>
    <circle class="cls-1" cx="510.99" cy="115" r="5"/>
    <circle class="cls-1" cx="521.99" cy="115" r="5"/>
    <circle class="cls-1" cx="532.99" cy="115" r="5"/>
    <circle class="cls-1" cx="543.99" cy="115" r="5"/>
    <circle class="cls-1" cx="555" cy="115" r="5"/>
    <circle class="cls-1" cx="566" cy="115" r="5"/>
    <circle class="cls-1" cx="577" cy="115" r="5"/>
    <circle class="cls-1" cx="588" cy="115" r="5"/>
    <circle class="cls-1" cx="598.99" cy="115" r="5"/>
    <circle class="cls-1" cx="609.99" cy="115" r="5"/>
    <circle class="cls-1" cx="620.99" cy="115" r="5"/>
    <circle class="cls-1" cx="632" cy="115" r="5"/>
    <circle class="cls-1" cx="643" cy="115" r="5"/>
    <circle class="cls-1" cx="654" cy="115" r="5"/>
    <circle class="cls-1" cx="466.99" cy="126" r="5"/>
    <circle class="cls-1" cx="478" cy="126" r="5"/>
    <circle class="cls-1" cx="489" cy="126" r="5"/>
    <circle class="cls-1" cx="500" cy="126" r="5"/>
    <circle class="cls-1" cx="510.99" cy="126" r="5"/>
    <circle class="cls-1" cx="521.99" cy="126" r="5"/>
    <circle class="cls-1" cx="532.99" cy="126" r="5"/>
    <circle class="cls-1" cx="543.99" cy="126" r="5"/>
    <circle class="cls-1" cx="555" cy="126" r="5"/>
    <circle class="cls-1" cx="566" cy="126" r="5"/>
    <circle class="cls-1" cx="577" cy="126" r="5"/>
    <circle class="cls-1" cx="588" cy="126" r="5"/>
    <circle class="cls-1" cx="598.99" cy="126" r="5"/>
    <circle class="cls-1" cx="609.99" cy="126" r="5"/>
    <circle class="cls-1" cx="620.99" cy="126" r="5"/>
    <circle class="cls-1" cx="632" cy="126" r="5"/>
    <circle class="cls-1" cx="455.99" cy="136.99" r="5"/>
    <circle class="cls-1" cx="466.99" cy="136.99" r="5"/>
    <circle class="cls-1" cx="478" cy="136.99" r="5"/>
    <circle class="cls-1" cx="489" cy="136.99" r="5"/>
    <circle class="cls-1" cx="500" cy="136.99" r="5"/>
    <circle class="cls-1" cx="510.99" cy="136.99" r="5"/>
    <circle class="cls-1" cx="521.99" cy="136.99" r="5"/>
    <circle class="cls-1" cx="532.99" cy="136.99" r="5"/>
    <circle class="cls-1" cx="543.99" cy="136.99" r="5"/>
    <circle class="cls-1" cx="555" cy="136.99" r="5"/>
    <circle class="cls-1" cx="566" cy="136.99" r="5"/>
    <circle class="cls-1" cx="577" cy="136.99" r="5"/>
    <circle class="cls-1" cx="588" cy="136.99" r="5"/>
    <circle class="cls-1" cx="444.99" cy="148.01" r="5"/>
    <circle class="cls-1" cx="455.99" cy="148.01" r="5"/>
    <circle class="cls-1" cx="466.99" cy="148.01" r="5"/>
    <circle class="cls-1" cx="478" cy="148.01" r="5"/>
    <circle class="cls-1" cx="489" cy="148.01" r="5"/>
    <circle class="cls-1" cx="500" cy="148.01" r="5"/>
    <circle class="cls-1" cx="510.99" cy="148.01" r="5"/>
    <circle class="cls-1" cx="521.99" cy="148.01" r="5"/>
    <circle class="cls-1" cx="532.99" cy="148.01" r="5"/>
    <circle class="cls-1" cx="543.99" cy="148.01" r="5"/>
    <circle class="cls-1" cx="555" cy="148.01" r="5"/>
    <circle class="cls-1" cx="566" cy="148.01" r="5"/>
    <circle class="cls-1" cx="577" cy="148.01" r="5"/>
    <circle class="cls-1" cx="444.99" cy="159.01" r="5"/>
    <circle class="cls-1" cx="455.99" cy="159.01" r="5"/>
    <circle class="cls-1" cx="478" cy="159.01" r="5"/>
    <circle class="cls-1" cx="532.99" cy="159.01" r="5"/>
    <circle class="cls-1" cx="543.99" cy="159.01" r="5"/>
    <circle class="cls-1" cx="555" cy="159.01" r="5"/>
    <circle class="cls-1" cx="566" cy="159.01" r="5"/>
    <circle class="cls-1" cx="423" cy="170" r="5"/>
    <circle class="cls-1" cx="444.99" cy="170" r="5"/>
    <circle class="cls-1" cx="455.99" cy="170" r="5"/>
    <circle class="cls-1" cx="543.99" cy="170" r="5"/>
    <circle class="cls-1" cx="555" cy="170" r="5"/>
    <circle class="cls-1" cx="566" cy="170" r="5"/>
    <circle class="cls-1" cx="455.99" cy="181" r="5"/>
    <circle class="cls-1" cx="466.99" cy="181" r="5"/>
    <circle class="cls-1" cx="566" cy="181" r="5"/>
    <circle class="cls-1" cx="444.99" cy="192" r="5"/>
    <circle class="cls-1" cx="455.99" cy="192" r="5"/>
    <circle class="cls-1" cx="466.99" cy="192" r="5"/>
    <circle class="cls-1" cx="478" cy="192" r="5"/>
    <circle class="cls-1" cx="489" cy="192" r="5"/>
    <circle class="cls-1" cx="444.99" cy="203" r="5"/>
    <circle class="cls-1" cx="455.99" cy="203" r="5"/>
    <circle class="cls-1" cx="478" cy="213.99" r="5"/>
    <circle class="cls-1" cx="489" cy="213.99" r="5"/>
    <circle class="cls-1" cx="455.99" cy="224.99" r="5"/>
    <circle class="cls-1" cx="466.99" cy="224.99" r="5"/>
    <circle class="cls-1" cx="455.99" cy="235.99" r="5"/>
    <circle class="cls-1" cx="466.99" cy="235.99" r="5"/>
    <circle class="cls-1" cx="478" cy="235.99" r="5"/>
    <circle class="cls-1" cx="489" cy="235.99" r="5"/>
    <circle class="cls-1" cx="444.99" cy="247.01" r="5"/>
    <circle class="cls-1" cx="455.99" cy="247.01" r="5"/>
    <circle class="cls-1" cx="466.99" cy="247.01" r="5"/>
    <circle class="cls-1" cx="478" cy="247.01" r="5"/>
    <circle class="cls-1" cx="489" cy="247.01" r="5"/>
    <circle class="cls-1" cx="444.99" cy="258" r="5"/>
    <circle class="cls-1" cx="455.99" cy="258" r="5"/>
    <circle class="cls-1" cx="466.99" cy="258" r="5"/>
    <circle class="cls-1" cx="478" cy="258" r="5"/>
    <circle class="cls-1" cx="489" cy="258" r="5"/>
    <circle class="cls-1" cx="500" cy="258" r="5"/>
    <circle class="cls-1" cx="444.99" cy="269" r="5"/>
    <circle class="cls-1" cx="455.99" cy="269" r="5"/>
    <circle class="cls-1" cx="466.99" cy="269" r="5"/>
    <circle class="cls-1" cx="478" cy="269" r="5"/>
    <circle class="cls-1" cx="489" cy="269" r="5"/>
    <circle class="cls-1" cx="500" cy="269" r="5"/>
    <circle class="cls-1" cx="510.99" cy="269" r="5"/>
    <circle class="cls-1" cx="444.99" cy="280" r="5"/>
    <circle class="cls-1" cx="455.99" cy="280" r="5"/>
    <circle class="cls-1" cx="466.99" cy="280" r="5"/>
    <circle class="cls-1" cx="478" cy="280" r="5"/>
    <circle class="cls-1" cx="489" cy="280" r="5"/>
    <circle class="cls-1" cx="500" cy="280" r="5"/>
    <circle class="cls-1" cx="510.99" cy="280" r="5"/>
    <circle class="cls-1" cx="433.99" cy="290.99" r="5"/>
    <circle class="cls-1" cx="444.99" cy="290.99" r="5"/>
    <circle class="cls-1" cx="455.99" cy="290.99" r="5"/>
    <circle class="cls-1" cx="466.99" cy="290.99" r="5"/>
    <circle class="cls-1" cx="478" cy="290.99" r="5"/>
    <circle class="cls-1" cx="489" cy="290.99" r="5"/>
    <circle class="cls-1" cx="500" cy="290.99" r="5"/>
    <circle class="cls-1" cx="510.99" cy="290.99" r="5"/>
    <circle class="cls-1" cx="444.99" cy="301.99" r="5"/>
    <circle class="cls-1" cx="455.99" cy="301.99" r="5"/>
    <circle class="cls-1" cx="466.99" cy="301.99" r="5"/>
    <circle class="cls-1" cx="478" cy="301.99" r="5"/>
    <circle class="cls-1" cx="489" cy="301.99" r="5"/>
    <circle class="cls-1" cx="500" cy="301.99" r="5"/>
    <circle class="cls-1" cx="510.99" cy="301.99" r="5"/>
    <circle class="cls-1" cx="444.99" cy="312.99" r="5"/>
    <circle class="cls-1" cx="455.99" cy="312.99" r="5"/>
    <circle class="cls-1" cx="466.99" cy="312.99" r="5"/>
    <circle class="cls-1" cx="478" cy="312.99" r="5"/>
    <circle class="cls-1" cx="489" cy="312.99" r="5"/>
    <circle class="cls-1" cx="500" cy="312.99" r="5"/>
    <circle class="cls-1" cx="510.99" cy="312.99" r="5"/>
    <circle class="cls-1" cx="444.99" cy="324.01" r="5"/>
    <circle class="cls-1" cx="455.99" cy="324.01" r="5"/>
    <circle class="cls-1" cx="466.99" cy="324.01" r="5"/>
    <circle class="cls-1" cx="478" cy="324.01" r="5"/>
    <circle class="cls-1" cx="489" cy="324.01" r="5"/>
    <circle class="cls-1" cx="500" cy="324.01" r="5"/>
    <circle class="cls-1" cx="510.99" cy="324.01" r="5"/>
    <circle class="cls-1" cx="444.99" cy="335" r="5"/>
    <circle class="cls-1" cx="455.99" cy="335" r="5"/>
    <circle class="cls-1" cx="466.99" cy="335" r="5"/>
    <circle class="cls-1" cx="478" cy="335" r="5"/>
    <circle class="cls-1" cx="489" cy="335" r="5"/>
    <circle class="cls-1" cx="500" cy="335" r="5"/>
    <circle class="cls-1" cx="433.99" cy="346" r="5"/>
    <circle class="cls-1" cx="444.99" cy="346" r="5"/>
    <circle class="cls-1" cx="455.99" cy="346" r="5"/>
    <circle class="cls-1" cx="466.99" cy="346" r="5"/>
    <circle class="cls-1" cx="478" cy="346" r="5"/>
    <circle class="cls-1" cx="489" cy="346" r="5"/>
    <circle class="cls-1" cx="500" cy="346" r="5"/>
    <circle class="cls-1" cx="433.99" cy="357" r="5"/>
    <circle class="cls-1" cx="444.99" cy="357" r="5"/>
    <circle class="cls-1" cx="455.99" cy="357" r="5"/>
    <circle class="cls-1" cx="466.99" cy="357" r="5"/>
    <circle class="cls-1" cx="478" cy="357" r="5"/>
    <circle class="cls-1" cx="489" cy="357" r="5"/>
    <circle class="cls-1" cx="500" cy="357" r="5"/>
    <circle class="cls-1" cx="423" cy="368" r="5"/>
    <circle class="cls-1" cx="433.99" cy="368" r="5"/>
    <circle class="cls-1" cx="444.99" cy="368" r="5"/>
    <circle class="cls-1" cx="455.99" cy="368" r="5"/>
    <circle class="cls-1" cx="466.99" cy="368" r="5"/>
    <circle class="cls-1" cx="478" cy="368" r="5"/>
    <circle class="cls-1" cx="500" cy="368" r="5"/>
    <circle class="cls-1" cx="378.99" cy="378.99" r="5"/>
    <circle class="cls-1" cx="423" cy="378.99" r="5"/>
    <circle class="cls-1" cx="433.99" cy="378.99" r="5"/>
    <circle class="cls-1" cx="444.99" cy="378.99" r="5"/>
    <circle class="cls-1" cx="455.99" cy="378.99" r="5"/>
    <circle class="cls-1" cx="466.99" cy="378.99" r="5"/>
    <circle class="cls-1" cx="478" cy="378.99" r="5"/>
    <circle class="cls-1" cx="378.99" cy="390.01" r="5"/>
    <circle class="cls-1" cx="401" cy="390.01" r="5"/>
    <circle class="cls-1" cx="412" cy="390.01" r="5"/>
    <circle class="cls-1" cx="423" cy="390.01" r="5"/>
    <circle class="cls-1" cx="433.99" cy="390.01" r="5"/>
    <circle class="cls-1" cx="444.99" cy="390.01" r="5"/>
    <circle class="cls-1" cx="455.99" cy="390.01" r="5"/>
    <circle class="cls-1" cx="466.99" cy="390.01" r="5"/>
    <circle class="cls-1" cx="478" cy="390.01" r="5"/>
    <circle class="cls-1" cx="401" cy="401.01" r="5"/>
    <circle class="cls-1" cx="412" cy="401.01" r="5"/>
    <circle class="cls-1" cx="423" cy="401.01" r="5"/>
    <circle class="cls-1" cx="433.99" cy="401.01" r="5"/>
    <circle class="cls-1" cx="444.99" cy="401.01" r="5"/>
    <circle class="cls-1" cx="455.99" cy="401.01" r="5"/>
    <circle class="cls-1" cx="466.99" cy="401.01" r="5"/>
    <circle class="cls-1" cx="478" cy="401.01" r="5"/>
    <circle class="cls-1" cx="324" cy="412" r="5"/>
    <circle class="cls-1" cx="335" cy="412" r="5"/>
    <circle class="cls-1" cx="390" cy="412" r="5"/>
    <circle class="cls-1" cx="401" cy="412" r="5"/>
    <circle class="cls-1" cx="412" cy="412" r="5"/>
    <circle class="cls-1" cx="423" cy="412" r="5"/>
    <circle class="cls-1" cx="433.99" cy="412" r="5"/>
    <circle class="cls-1" cx="444.99" cy="412" r="5"/>
    <circle class="cls-1" cx="455.99" cy="412" r="5"/>
    <circle class="cls-1" cx="466.99" cy="412" r="5"/>
    <circle class="cls-1" cx="478" cy="412" r="5"/>
    <circle class="cls-1" cx="367.99" cy="423" r="5"/>
    <circle class="cls-1" cx="378.99" cy="423" r="5"/>
    <circle class="cls-1" cx="390" cy="423" r="5"/>
    <circle class="cls-1" cx="401" cy="423" r="5"/>
    <circle class="cls-1" cx="412" cy="423" r="5"/>
    <circle class="cls-1" cx="423" cy="423" r="5"/>
    <circle class="cls-1" cx="433.99" cy="423" r="5"/>
    <circle class="cls-1" cx="444.99" cy="423" r="5"/>
    <circle class="cls-1" cx="455.99" cy="423" r="5"/>
    <circle class="cls-1" cx="466.99" cy="423" r="5"/>
    <circle class="cls-1" cx="478" cy="423" r="5"/>
    <circle class="cls-1" cx="324" cy="434" r="5"/>
    <circle class="cls-1" cx="346" cy="434" r="5"/>
    <circle class="cls-1" cx="356.99" cy="434" r="5"/>
    <circle class="cls-1" cx="367.99" cy="434" r="5"/>
    <circle class="cls-1" cx="401" cy="434" r="5"/>
    <circle class="cls-1" cx="324" cy="445" r="5"/>
    <circle class="cls-1" cx="335" cy="445" r="5"/>
    <circle class="cls-1" cx="346" cy="445" r="5"/>
    <circle class="cls-1" cx="423" cy="478.01" r="5"/>
    <circle class="cls-1" cx="433.99" cy="478.01" r="5"/>
    <circle class="cls-1" cx="258" cy="500" r="5"/>
    <circle class="cls-1" cx="268.99" cy="500" r="5"/>
    <circle class="cls-1" cx="279.99" cy="500" r="5"/>
    <circle class="cls-1" cx="290.99" cy="500" r="5"/>
    <circle class="cls-1" cx="191.99" cy="511" r="5"/>
    <circle class="cls-1" cx="202.99" cy="511" r="5"/>
    <circle class="cls-1" cx="213.99" cy="511" r="5"/>
    <circle class="cls-1" cx="225.01" cy="511" r="5"/>
    <circle class="cls-1" cx="236" cy="511" r="5"/>
    <circle class="cls-1" cx="247" cy="511" r="5"/>
    <circle class="cls-1" cx="258" cy="511" r="5"/>
    <circle class="cls-1" cx="268.99" cy="511" r="5"/>
    <circle class="cls-1" cx="279.99" cy="511" r="5"/>
    <circle class="cls-1" cx="290.99" cy="511" r="5"/>
    <circle class="cls-1" cx="302.01" cy="511" r="5"/>
    <circle class="cls-1" cx="170" cy="522" r="5"/>
    <circle class="cls-1" cx="181" cy="522" r="5"/>
    <circle class="cls-1" cx="191.99" cy="522" r="5"/>
    <circle class="cls-1" cx="202.99" cy="522" r="5"/>
    <circle class="cls-1" cx="213.99" cy="522" r="5"/>
    <circle class="cls-1" cx="225.01" cy="522" r="5"/>
    <circle class="cls-1" cx="236" cy="522" r="5"/>
    <circle class="cls-1" cx="247" cy="522" r="5"/>
    <circle class="cls-1" cx="258" cy="522" r="5"/>
    <circle class="cls-1" cx="268.99" cy="522" r="5"/>
    <circle class="cls-1" cx="279.99" cy="522" r="5"/>
    <g id="kyotoGroup">
      <circle id="kyoto" class="cls-1" cx="290.99" cy="522" r="5"/>
    </g>
    <circle class="cls-1" cx="302.01" cy="522" r="5"/>
    <circle class="cls-1" cx="313" cy="522" r="5"/>
    <g id="nagoyaGroup">
      <circle id="nagoya" class="cls-1" cx="324" cy="522" r="5"/>
    </g>
    <circle class="cls-1" cx="335" cy="522" r="5"/>
    <circle class="cls-1" cx="346" cy="522" r="5"/>
    <circle class="cls-1" cx="159" cy="532.99" r="5"/>
    <circle class="cls-1" cx="170" cy="532.99" r="5"/>
    <circle class="cls-1" cx="181" cy="532.99" r="5"/>
    <circle class="cls-1" cx="191.99" cy="532.99" r="5"/>
    <circle class="cls-1" cx="202.99" cy="532.99" r="5"/>
    <circle class="cls-1" cx="213.99" cy="532.99" r="5"/>
    <circle class="cls-1" cx="225.01" cy="532.99" r="5"/>
    <circle class="cls-1" cx="236" cy="532.99" r="5"/>
    <g id="kobeGroup">
      <circle id="kobe" class="cls-1" cx="247" cy="532.99" r="5"/>
    </g>
    <circle class="cls-1" cx="258" cy="532.99" r="5"/>
    <g id="osakaGroup">
      <circle id="osaka" class="cls-1" cx="268.99" cy="532.99" r="5"/>
    </g>
    <g id="naraGroup">
      <circle id="nara" class="cls-1" cx="279.99" cy="532.99" r="5"/>
    </g>
    <circle class="cls-1" cx="290.99" cy="532.99" r="5"/>
    <circle class="cls-1" cx="302.01" cy="532.99" r="5"/>
    <circle class="cls-1" cx="324" cy="532.99" r="5"/>
    <circle class="cls-1" cx="335" cy="532.99" r="5"/>
    <circle class="cls-1" cx="346" cy="532.99" r="5"/>
    <circle class="cls-1" cx="136.99" cy="543.99" r="5"/>
    <circle class="cls-1" cx="148" cy="543.99" r="5"/>
    <circle class="cls-1" cx="159" cy="543.99" r="5"/>
    <circle class="cls-1" cx="170" cy="543.99" r="5"/>
    <circle class="cls-1" cx="181" cy="543.99" r="5"/>
    <circle class="cls-1" cx="191.99" cy="543.99" r="5"/>
    <circle class="cls-1" cx="202.99" cy="543.99" r="5"/>
    <circle class="cls-1" cx="213.99" cy="543.99" r="5"/>
    <circle class="cls-1" cx="268.99" cy="543.99" r="5"/>
    <circle class="cls-1" cx="279.99" cy="543.99" r="5"/>
    <circle class="cls-1" cx="290.99" cy="543.99" r="5"/>
    <circle class="cls-1" cx="302.01" cy="543.99" r="5"/>
    <circle class="cls-1" cx="335" cy="543.99" r="5"/>
    <circle class="cls-1" cx="26.99" cy="554.99" r="5"/>
    <circle class="cls-1" cx="104" cy="554.99" r="5"/>
    <circle class="cls-1" cx="114.99" cy="554.99" r="5"/>
    <circle class="cls-1" cx="125.99" cy="554.99" r="5"/>
    <g id="miyajimaGroup">
      <circle id="miyajima" class="cls-1" cx="136.99" cy="554.99" r="5"/>
    </g>
    <g id="hiroshimaGroup">
      <circle id="hiroshima" class="cls-1" cx="148" cy="554.99" r="5"/>
    </g>
    <circle class="cls-1" cx="159" cy="554.99" r="5"/>
    <circle class="cls-1" cx="170" cy="554.99" r="5"/>
    <circle class="cls-1" cx="268.99" cy="554.99" r="5"/>
    <circle class="cls-1" cx="279.99" cy="554.99" r="5"/>
    <circle class="cls-1" cx="290.99" cy="554.99" r="5"/>
    <circle class="cls-1" cx="302.01" cy="554.99" r="5"/>
    <circle class="cls-1" cx="313" cy="554.99" r="5"/>
    <circle class="cls-1" cx="26.99" cy="566.01" r="5"/>
    <circle class="cls-1" cx="93" cy="566.01" r="5"/>
    <circle class="cls-1" cx="104" cy="566.01" r="5"/>
    <circle class="cls-1" cx="114.99" cy="566.01" r="5"/>
    <circle class="cls-1" cx="125.99" cy="566.01" r="5"/>
    <circle class="cls-1" cx="136.99" cy="566.01" r="5"/>
    <circle class="cls-1" cx="170" cy="566.01" r="5"/>
    <circle class="cls-1" cx="202.99" cy="566.01" r="5"/>
    <circle class="cls-1" cx="213.99" cy="566.01" r="5"/>
    <circle class="cls-1" cx="225.01" cy="566.01" r="5"/>
    <circle class="cls-1" cx="258" cy="566.01" r="5"/>
    <circle class="cls-1" cx="268.99" cy="566.01" r="5"/>
    <circle class="cls-1" cx="279.99" cy="566.01" r="5"/>
    <circle class="cls-1" cx="290.99" cy="566.01" r="5"/>
    <circle class="cls-1" cx="82" cy="577" r="5"/>
    <circle class="cls-1" cx="93" cy="577" r="5"/>
    <circle class="cls-1" cx="136.99" cy="577" r="5"/>
    <circle class="cls-1" cx="148" cy="577" r="5"/>
    <circle class="cls-1" cx="170" cy="577" r="5"/>
    <circle class="cls-1" cx="181" cy="577" r="5"/>
    <circle class="cls-1" cx="191.99" cy="577" r="5"/>
    <circle class="cls-1" cx="202.99" cy="577" r="5"/>
    <circle class="cls-1" cx="213.99" cy="577" r="5"/>
    <circle class="cls-1" cx="225.01" cy="577" r="5"/>
    <circle class="cls-1" cx="236" cy="577" r="5"/>
    <circle class="cls-1" cx="258" cy="577" r="5"/>
    <circle class="cls-1" cx="268.99" cy="577" r="5"/>
    <circle class="cls-1" cx="279.99" cy="577" r="5"/>
    <circle class="cls-1" cx="290.99" cy="577" r="5"/>
    <circle class="cls-1" cx="82" cy="588" r="5"/>
    <circle class="cls-1" cx="93" cy="588" r="5"/>
    <circle class="cls-1" cx="114.99" cy="588" r="5"/>
    <circle class="cls-1" cx="159" cy="588" r="5"/>
    <circle class="cls-1" cx="170" cy="588" r="5"/>
    <circle class="cls-1" cx="181" cy="588" r="5"/>
    <circle class="cls-1" cx="191.99" cy="588" r="5"/>
    <circle class="cls-1" cx="202.99" cy="588" r="5"/>
    <circle class="cls-1" cx="213.99" cy="588" r="5"/>
    <circle class="cls-1" cx="225.01" cy="588" r="5"/>
    <circle class="cls-1" cx="268.99" cy="588" r="5"/>
    <circle class="cls-1" cx="279.99" cy="588" r="5"/>
    <circle class="cls-1" cx="48.99" cy="599" r="5"/>
    <circle class="cls-1" cx="59.99" cy="599" r="5"/>
    <circle class="cls-1" cx="71" cy="599" r="5"/>
    <circle class="cls-1" cx="82" cy="599" r="5"/>
    <circle class="cls-1" cx="93" cy="599" r="5"/>
    <circle class="cls-1" cx="104" cy="599" r="5"/>
    <circle class="cls-1" cx="114.99" cy="599" r="5"/>
    <circle class="cls-1" cx="159" cy="599" r="5"/>
    <circle class="cls-1" cx="170" cy="599" r="5"/>
    <circle class="cls-1" cx="181" cy="599" r="5"/>
    <circle class="cls-1" cx="213.99" cy="599" r="5"/>
    <circle class="cls-1" cx="48.99" cy="610" r="5"/>
    <circle class="cls-1" cx="59.99" cy="610" r="5"/>
    <circle class="cls-1" cx="71" cy="610" r="5"/>
    <circle class="cls-1" cx="82" cy="610" r="5"/>
    <circle class="cls-1" cx="93" cy="610" r="5"/>
    <circle class="cls-1" cx="104" cy="610" r="5"/>
    <circle class="cls-1" cx="114.99" cy="610" r="5"/>
    <circle class="cls-1" cx="125.99" cy="610" r="5"/>
    <circle class="cls-1" cx="159" cy="610" r="5"/>
    <circle class="cls-1" cx="170" cy="610" r="5"/>
    <circle class="cls-1" cx="181" cy="610" r="5"/>
    <circle class="cls-1" cx="48.99" cy="620.99" r="5"/>
    <circle class="cls-1" cx="59.99" cy="620.99" r="5"/>
    <circle class="cls-1" cx="82" cy="620.99" r="5"/>
    <circle class="cls-1" cx="93" cy="620.99" r="5"/>
    <circle class="cls-1" cx="104" cy="620.99" r="5"/>
    <circle class="cls-1" cx="114.99" cy="620.99" r="5"/>
    <circle class="cls-1" cx="125.99" cy="620.99" r="5"/>
    <circle class="cls-1" cx="136.99" cy="620.99" r="5"/>
    <circle class="cls-1" cx="159" cy="620.99" r="5"/>
    <circle class="cls-1" cx="170" cy="620.99" r="5"/>
    <circle class="cls-1" cx="5" cy="631.99" r="5"/>
    <circle class="cls-1" cx="71" cy="631.99" r="5"/>
    <circle class="cls-1" cx="82" cy="631.99" r="5"/>
    <circle class="cls-1" cx="93" cy="631.99" r="5"/>
    <circle class="cls-1" cx="104" cy="631.99" r="5"/>
    <circle class="cls-1" cx="114.99" cy="631.99" r="5"/>
    <circle class="cls-1" cx="125.99" cy="631.99" r="5"/>
    <circle class="cls-1" cx="59.99" cy="642.99" r="5"/>
    <circle class="cls-1" cx="71" cy="642.99" r="5"/>
    <circle class="cls-1" cx="82" cy="642.99" r="5"/>
    <circle class="cls-1" cx="93" cy="642.99" r="5"/>
    <circle class="cls-1" cx="104" cy="642.99" r="5"/>
    <circle class="cls-1" cx="114.99" cy="642.99" r="5"/>
    <circle class="cls-1" cx="59.99" cy="654" r="5"/>
    <circle class="cls-1" cx="82" cy="654" r="5"/>
    <circle class="cls-1" cx="93" cy="654" r="5"/>
    <circle class="cls-1" cx="104" cy="654" r="5"/>
    <circle class="cls-1" cx="114.99" cy="654" r="5"/>
    <circle class="cls-1" cx="71" cy="665" r="5"/>
    <circle class="cls-1" cx="82" cy="665" r="5"/>
    <circle class="cls-1" cx="93" cy="665" r="5"/>
    <circle class="cls-1" cx="104" cy="665" r="5"/>
    <circle class="cls-1" cx="71" cy="676" r="5"/>
    <circle class="cls-1" cx="82" cy="676" r="5"/>
    <circle class="cls-1" cx="93" cy="676" r="5"/>
    <circle class="cls-1" cx="104" cy="676" r="5"/>
    <circle class="cls-1" cx="71" cy="687" r="5"/>
    <circle class="cls-1" cx="93" cy="687" r="5"/>
    <circle class="cls-1" cx="104" cy="687" r="5"/>
    <circle class="cls-1" cx="71" cy="697.99" r="5"/>
    <circle class="cls-1" cx="82" cy="697.99" r="5"/>
    <circle class="cls-1" cx="93" cy="697.99" r="5"/>
    <circle class="cls-1" cx="82" cy="708.99" r="5"/>
    <circle class="cls-1" cx="93" cy="731.01" r="5"/>
    <g id="tokyoGroup">
      <circle id="tokyo" class="cls-1" cx="423" cy="500" r="5"/>
    </g>
    <circle class="cls-1" cx="433.99" cy="489.01" r="5"/>
    <circle class="cls-1" cx="423" cy="489.01" r="5"/>
    <circle class="cls-1" cx="412" cy="489.01" r="5"/>
    <circle class="cls-1" cx="148" cy="522" r="5"/>
    <circle class="cls-1" cx="159" cy="511" r="5"/>
    <circle class="cls-1" cx="181" cy="500" r="5"/>
    <circle class="cls-1" cx="466.99" cy="478.01" r="5"/>
    <circle class="cls-1" cx="455.99" cy="478.01" r="5"/>
    <circle class="cls-1" cx="455.99" cy="466.99" r="5"/>
    <circle class="cls-1" cx="444.99" cy="466.99" r="5"/>
    <circle class="cls-1" cx="455.99" cy="455.99" r="5"/>
    <circle class="cls-1" cx="466.99" cy="445" r="5"/>
    <circle class="cls-1" cx="455.99" cy="445" r="5"/>
    <circle class="cls-1" cx="444.99" cy="478.01" r="5"/>
    <circle class="cls-1" cx="302.01" cy="489.01" r="5"/>
    <circle class="cls-1" cx="290.99" cy="478.01" r="5"/>
    <circle class="cls-1" cx="181" cy="466.99" r="5"/>
    <circle class="cls-1" cx="313" cy="455.99" r="5"/>
    <circle class="cls-1" cx="302.01" cy="466.99" r="5"/>
    <circle class="cls-1" cx="324" cy="455.99" r="5"/>
    <circle class="cls-1" cx="455.99" cy="434" r="5"/>
    <circle class="cls-1" cx="433.99" cy="466.99" r="5"/>
    <circle class="cls-1" cx="444.99" cy="455.99" r="5"/>
    <circle class="cls-1" cx="444.99" cy="445" r="5"/>
    <circle class="cls-1" cx="433.99" cy="455.99" r="5"/>
    <circle class="cls-1" cx="423" cy="455.99" r="5"/>
    <circle class="cls-1" cx="433.99" cy="445" r="5"/>
    <circle class="cls-1" cx="423" cy="445" r="5"/>
    <circle class="cls-1" cx="444.99" cy="434" r="5"/>
    <circle class="cls-1" cx="433.99" cy="434" r="5"/>
    <circle class="cls-1" cx="423" cy="434" r="5"/>
    <circle class="cls-1" cx="302.01" cy="478.01" r="5"/>
    <circle class="cls-1" cx="423" cy="466.99" r="5"/>
    <circle class="cls-1" cx="401" cy="466.99" r="5"/>
    <circle class="cls-1" cx="390" cy="466.99" r="5"/>
    <circle class="cls-1" cx="401" cy="455.99" r="5"/>
    <circle class="cls-1" cx="390" cy="455.99" r="5"/>
    <circle class="cls-1" cx="412" cy="445" r="5"/>
    <circle class="cls-1" cx="401" cy="445" r="5"/>
    <circle class="cls-1" cx="390" cy="445" r="5"/>
    <circle class="cls-1" cx="412" cy="434" r="5"/>
    <circle class="cls-1" cx="313" cy="478.01" r="5"/>
    <circle class="cls-1" cx="412" cy="466.99" r="5"/>
    <circle class="cls-1" cx="313" cy="466.99" r="5"/>
    <circle class="cls-1" cx="412" cy="455.99" r="5"/>
    <g id="takayamaGroup">
      <circle id="takayama" class="cls-1" cx="335" cy="455.99" r="5"/>
    </g>
    <circle class="cls-1" cx="466.99" cy="434" r="5"/>
    <circle class="cls-1" cx="444.99" cy="522" r="5"/>
    <circle class="cls-1" cx="455.99" cy="511" r="5"/>
    <circle class="cls-1" cx="466.99" cy="489.01" r="5"/>
    <circle class="cls-1" cx="444.99" cy="511" r="5"/>
    <circle class="cls-1" cx="444.99" cy="500" r="5"/>
    <circle class="cls-1" cx="455.99" cy="500" r="5"/>
    <circle class="cls-1" cx="455.99" cy="489.01" r="5"/>
    <circle class="cls-1" cx="444.99" cy="489.01" r="5"/>
    <circle class="cls-1" cx="136.99" cy="532.99" r="5"/>
    <circle class="cls-1" cx="433.99" cy="500" r="5"/>
    <circle class="cls-1" cx="412" cy="511" r="5"/>
    <circle class="cls-1" cx="401" cy="532.99" r="5"/>
    <circle class="cls-1" cx="378.99" cy="532.99" r="5"/>
    <circle class="cls-1" cx="367.99" cy="511" r="5"/>
    <circle class="cls-1" cx="148" cy="532.99" r="5"/>
    <circle class="cls-1" cx="367.99" cy="532.99" r="5"/>
    <circle class="cls-1" cx="356.99" cy="532.99" r="5"/>
    <circle class="cls-1" cx="401" cy="522" r="5"/>
    <circle class="cls-1" cx="378.99" cy="522" r="5"/>
    <circle class="cls-1" cx="367.99" cy="522" r="5"/>
    <circle class="cls-1" cx="356.99" cy="522" r="5"/>
    <g id="yugawaraGroup">
      <circle id="yugawara" class="cls-1" cx="401" cy="511" r="5"/>
    </g>
    <circle class="cls-1" cx="390" cy="511" r="5"/>
    <circle class="cls-1" cx="378.99" cy="511" r="5"/>
    <circle class="cls-1" cx="125.99" cy="543.99" r="5"/>
    <circle class="cls-1" cx="401" cy="500" r="5"/>
    <circle class="cls-1" cx="390" cy="500" r="5"/>
    <circle class="cls-1" cx="401" cy="489.01" r="5"/>
    <circle class="cls-1" cx="390" cy="489.01" r="5"/>
    <circle class="cls-1" cx="378.99" cy="489.01" r="5"/>
    <circle class="cls-1" cx="378.99" cy="500" r="5"/>
    <circle class="cls-1" cx="412" cy="500" r="5"/>
    <circle class="cls-1" cx="225.01" cy="500" r="5"/>
    <circle class="cls-1" cx="170" cy="511" r="5"/>
    <circle class="cls-1" cx="236" cy="500" r="5"/>
    <circle class="cls-1" cx="390" cy="434" r="5"/>
    <circle class="cls-1" cx="324" cy="511" r="5"/>
    <circle class="cls-1" cx="181" cy="511" r="5"/>
    <circle class="cls-1" cx="247" cy="500" r="5"/>
    <circle class="cls-1" cx="346" cy="455.99" r="5"/>
    <circle class="cls-1" cx="346" cy="511" r="5"/>
    <circle class="cls-1" cx="335" cy="489.01" r="5"/>
    <circle class="cls-1" cx="324" cy="478.01" r="5"/>
    <circle class="cls-1" cx="335" cy="511" r="5"/>
    <circle class="cls-1" cx="313" cy="511" r="5"/>
    <circle class="cls-1" cx="346" cy="500" r="5"/>
    <circle class="cls-1" cx="335" cy="500" r="5"/>
    <circle class="cls-1" cx="324" cy="500" r="5"/>
    <circle class="cls-1" cx="313" cy="500" r="5"/>
    <circle class="cls-1" cx="302.01" cy="500" r="5"/>
    <circle class="cls-1" cx="324" cy="489.01" r="5"/>
    <circle class="cls-1" cx="324" cy="466.99" r="5"/>
    <circle class="cls-1" cx="313" cy="489.01" r="5"/>
    <circle class="cls-1" cx="346" cy="478.01" r="5"/>
    <circle class="cls-1" cx="335" cy="478.01" r="5"/>
    <circle class="cls-1" cx="346" cy="466.99" r="5"/>
    <circle class="cls-1" cx="335" cy="466.99" r="5"/>
    <circle class="cls-1" cx="159" cy="522" r="5"/>
    <circle class="cls-1" cx="412" cy="478.01" r="5"/>
    <circle class="cls-1" cx="356.99" cy="511" r="5"/>
    <circle class="cls-1" cx="356.99" cy="500" r="5"/>
    <circle class="cls-1" cx="367.99" cy="489.01" r="5"/>
    <circle class="cls-1" cx="390" cy="478.01" r="5"/>
    <circle class="cls-1" cx="378.99" cy="478.01" r="5"/>
    <circle class="cls-1" cx="367.99" cy="500" r="5"/>
    <circle class="cls-1" cx="356.99" cy="489.01" r="5"/>
    <circle class="cls-1" cx="346" cy="489.01" r="5"/>
    <circle class="cls-1" cx="401" cy="478.01" r="5"/>
    <circle class="cls-1" cx="367.99" cy="478.01" r="5"/>
    <circle class="cls-1" cx="356.99" cy="478.01" r="5"/>
    <circle class="cls-1" cx="378.99" cy="466.99" r="5"/>
    <circle class="cls-1" cx="367.99" cy="466.99" r="5"/>
    <circle class="cls-1" cx="356.99" cy="466.99" r="5"/>
    <circle class="cls-1" cx="378.99" cy="455.99" r="5"/>
    <circle class="cls-1" cx="367.99" cy="455.99" r="5"/>
    <circle class="cls-1" cx="356.99" cy="455.99" r="5"/>
    <circle class="cls-1" cx="378.99" cy="445" r="5"/>
    <circle class="cls-1" cx="367.99" cy="445" r="5"/>
    <g id="hakubaGroup">
      <circle id="hakuba" class="cls-1" cx="356.99" cy="445" r="5"/>
    </g>
    <circle class="cls-1" cx="378.99" cy="434" r="5"/>
    <g id="yokohamaGroup">
      <circle id="yokohama" class="cls-1" cx="423" cy="511" r="5"/>
    </g>
  </g>
</svg>
